<svg width="469" height="383" viewBox="0 0 469 383" fill="none" xmlns="http://www.w3.org/2000/svg">
<rect x="83.4148" y="71.2247" width="24.0081" height="24.0081" transform="rotate(75 83.4148 71.2247)" stroke="#204174" stroke-width="2"/>
<circle cx="90.5" cy="8.5" r="7.75" stroke="#3062AE" stroke-width="1.5"/>
<mask id="mask0" mask-type="alpha" maskUnits="userSpaceOnUse" x="69" y="0" width="351" height="305">
<path fill-rule="evenodd" clip-rule="evenodd" d="M258.356 2.7581C289.757 8.37539 311.802 33.9734 338.441 51.5248C364.717 68.8371 400.176 76.7913 413.786 105.165C427.431 133.613 415.325 166.936 408.582 197.759C402.279 226.571 398.502 259.059 375.958 278.073C354.001 296.592 321.784 291.701 293.255 295.028C269.581 297.788 247.038 295.605 223.205 295.885C187.693 296.302 149.263 315.378 118.826 297.076C87.9173 278.491 72.4065 239.277 69.3006 203.342C66.2581 168.139 86.9551 136.709 102.211 104.838C117.188 73.549 128.434 38.1319 157.468 19.1514C186.575 0.122122 224.124 -3.36538 258.356 2.7581Z" fill="#3062AE"/>
</mask>
<g mask="url(#mask0)">
<path fill-rule="evenodd" clip-rule="evenodd" d="M258.356 2.7581C289.757 8.37539 311.802 33.9734 338.441 51.5248C364.717 68.8371 400.176 76.7913 413.786 105.165C427.431 133.613 415.325 166.936 408.582 197.759C402.279 226.571 398.502 259.059 375.958 278.073C354.001 296.592 321.784 291.701 293.255 295.028C269.581 297.788 247.038 295.605 223.205 295.885C187.693 296.302 149.263 315.378 118.826 297.076C87.9173 278.491 72.4065 239.277 69.3006 203.342C66.2581 168.139 86.9551 136.709 102.211 104.838C117.188 73.549 128.434 38.1319 157.468 19.1514C186.575 0.122122 224.124 -3.36538 258.356 2.7581Z" fill="#3062AE"/>
<mask id="mask1" mask-type="alpha" maskUnits="userSpaceOnUse" x="37" y="-2" width="283" height="283">
<circle cx="178.394" cy="139.394" r="103.508" transform="rotate(120 178.394 139.394)" fill="#C4C4C4"/>
</mask>
<g mask="url(#mask1)">
<line x1="305.544" y1="221.413" x2="178.545" y2="1.44275" stroke="#ECF3FD" stroke-width="3"/>
<line x1="287.322" y1="223.851" x2="160.822" y2="4.7466" stroke="#ECF3FD" stroke-width="3"/>
<line x1="277.832" y1="237.413" x2="150.832" y2="17.4427" stroke="#ECF3FD" stroke-width="3"/>
<line x1="263.109" y1="245.913" x2="136.109" y2="25.9427" stroke="#ECF3FD" stroke-width="3"/>
<line x1="248.387" y1="254.413" x2="121.387" y2="34.4428" stroke="#ECF3FD" stroke-width="3"/>
<line x1="234.53" y1="262.413" x2="107.53" y2="42.4427" stroke="#ECF3FD" stroke-width="3"/>
<line x1="219.808" y1="270.913" x2="92.808" y2="50.9427" stroke="#ECF3FD" stroke-width="3"/>
<line x1="206.818" y1="278.413" x2="79.8176" y2="58.4427" stroke="#ECF3FD" stroke-width="3"/>
<line x1="192.095" y1="286.913" x2="65.0952" y2="66.9427" stroke="#ECF3FD" stroke-width="3"/>
<line x1="178.239" y1="294.913" x2="51.2388" y2="74.9427" stroke="#ECF3FD" stroke-width="3"/>
<line x1="319.401" y1="213.413" x2="192.401" y2="-6.55724" stroke="#ECF3FD" stroke-width="3"/>
<line x1="164.016" y1="304.279" x2="36.5164" y2="83.4427" stroke="#ECF3FD" stroke-width="3"/>
<line x1="330.623" y1="198.851" x2="204.123" y2="-20.2534" stroke="#ECF3FD" stroke-width="3"/>
</g>
<mask id="mask2" mask-type="alpha" maskUnits="userSpaceOnUse" x="299" y="202" width="105" height="105">
<circle cx="351.5" cy="254.5" r="52.5" transform="rotate(-180 351.5 254.5)" fill="#C4C4C4"/>
</mask>
<g mask="url(#mask2)">
<line x1="347.511" y1="331.033" x2="411.927" y2="219.461" stroke="#ECF3FD" stroke-width="2"/>
<line x1="341.819" y1="323.647" x2="405.981" y2="212.515" stroke="#ECF3FD" stroke-width="2"/>
<line x1="333.455" y1="322.917" x2="397.871" y2="211.346" stroke="#ECF3FD" stroke-width="2"/>
<line x1="325.988" y1="318.606" x2="390.403" y2="207.035" stroke="#ECF3FD" stroke-width="2"/>
<line x1="318.52" y1="314.295" x2="382.936" y2="202.724" stroke="#ECF3FD" stroke-width="2"/>
<line x1="311.492" y1="310.237" x2="375.908" y2="198.666" stroke="#ECF3FD" stroke-width="2"/>
<line x1="304.025" y1="305.926" x2="368.441" y2="194.355" stroke="#ECF3FD" stroke-width="2"/>
<line x1="297.436" y1="302.122" x2="361.852" y2="190.551" stroke="#ECF3FD" stroke-width="2"/>
<line x1="289.969" y1="297.81" x2="354.384" y2="186.239" stroke="#ECF3FD" stroke-width="2"/>
<line x1="282.941" y1="293.753" x2="347.356" y2="182.182" stroke="#ECF3FD" stroke-width="2"/>
<line x1="354.54" y1="335.09" x2="418.955" y2="223.519" stroke="#ECF3FD" stroke-width="2"/>
<line x1="275.22" y1="289.881" x2="339.889" y2="177.87" stroke="#ECF3FD" stroke-width="2"/>
<line x1="363.782" y1="336.327" x2="427.944" y2="225.195" stroke="#ECF3FD" stroke-width="2"/>
</g>
<path fill-rule="evenodd" clip-rule="evenodd" d="M187.229 302.45C194.585 302.473 201.732 302.724 209.109 302.749C239.093 302.849 269.353 302.703 299.447 301.488C307.952 301.143 310.075 301.153 318.544 300.619C323.544 300.601 338.564 300.188 337.812 293.374C337.48 280.684 334.339 268.048 333.35 255.393C331.452 231.602 329.835 207.067 320.302 184.815C318.096 179.501 313.357 176.025 308.665 172.9C303.961 169.53 302.806 165.786 298.464 161.979C297.546 161.173 292.332 160.845 289.527 158.802C285.444 155.83 283.419 150.962 281.895 150.134C280.775 149.524 280.795 145.317 278.549 143.829C275.533 141.831 265.927 140.345 262.431 140.068C259.076 139.801 253.241 140.361 250.093 141.59C244.843 143.639 242.75 147.549 240.438 152.586C209.897 162.029 181.981 178.019 173.311 210.271C165.835 237.322 165.561 266.322 168.449 294.066C169.027 296.094 168.622 299.275 170.375 300.619C164.284 300.968 186.403 302.226 187.229 302.45Z" fill="white"/>
<path fill-rule="evenodd" clip-rule="evenodd" d="M326.145 275.74C325.567 275.451 324.965 275.121 324.304 275.099C323.171 275.059 323.169 273.294 324.304 273.334C325.294 273.369 326.164 273.782 327.035 274.217C328.051 274.724 327.158 276.245 326.145 275.74ZM324.304 226.08C325.077 226.081 325.858 226.18 326.452 226.72C326.804 227.042 326.777 227.642 326.452 227.968C326.103 228.315 325.556 228.288 325.205 227.968C325.32 228.072 325.206 227.969 325.164 227.946C325.154 227.941 325.148 227.937 325.145 227.935C325.137 227.931 325.129 227.93 325.114 227.926C325.022 227.903 324.93 227.88 324.837 227.864C324.835 227.868 324.64 227.851 324.594 227.849C324.497 227.846 324.401 227.845 324.304 227.845C323.826 227.845 323.423 227.442 323.423 226.963C323.423 226.486 323.827 226.08 324.304 226.08ZM316.012 245.87C315.76 246.978 314.06 246.507 314.312 245.402C314.679 243.795 314.612 242.148 314.312 240.535C314.106 239.424 315.806 238.951 316.012 240.067C316.372 242.001 316.452 243.942 316.012 245.87ZM313.785 182.466C312.472 182.154 311.173 182.117 309.83 182.117C308.693 182.116 308.695 180.352 309.83 180.352C311.328 180.352 312.79 180.417 314.254 180.764C315.36 181.027 314.888 182.728 313.785 182.466ZM309.384 225.438C308.623 225.057 307.86 224.676 307.099 224.295C306.082 223.787 306.976 222.266 307.988 222.772L310.274 223.915C311.291 224.423 310.396 225.945 309.384 225.438ZM309.067 260.181C308.101 261.574 306.742 262.44 305.113 262.873C304.013 263.164 303.547 261.462 304.643 261.171C305.81 260.862 306.846 260.299 307.545 259.29C308.188 258.363 309.716 259.246 309.067 260.181ZM302.974 198.065C302.712 197.577 302.318 197.371 301.83 197.359C300.695 197.333 300.695 195.57 301.83 195.596C302.943 195.621 303.964 196.18 304.496 197.175C305.031 198.177 303.509 199.067 302.974 198.065ZM291.788 210.058C291.472 210.402 290.859 210.394 290.541 210.058C290.346 209.852 290.183 209.622 290.054 209.371C290.005 209.275 289.959 209.178 289.906 209.085C289.882 209.043 289.855 209.003 289.827 208.963C289.818 208.955 289.799 208.935 289.779 208.914C289.44 208.556 289.449 208.027 289.779 207.667C290.096 207.322 290.708 207.331 291.026 207.667C291.22 207.873 291.384 208.102 291.513 208.354C291.562 208.449 291.609 208.546 291.662 208.64C291.686 208.68 291.713 208.721 291.74 208.761C291.749 208.769 291.768 208.789 291.788 208.81C292.127 209.169 292.119 209.698 291.788 210.058ZM290.847 236.108C289.699 236.634 288.44 236.634 287.291 236.108C286.856 235.91 286.752 235.28 286.975 234.902C287.231 234.461 287.748 234.387 288.181 234.584C288.702 234.823 289.437 234.823 289.958 234.584C290.392 234.386 290.903 234.456 291.164 234.902C291.387 235.283 291.281 235.91 290.847 236.108ZM287.714 254.547C287.517 255.015 287.09 255.263 286.593 255.282C286.099 255.301 285.732 254.863 285.711 254.4C285.697 254.101 285.859 253.845 286.092 253.687C286.092 253.671 286.092 253.654 286.092 253.638C286.092 253.144 286.496 252.778 286.974 252.756C287.449 252.735 287.856 253.176 287.855 253.638C287.855 253.949 287.837 254.258 287.714 254.547ZM283.164 283.863C281.758 283.885 280.382 284.221 278.975 284.244C277.837 284.262 277.84 282.499 278.975 282.48C280.382 282.457 281.756 282.122 283.164 282.099C284.301 282.08 284.298 283.845 283.164 283.863ZM277.313 170.807C276.489 171.592 275.471 171.979 274.468 172.469C273.451 172.966 272.558 171.445 273.578 170.946C274.427 170.53 275.369 170.224 276.066 169.56C276.888 168.776 278.137 170.022 277.313 170.807ZM275.101 191.142C274.523 190.853 273.92 190.523 273.261 190.5C272.128 190.46 272.126 188.697 273.261 188.736C274.251 188.771 275.12 189.184 275.992 189.619C277.008 190.126 276.114 191.647 275.101 191.142ZM264.5 272.756C264.239 272.267 263.845 272.06 263.357 272.05C262.221 272.024 262.221 270.259 263.357 270.285C264.47 270.31 265.492 270.87 266.023 271.865C266.558 272.868 265.036 273.758 264.5 272.756ZM260.828 234.446C260.478 234.124 260.502 233.525 260.828 233.199C261.209 232.818 261.59 232.437 261.971 232.055C262.32 231.707 262.866 231.733 263.218 232.055C263.57 232.378 263.545 232.976 263.218 233.303C262.837 233.684 262.456 234.065 262.075 234.446C261.727 234.795 261.18 234.769 260.828 234.446ZM256.499 294.151C255.227 294.122 254.035 293.757 252.837 293.358C251.764 293.001 252.226 291.298 253.306 291.657C254.347 292.003 255.393 292.362 256.499 292.387C257.635 292.414 257.636 294.178 256.499 294.151ZM250.785 256.425C249.637 256.393 248.683 255.808 247.877 255.024C247.061 254.231 248.309 252.984 249.124 253.776C249.586 254.225 250.118 254.643 250.785 254.661C251.921 254.693 251.922 256.457 250.785 256.425ZM254.334 207.909C254.348 208.379 254.547 208.883 254.838 209.192C255.618 210.017 254.372 211.266 253.591 210.438C252.946 209.756 252.598 208.843 252.571 207.909C252.538 206.772 254.302 206.777 254.334 207.909ZM240.883 169.485C240.514 168.762 240.031 167.915 239.295 167.515C238.296 166.973 239.187 165.45 240.185 165.992C241.185 166.535 241.901 167.605 242.406 168.595C242.922 169.605 241.4 170.497 240.883 169.485ZM238.597 187.833C238.188 187.821 237.782 187.751 237.387 187.644C237.219 187.598 237.052 187.546 236.883 187.5C236.811 187.48 236.504 187.441 236.692 187.452C236.215 187.426 235.81 187.068 235.81 186.569C235.81 186.111 236.216 185.661 236.692 185.687C237.347 185.723 237.942 186.049 238.597 186.068C239.731 186.101 239.732 187.865 238.597 187.833ZM232.883 216.032H230.978C229.842 216.032 229.844 214.268 230.978 214.268H232.883C234.02 214.268 234.018 216.032 232.883 216.032ZM230.661 294.032C230.083 294.321 229.403 294.594 228.935 295.036C228.11 295.817 226.861 294.571 227.688 293.789C228.284 293.226 229.046 292.871 229.771 292.508C230.198 292.294 230.724 292.39 230.977 292.824C231.207 293.217 231.087 293.819 230.661 294.032ZM226.406 271.74C226.332 271.72 226.254 271.705 226.179 271.695C225.88 271.654 225.566 271.669 225.265 271.669C224.128 271.668 224.13 269.903 225.265 269.904C226.159 269.904 227.09 269.917 227.793 270.544C228.15 270.862 228.115 271.468 227.793 271.791C227.443 272.141 226.901 272.108 226.546 271.791C226.584 271.825 226.455 271.754 226.406 271.74ZM225.265 241.761C225.521 241.232 225.525 240.888 225.525 240.3C225.526 239.164 227.29 239.165 227.289 240.3C227.288 241.153 227.161 241.879 226.787 242.651C226.579 243.082 225.968 243.194 225.581 242.967C225.148 242.715 225.057 242.189 225.265 241.761ZM220.166 200.377C219.143 200.724 218.23 201.217 217.329 201.811C216.378 202.44 215.496 200.911 216.439 200.288C217.467 199.61 218.53 199.072 219.697 198.675C220.776 198.309 221.234 200.013 220.166 200.377ZM214.218 170.684C213.458 170.706 212.673 170.997 211.996 171.326C210.978 171.82 210.085 170.299 211.106 169.802C212.074 169.333 213.132 168.951 214.218 168.92C215.355 168.888 215.35 170.653 214.218 170.684ZM211.551 249.948C211.252 249.96 210.997 249.799 210.838 249.567C210.822 249.567 210.805 249.566 210.789 249.566C210.295 249.566 209.929 249.162 209.907 248.684C209.886 248.208 210.328 247.801 210.789 247.801C211.1 247.802 211.409 247.821 211.699 247.943C212.166 248.141 212.414 248.566 212.433 249.065C212.451 249.56 212.014 249.927 211.551 249.948ZM207.215 188.944C206.132 189.299 205.672 187.595 206.746 187.243C208.007 186.831 209.295 186.512 210.555 186.099C211.638 185.746 212.098 187.45 211.024 187.801C209.764 188.213 208.475 188.532 207.215 188.944ZM203.26 222.244C202.924 223.327 201.222 222.861 201.559 221.774C201.884 220.726 201.908 219.67 201.908 218.579C201.909 217.442 203.673 217.444 203.672 218.579C203.671 219.82 203.63 221.049 203.26 222.244ZM191.469 262.128C191.404 262.567 191.056 262.883 190.6 262.904C190.136 262.925 189.702 262.483 189.719 262.021C189.751 261.133 190.475 260.41 191.362 260.378C191.856 260.359 192.223 260.796 192.244 261.26C192.264 261.71 191.888 262.062 191.469 262.128ZM185.502 211.428C184.57 211.739 183.574 212.035 182.843 212.725C182.018 213.504 180.769 212.258 181.596 211.478C182.56 210.568 183.799 210.138 185.033 209.726C186.114 209.366 186.573 211.07 185.502 211.428ZM181.458 245.7C181.202 246.137 180.683 246.216 180.252 246.016C179.673 245.747 179.034 245.756 178.411 245.755C177.275 245.754 177.276 243.991 178.411 243.991C179.373 243.992 180.26 244.083 181.142 244.493C181.575 244.695 181.681 245.318 181.458 245.7ZM179.173 287.292C178.679 287.311 178.312 286.874 178.291 286.41C178.271 285.96 178.647 285.608 179.067 285.542C179.131 285.103 179.479 284.787 179.935 284.766C180.399 284.745 180.834 285.186 180.817 285.649C180.784 286.537 180.061 287.26 179.173 287.292ZM339.837 293.963C339.537 292.885 338.852 292.014 338.333 291.043C338.16 290.717 338.099 290.513 338.006 290.273C337.877 290.53 337.629 290.722 337.256 290.722C336.54 290.723 335.703 290.676 335.034 290.983C334.6 291.182 334.087 291.111 333.828 290.666C333.604 290.285 333.712 289.657 334.145 289.459C335.129 289.008 336.188 288.958 337.256 288.957C337.519 288.957 337.72 289.055 337.86 289.201C338.268 283.609 338.259 278.012 337.873 272.415C337.461 266.435 336.512 260.573 335.52 254.669C335.04 251.807 334.416 248.916 334.537 246C334.658 243.105 335.9 240.406 335.02 237.501C334.668 236.336 334.063 235.27 333.671 234.118C333.25 232.878 333.287 231.654 333.479 230.371C333.874 227.758 334.529 225.176 333.481 222.625C333.019 221.492 332.269 220.482 331.908 219.314C331.458 217.861 331.52 216.253 331.444 214.747C331.292 211.708 331.252 208.649 331.001 205.617C330.889 204.258 330.644 202.971 330.087 201.725C329.551 200.525 328.756 199.433 328.401 198.161C328.048 196.908 328.017 195.587 327.827 194.306C327.629 192.952 327.318 191.618 326.899 190.317C325.281 185.28 322.317 180.755 318.814 176.832C315.09 172.661 310.64 169.521 305.915 166.595C303.431 165.056 300.947 163.517 298.465 161.978C298.412 162.267 298.228 162.532 297.874 162.651C296.942 162.961 295.947 163.258 295.216 163.947C294.39 164.727 293.142 163.481 293.969 162.701C294.832 161.886 295.916 161.456 297.02 161.079C295.889 160.366 294.745 159.628 293.469 159.216C292.351 158.855 290.703 159.17 289.796 158.35C289.084 157.703 288.859 156.506 288.587 155.627C288.244 154.538 287.949 153.389 287.515 152.331C287.22 151.608 286.79 150.913 286.247 150.353C286.009 149.436 285.572 148.598 284.801 148.087C282.782 146.752 280.302 148.079 279.414 149.984C278.679 149.982 277.906 150.143 277.191 150.187C275.723 150.28 274.253 150.321 272.783 150.317C269.906 150.309 267.027 150.121 264.175 149.739C259.073 149.056 254.124 147.677 249.11 146.604C249.081 146.538 249.048 146.471 249.009 146.405C247.928 144.592 245.237 144.899 243.541 145.585C242.814 145.878 242.073 146.249 241.657 146.937C241.215 147.234 240.834 147.596 240.581 147.978C240.056 148.765 239.65 150.353 238.586 150.485C237.885 150.571 237.173 150.436 236.46 150.537C235.57 150.662 234.772 150.975 233.95 151.331C227.689 154.051 221.217 157.074 214.423 158.128C212.829 158.376 211.207 158.631 209.822 159.524C208.698 160.25 207.829 161.247 206.901 162.192C205.998 163.115 205.252 163.523 203.963 163.688C202.398 163.889 201.042 164.321 199.898 165.458C198.948 166.405 198.328 167.613 197.583 168.712C196.825 169.832 195.712 170.463 194.557 171.113C191.825 172.653 189.281 174.511 187.066 176.741C182.399 181.443 179.573 187.485 176.725 193.373C173.645 199.742 170.766 206.189 168.769 212.99C166.812 219.666 165.648 226.536 165.11 233.47C164.543 240.745 164.464 248.049 163.992 255.329C163.756 258.965 163.578 262.607 163.397 266.245C163.221 269.84 162.963 273.441 163.004 277.039C163.084 283.997 164.475 290.977 166.906 297.491C167.513 299.112 168.185 300.712 168.901 302.286C169.53 303.669 171.679 303.514 172.354 302.286C172.508 302.003 172.629 301.712 172.731 301.417C174.494 301.433 176.275 301.296 178.028 301.459C181.123 301.748 184.224 301.908 187.328 302.1C193.47 302.482 199.622 302.736 205.766 303.086C206.362 303.121 206.958 303.154 207.554 303.19C203.176 289.633 203.744 274.977 203.051 260.879C202.995 259.741 204.759 259.749 204.814 260.879C205.51 275.038 204.918 289.732 209.451 303.31C211.209 303.429 212.966 303.575 214.716 303.788C216.131 303.958 217.553 304.158 218.982 304.088C220.602 304.011 222.185 303.639 223.765 303.318C226.638 302.734 229.404 302.998 232.288 303.358C235.372 303.744 238.467 303.958 241.57 304.092C253.999 304.637 266.511 305.133 278.935 304.302C281.942 304.101 284.942 303.819 287.929 303.435C291.006 303.04 294.051 302.376 297.126 301.999C300.157 301.629 302.943 302.645 305.939 302.833C308.994 303.025 312.132 302.387 315.159 302.021C316.146 301.901 317.134 301.785 318.123 301.669C316.85 292.942 316.126 284.149 315.424 275.359C315.333 274.225 317.097 274.236 317.187 275.359C317.884 284.08 318.592 292.808 319.862 301.467C325.104 300.857 330.35 300.239 335.536 299.289C337.013 299.02 338.481 298.581 339.365 297.262C340.019 296.285 340.152 295.087 339.837 293.963Z" fill="#204174"/>
<path fill-rule="evenodd" clip-rule="evenodd" d="M268.213 65.0344C301.393 66.0853 303.393 81.8512 303.393 108.291C303.393 134.732 286.182 151.393 279.844 154.302C273.506 157.211 256.817 169.707 241.758 163.949C226.698 158.191 231.059 133.861 231.059 123.407C231.059 112.954 235.034 63.9836 268.213 65.0344Z" fill="white"/>
<path fill-rule="evenodd" clip-rule="evenodd" d="M281.673 145.619C275.579 149.021 268.603 149.154 262.049 147.012C258.119 145.731 254.515 143.751 251.141 141.382C248.207 139.32 245.588 137.033 242.994 134.605C240.858 129.892 238.956 125.188 238.065 120.061C237.267 115.458 237.161 110.68 238.087 106.086C244.934 100.452 251.739 94.771 258.535 89.0728C261.996 86.1705 265.465 83.284 268.978 80.4433C270.761 79.0011 272.526 77.5368 274.303 76.0879C274.596 75.8497 274.888 75.6115 275.181 75.3734C278.848 78.0594 282.781 80.3619 286.424 83.0919C288.33 84.5231 290.184 86.047 291.95 87.65C292.875 88.4904 293.78 89.3571 294.662 90.2458C295.468 91.0576 296.247 92.2217 297.39 92.5285C297.547 92.5701 297.695 92.579 297.834 92.5592C299.363 105.958 300.45 120.427 293.897 132.596C291.037 137.905 286.983 142.65 281.673 145.619ZM242.035 150.543C241.196 149.774 242.446 148.53 243.282 149.295C248.53 154.104 255.39 156.653 262.321 157.833C263.438 158.024 262.961 159.724 261.851 159.534C254.616 158.303 247.505 155.555 242.035 150.543ZM235.738 157.921C234.737 157.383 235.629 155.861 236.628 156.397C240.716 158.592 245.201 159.731 249.75 160.501C250.869 160.69 250.391 162.39 249.281 162.202C244.578 161.406 239.963 160.188 235.738 157.921ZM252.378 83.5972C255.771 80.5514 259.417 77.6535 263.268 75.208C267.165 72.7338 271.422 71.254 276.023 71.2187C275.7 71.4768 275.395 71.7634 275.084 72.03C274.216 72.7734 273.349 73.521 272.482 74.2664C270.749 75.7594 269.012 77.2499 267.302 78.7674C263.934 81.7577 260.554 84.7327 257.192 87.7297C250.731 93.4898 244.409 99.3756 238.224 105.432C238.257 105.284 238.291 105.136 238.327 104.988C240.375 96.4318 245.945 89.3726 252.378 83.5972ZM278.973 71.5913C278.995 71.5252 279.01 71.461 279.019 71.3994C287.847 72.5506 295.221 79.0494 297.659 87.6061C297.448 87.9016 297.331 88.2522 297.374 88.6247C297.396 88.8124 297.418 89.002 297.441 89.1895C297.139 88.8898 296.828 88.6095 296.564 88.3427C295.684 87.4517 294.783 86.5848 293.856 85.7402C291.963 84.0137 289.996 82.3994 287.924 80.8933C284.32 78.2733 280.418 75.8652 276.122 74.6082C276.404 74.3766 276.686 74.145 276.97 73.9157C277.82 73.2252 278.606 72.6565 278.973 71.5913ZM294.8 62.4416C289.38 56.516 281.873 52.1761 273.968 50.6676C266.42 49.2254 258.606 50.1758 251.475 52.9788C236.553 58.8448 224.779 71.7438 219.266 86.691C216.052 95.3996 214.998 104.946 215.964 114.165C216.925 123.34 219.687 132.817 224.713 140.624C225.174 141.339 225.678 142.024 226.207 142.688C225.972 145.383 225.072 148.025 223.657 150.322C223.581 150.446 223.501 150.567 223.421 150.688C221.972 151.773 220.469 152.792 219.001 153.843C217.73 154.755 216.471 155.69 215.275 156.699C214.146 157.651 212.835 158.713 212.071 159.999C211.445 161.052 211.189 162.485 212.044 163.489C213.074 164.7 214.819 164.273 216.215 164.273C216.334 164.273 216.453 164.276 216.573 164.277C216.992 164.54 217.423 164.779 217.842 165C222.067 167.242 226.309 169.458 230.554 171.663C239.01 176.058 247.432 180.63 256.062 184.676C260.06 186.553 264.342 188.194 268.821 188.187C273.023 188.18 276.821 186.511 280.102 183.973C283.84 181.082 286.966 177.41 289.998 173.811C291.211 172.37 292.399 170.913 293.566 169.436C295.805 168.688 298.028 168.47 300.025 169.912C301.627 171.07 303.739 169.495 303.777 167.757C303.789 167.14 303.763 166.531 303.698 165.931C303.296 162.226 301.483 158.874 299.443 155.765C298.327 154.064 297.152 152.395 295.971 150.741C295.692 150.351 295.42 149.96 295.155 149.564C299.902 142.573 303.666 134.821 305.981 126.721C308.413 118.197 309.239 109.36 308.697 100.527C307.864 86.9908 304.152 72.6653 294.8 62.4416Z" fill="#022150"/>
<path fill-rule="evenodd" clip-rule="evenodd" d="M278.199 135.99C276.718 135.386 275.395 134.377 274.428 133.088C274.092 132.639 274.005 132.167 274.076 131.734C274.155 131.248 274.443 130.806 274.835 130.511C275.229 130.215 275.721 130.067 276.197 130.143C276.61 130.207 277.022 130.434 277.348 130.903L277.416 130.997C277.991 131.776 278.74 132.413 279.593 132.825C280.416 133.222 281.335 133.406 282.288 133.299C284.1 133.094 285.35 132.114 286.678 130.781C286.842 130.613 287.007 130.44 287.173 130.264C287.277 130.104 287.422 130.001 287.583 129.947C287.762 129.887 287.965 129.891 288.15 129.956C288.329 130.017 288.489 130.136 288.595 130.294C288.697 130.443 288.755 130.628 288.736 130.841C288.615 132.22 287.893 133.452 286.868 134.42C285.731 135.494 284.222 136.237 282.802 136.498C281.237 136.785 279.642 136.579 278.199 135.99ZM283.54 114.696C285.205 115.708 287.741 118.068 285.95 120.577C283.842 122.791 280.807 120.254 279.312 119.106C277.925 118.217 276.367 120.504 277.654 121.543C288.46 129.547 292.846 114.961 284.382 113.506C283.45 113.345 283.104 114.383 283.54 114.696ZM264.174 105.385C264.357 103.101 267.835 102.583 268.18 104.843C268.49 106.867 268.125 108.726 267.214 110.549C266.343 112.291 264.154 111.479 263.988 109.893C263.767 107.767 264.059 106.805 264.174 105.385ZM290.641 104.374C291.125 103.739 291.826 103.305 292.664 103.55C295.284 104.316 294.512 108.038 293.592 109.848C293.092 110.832 291.476 111.081 290.746 110.215C289.555 108.803 288.985 105.983 290.498 104.592C290.539 104.52 290.585 104.447 290.641 104.374ZM267.178 95.3917L267.591 95.3191C268.871 95.0976 270.463 94.8848 271.369 95.9145C271.849 96.4606 272.015 97.4754 271.369 97.998C270.233 98.9176 268.978 98.5613 267.617 98.6391C266.495 98.7035 265.417 98.8892 264.336 99.1982C261.967 99.8759 260.035 101.113 258.011 102.472C257.745 102.65 257.474 102.31 257.601 102.061C258.77 99.7716 261.034 97.8907 263.302 96.7442C264.513 96.1322 265.838 95.6245 267.178 95.3917ZM288.253 94.3659L288.569 94.4308C292.016 95.1516 296.495 96.5915 298.128 99.9787C298.189 100.458 298.124 100.56 298.07 100.627L298.053 100.65C298.009 100.707 297.973 100.786 297.766 100.851C297.708 100.837 297.65 100.823 297.591 100.807C296.843 100.611 296.252 100.341 295.678 100.061L295.057 99.7543C294.336 99.4007 293.609 99.0599 292.838 98.8084C291.192 98.2715 289.501 97.8935 287.782 97.6916C287.41 97.6479 287.052 97.5221 286.768 97.3066C286.5 97.1021 286.295 96.8189 286.201 96.4424C286.08 95.9553 286.115 95.5865 286.376 95.147C286.573 94.8169 286.854 94.5881 287.177 94.4568C287.506 94.3229 287.88 94.2913 288.253 94.3659Z" fill="black"/>
<path fill-rule="evenodd" clip-rule="evenodd" d="M303.269 116.039C300.592 118.806 296.125 119.6 292.564 118.116C283.421 114.294 287.896 102.375 294.947 99.1737C295.828 98.954 297.005 98.4328 298.078 98.3147C298.175 98.267 298.386 98.4049 298.642 98.2746C306.417 99.143 308.187 111.217 303.269 116.039ZM273.778 116.747C270.778 120.73 265.196 121.959 260.636 120.107C251.629 116.558 254.824 105.989 260.987 101.845C274.006 96.9511 279.382 109.403 273.778 116.747ZM254.252 107.922C254.243 107.918 254.235 107.917 254.227 107.912C254.274 107.891 254.322 107.871 254.369 107.849C254.354 107.889 254.336 107.929 254.322 107.97C254.299 107.953 254.278 107.934 254.252 107.922ZM309.466 103.617C308.731 103.618 307.669 103.739 307.061 104.249C305.56 99.1872 300.023 94.5026 295.206 97.9185C291.413 99.1387 288.599 101.845 287 105.442C284.116 103.726 279.581 104.459 277.08 106.729C275.442 101.314 271.411 99.4186 266.613 99.1387C261.376 98.2806 256.157 103.368 254.528 107.45C253.174 107.296 251.151 106.865 249.877 107.701C241.609 105.532 227.153 104.336 225.472 105.541C224.274 106.001 223.617 108.83 225.29 108.982C226.748 108.774 225.12 106.91 226.589 106.706C234.42 106.22 242.022 107.798 249.77 108.46C250.462 109.391 252.697 109.702 253.89 109.328C252.011 116.251 256.065 120.963 262.139 122.373C271.545 124.534 279.728 116.118 277.269 107.362C280.118 105.944 283.396 106.005 286.499 106.752C281.312 125.848 312.054 124.991 307.254 104.903C310.449 106.493 311.142 103.937 309.466 103.617Z" fill="black"/>
</g>
<g filter="url(#filter0_f)">
<rect x="375.475" y="47" width="90.6988" height="90.6988" transform="rotate(15 375.475 47)" fill="#ECF3FD"/>
</g>
<g filter="url(#filter1_f)">
<path d="M104.278 362.336L21.0399 279.098L134.746 248.63L104.278 362.336Z" stroke="#204174" stroke-width="2"/>
</g>
<defs>
<filter id="filter0_f" x="347" y="42" width="121.083" height="121.083" filterUnits="userSpaceOnUse" color-interpolation-filters="sRGB">
<feFlood flood-opacity="0" result="BackgroundImageFix"/>
<feBlend mode="normal" in="SourceGraphic" in2="BackgroundImageFix" result="shape"/>
<feGaussianBlur stdDeviation="2.5" result="effect1_foregroundBlur"/>
</filter>
<filter id="filter1_f" x="0.42601" y="217.054" width="138.734" height="150.214" filterUnits="userSpaceOnUse" color-interpolation-filters="sRGB">
<feFlood flood-opacity="0" result="BackgroundImageFix"/>
<feBlend mode="normal" in="SourceGraphic" in2="BackgroundImageFix" result="shape"/>
<feGaussianBlur stdDeviation="1.5" result="effect1_foregroundBlur"/>
</filter>
</defs>
</svg>
