<svg width="544" height="191" viewBox="0 0 544 191" fill="none" xmlns="http://www.w3.org/2000/svg">
<line x1="102" y1="97" x2="441" y2="97" stroke="#204174" stroke-width="2"/>
<circle cx="101.5" cy="97.5" r="6.5" fill="#204174"/>
<circle cx="101.5" cy="97.5" r="9.5" stroke="#204174" stroke-width="2"/>
<circle cx="442.5" cy="97.5" r="6.5" fill="#204174"/>
<circle cx="442.5" cy="97.5" r="9.5" stroke="#204174" stroke-width="2"/>
<path d="M77.4003 15.7102H79.7583C79.7242 13.6364 78.0196 12.2045 75.4287 12.2045C72.8776 12.2045 71.0083 13.6136 71.0196 15.7273C71.0139 17.4432 72.2242 18.4261 74.1901 18.8977L75.4571 19.2159C76.7242 19.5227 77.4287 19.8864 77.4344 20.6705C77.4287 21.5227 76.6219 22.1023 75.3719 22.1023C74.0935 22.1023 73.173 21.5114 73.0935 20.3466H70.7128C70.7753 22.8636 72.5764 24.1648 75.4003 24.1648C78.2412 24.1648 79.9117 22.8068 79.9173 20.6761C79.9117 18.7386 78.4514 17.7102 76.4287 17.2557L75.3833 17.0057C74.3719 16.7727 73.5253 16.3977 73.5423 15.5625C73.5423 14.8125 74.2071 14.2614 75.4117 14.2614C76.5878 14.2614 77.3094 14.7955 77.4003 15.7102ZM85.4939 24.1705C87.8178 24.1705 89.278 22.8068 89.3916 20.8011H87.1075C86.9655 21.733 86.3519 22.2557 85.5223 22.2557C84.3916 22.2557 83.6587 21.3068 83.6587 19.6364C83.6587 17.9886 84.3973 17.0455 85.5223 17.0455C86.4087 17.0455 86.9769 17.6307 87.1075 18.5H89.3916C89.2894 16.483 87.761 15.1591 85.4825 15.1591C82.8348 15.1591 81.1985 16.9943 81.1985 19.6705C81.1985 22.3239 82.8064 24.1705 85.4939 24.1705ZM90.9653 24H93.3858V15.2727H90.9653V24ZM92.1813 14.1477C92.9028 14.1477 93.4938 13.5966 93.4938 12.9205C93.4938 12.25 92.9028 11.6989 92.1813 11.6989C91.4653 11.6989 90.8744 12.25 90.8744 12.9205C90.8744 13.5966 91.4653 14.1477 92.1813 14.1477ZM99.326 24.1705C101.485 24.1705 102.94 23.1193 103.281 21.5L101.042 21.3523C100.798 22.017 100.173 22.3636 99.3658 22.3636C98.1555 22.3636 97.3885 21.5625 97.3885 20.2614V20.2557H103.332V19.5909C103.332 16.625 101.536 15.1591 99.2294 15.1591C96.6612 15.1591 94.9964 16.983 94.9964 19.6761C94.9964 22.4432 96.6385 24.1705 99.326 24.1705ZM97.3885 18.7557C97.4396 17.7614 98.1953 16.9659 99.2692 16.9659C100.32 16.9659 101.048 17.7159 101.053 18.7557H97.3885ZM107.356 18.9545C107.361 17.8295 108.032 17.1705 109.009 17.1705C109.981 17.1705 110.566 17.8068 110.56 18.875V24H112.981V18.4432C112.981 16.4091 111.787 15.1591 109.969 15.1591C108.674 15.1591 107.736 15.7955 107.344 16.8125H107.242V15.2727H104.935V24H107.356V18.9545ZM118.856 24.1705C121.179 24.1705 122.64 22.8068 122.753 20.8011H120.469C120.327 21.733 119.713 22.2557 118.884 22.2557C117.753 22.2557 117.02 21.3068 117.02 19.6364C117.02 17.9886 117.759 17.0455 118.884 17.0455C119.77 17.0455 120.338 17.6307 120.469 18.5H122.753C122.651 16.483 121.123 15.1591 118.844 15.1591C116.196 15.1591 114.56 16.9943 114.56 19.6705C114.56 22.3239 116.168 24.1705 118.856 24.1705ZM128.304 24.1705C130.463 24.1705 131.918 23.1193 132.259 21.5L130.02 21.3523C129.776 22.017 129.151 22.3636 128.344 22.3636C127.134 22.3636 126.367 21.5625 126.367 20.2614V20.2557H132.31V19.5909C132.31 16.625 130.514 15.1591 128.208 15.1591C125.639 15.1591 123.975 16.983 123.975 19.6761C123.975 22.4432 125.617 24.1705 128.304 24.1705ZM126.367 18.7557C126.418 17.7614 127.174 16.9659 128.247 16.9659C129.299 16.9659 130.026 17.7159 130.032 18.7557H126.367Z" fill="#204174"/>
<path d="M47.7866 42.4545H48.8093C48.7624 41.1378 47.5479 40.1534 45.8604 40.1534C44.19 40.1534 42.8775 41.125 42.8775 42.5909C42.8775 43.767 43.7298 44.4659 45.0934 44.858L46.1673 45.1648C47.0877 45.4205 47.9059 45.7443 47.9059 46.6136C47.9059 47.5682 46.9854 48.1989 45.7752 48.1989C44.7354 48.1989 43.815 47.7386 43.7298 46.75H42.6388C42.7411 48.1818 43.9002 49.1534 45.7752 49.1534C47.7866 49.1534 48.9286 48.0455 48.9286 46.6307C48.9286 44.9943 47.3775 44.4659 46.4741 44.2273L45.5877 43.9886C44.94 43.8182 43.9002 43.4773 43.9002 42.5398C43.9002 41.7045 44.6673 41.0909 45.8263 41.0909C46.8832 41.0909 47.6843 41.5938 47.7866 42.4545ZM50.6662 40.2727V49H51.6548V42.3693H51.7401L54.4673 49H55.4219L58.1491 42.3693H58.2344V49H59.223V40.2727H57.9616L54.9957 47.517H54.8935L51.9276 40.2727H50.6662ZM61.6999 49L62.5778 46.5284H66.1062L66.984 49H68.092L64.8874 40.2727H63.7965L60.592 49H61.6999ZM62.9102 45.5909L64.3079 41.6534H64.3761L65.7738 45.5909H62.9102ZM79.7468 40.2727H78.707V47.142H78.6218L73.8491 40.2727H72.8263V49H73.8832V42.1477H73.9684L78.7241 49H79.7468V40.2727ZM84.4695 49.1364C85.799 49.1364 86.7706 48.4716 87.0774 47.483L86.1058 47.2102C85.8501 47.892 85.2578 48.233 84.4695 48.233C83.2891 48.233 82.4751 47.4702 82.4283 46.0682H87.1797V45.642C87.1797 43.2045 85.7308 42.3693 84.3672 42.3693C82.5945 42.3693 81.4183 43.767 81.4183 45.7784C81.4183 47.7898 82.5774 49.1364 84.4695 49.1364ZM82.4283 45.1989C82.4964 44.1804 83.2166 43.2727 84.3672 43.2727C85.4581 43.2727 86.157 44.0909 86.157 45.1989H82.4283ZM91.3516 51.5909C92.9197 51.5909 94.1811 50.875 94.1811 49.1875V42.4545H93.2095V43.4943H93.1072C92.8857 43.1534 92.4766 42.3693 91.1982 42.3693C89.5447 42.3693 88.4027 43.6818 88.4027 45.6932C88.4027 47.7386 89.5959 48.8977 91.1811 48.8977C92.4595 48.8977 92.8686 48.1477 93.0902 47.7898H93.1754V49.1193C93.1754 50.2102 92.4084 50.7045 91.3516 50.7045C90.1626 50.7045 89.745 50.0781 89.4766 49.7159L88.6754 50.2784C89.0845 50.9645 89.8899 51.5909 91.3516 51.5909ZM91.3175 47.9943C90.0561 47.9943 89.4084 47.0398 89.4084 45.6761C89.4084 44.3466 90.0391 43.2727 91.3175 43.2727C92.5447 43.2727 93.1925 44.2614 93.1925 45.6761C93.1925 47.125 92.5277 47.9943 91.3175 47.9943ZM98.7663 49.1364C100.096 49.1364 101.067 48.4716 101.374 47.483L100.403 47.2102C100.147 47.892 99.5547 48.233 98.7663 48.233C97.5859 48.233 96.772 47.4702 96.7251 46.0682H101.477V45.642C101.477 43.2045 100.028 42.3693 98.6641 42.3693C96.8913 42.3693 95.7152 43.767 95.7152 45.7784C95.7152 47.7898 96.8743 49.1364 98.7663 49.1364ZM96.7251 45.1989C96.7933 44.1804 97.5135 43.2727 98.6641 43.2727C99.755 43.2727 100.454 44.0909 100.454 45.1989H96.7251ZM103.006 49H104.012V44.858C104.012 43.9716 104.711 43.3239 105.665 43.3239C105.934 43.3239 106.211 43.375 106.279 43.392V42.3693C106.164 42.3608 105.9 42.3523 105.751 42.3523C104.967 42.3523 104.285 42.7955 104.046 43.4432H103.978V42.4545H103.006V49ZM107.471 49H108.477V42.4545H107.471V49ZM107.983 41.3636C108.375 41.3636 108.699 41.0568 108.699 40.6818C108.699 40.3068 108.375 40 107.983 40C107.591 40 107.267 40.3068 107.267 40.6818C107.267 41.0568 107.591 41.3636 107.983 41.3636ZM113.472 47.2102H117.58V49H118.586V47.2102H119.779V46.2727H118.586V40.2727H117.308L113.472 46.3409V47.2102ZM117.58 46.2727H114.614V46.2045L117.512 41.6193H117.58V46.2727ZM124.904 49H128.058C130.12 49 130.973 47.9943 130.973 46.6818C130.973 45.3011 130.018 44.5511 129.217 44.5V44.4148C129.967 44.2102 130.632 43.7159 130.632 42.5909C130.632 41.3125 129.779 40.2727 127.956 40.2727H124.904V49ZM125.961 48.0625V45.0284H128.109C129.251 45.0284 129.967 45.7955 129.967 46.6818C129.967 47.4489 129.439 48.0625 128.058 48.0625H125.961ZM125.961 44.108V41.2102H127.956C129.115 41.2102 129.626 41.8239 129.626 42.5909C129.626 43.5114 128.876 44.108 127.922 44.108H125.961ZM135.317 49.1364C136.647 49.1364 137.618 48.4716 137.925 47.483L136.953 47.2102C136.698 47.892 136.105 48.233 135.317 48.233C134.137 48.233 133.323 47.4702 133.276 46.0682H138.027V45.642C138.027 43.2045 136.578 42.3693 135.215 42.3693C133.442 42.3693 132.266 43.767 132.266 45.7784C132.266 47.7898 133.425 49.1364 135.317 49.1364ZM133.276 45.1989C133.344 44.1804 134.064 43.2727 135.215 43.2727C136.306 43.2727 137.005 44.0909 137.005 45.1989H133.276ZM139.557 49H140.563V46.5497L141.266 45.8977L143.716 49H144.995L142.025 45.25L144.79 42.4545H143.546L140.682 45.3693H140.563V40.2727H139.557V49ZM148.011 49.1534C149.153 49.1534 149.749 48.5398 149.954 48.1136H150.005V49H151.011V44.6875C151.011 42.608 149.425 42.3693 148.59 42.3693C147.602 42.3693 146.477 42.7102 145.965 43.9034L146.92 44.2443C147.141 43.767 147.665 43.2557 148.624 43.2557C149.549 43.2557 150.005 43.7457 150.005 44.5852V44.6193C150.005 45.1051 149.511 45.0625 148.317 45.2159C147.103 45.3736 145.778 45.642 145.778 47.142C145.778 48.4205 146.766 49.1534 148.011 49.1534ZM148.164 48.25C147.363 48.25 146.783 47.892 146.783 47.1932C146.783 46.4261 147.482 46.1875 148.266 46.0852C148.692 46.0341 149.835 45.9148 150.005 45.7102V46.6307C150.005 47.4489 149.357 48.25 148.164 48.25ZM157.483 43.9205C157.167 42.9915 156.46 42.3693 155.164 42.3693C153.784 42.3693 152.761 43.1534 152.761 44.2614C152.761 45.1648 153.298 45.7699 154.5 46.0511L155.591 46.3068C156.251 46.4602 156.562 46.7756 156.562 47.2273C156.562 47.7898 155.966 48.25 155.028 48.25C154.206 48.25 153.69 47.8963 153.511 47.1932L152.556 47.4318C152.791 48.544 153.707 49.1364 155.045 49.1364C156.566 49.1364 157.602 48.3054 157.602 47.1761C157.602 46.2642 157.031 45.6889 155.863 45.4034L154.892 45.1648C154.116 44.973 153.767 44.7131 153.767 44.2102C153.767 43.6477 154.363 43.2386 155.164 43.2386C156.042 43.2386 156.404 43.7244 156.579 44.1761L157.483 43.9205ZM159.116 49H160.121V42.4545H159.116V49ZM159.627 41.3636C160.019 41.3636 160.343 41.0568 160.343 40.6818C160.343 40.3068 160.019 40 159.627 40C159.235 40 158.911 40.3068 158.911 40.6818C158.911 41.0568 159.235 41.3636 159.627 41.3636ZM68.4366 64H73.9423V63.0625H69.8855V62.9943L71.8457 60.8977C73.3457 59.2912 73.7889 58.5412 73.7889 57.5739C73.7889 56.2273 72.698 55.1534 71.1639 55.1534C69.6341 55.1534 68.4707 56.1932 68.4707 57.7273H69.4764C69.4764 56.7344 70.1199 56.0739 71.1298 56.0739C72.0758 56.0739 72.8002 56.6534 72.8002 57.5739C72.8002 58.3793 72.3272 58.9759 71.3173 60.0795L68.4366 63.233V64ZM78.5488 64.1193C80.475 64.1193 81.5829 62.4872 81.5829 59.6364C81.5829 56.8068 80.4579 55.1534 78.5488 55.1534C76.6397 55.1534 75.5147 56.8068 75.5147 59.6364C75.5147 62.4872 76.6227 64.1193 78.5488 64.1193ZM78.5488 63.1818C77.2789 63.1818 76.5375 61.9077 76.5375 59.6364C76.5375 57.3693 77.2875 56.0739 78.5488 56.0739C79.8102 56.0739 80.5602 57.3693 80.5602 59.6364C80.5602 61.9077 79.8187 63.1818 78.5488 63.1818ZM86.2704 55.2727H85.2136L83.0318 56.7216V57.7955L85.1625 56.3807H85.2136V64H86.2704V55.2727ZM91.6781 64.1193C93.4423 64.1406 94.5929 62.8111 94.5929 61.1875C94.5929 59.5 93.3443 58.2898 91.8485 58.2898C90.9494 58.2898 90.1781 58.7287 89.7008 59.4489H89.6326C89.6369 57.3224 90.4636 56.0909 91.8145 56.0909C92.7349 56.0909 93.2889 56.6705 93.4849 57.4545H94.5247C94.3116 56.0994 93.2804 55.1534 91.8145 55.1534C89.85 55.1534 88.644 56.892 88.644 59.9773C88.644 63.2031 90.2463 64.1023 91.6781 64.1193ZM91.6781 63.1818C90.5829 63.1818 89.7818 62.2486 89.786 61.2045C89.7903 60.1605 90.6298 59.2273 91.7122 59.2273C92.7818 59.2273 93.5701 60.1051 93.5701 61.1875C93.5701 62.2955 92.7477 63.1818 91.6781 63.1818ZM103.411 59.1676H99.5925V60.1051H103.411V59.1676ZM108.538 64H114.044V63.0625H109.987V62.9943L111.947 60.8977C113.447 59.2912 113.89 58.5412 113.89 57.5739C113.89 56.2273 112.8 55.1534 111.265 55.1534C109.736 55.1534 108.572 56.1932 108.572 57.7273H109.578C109.578 56.7344 110.221 56.0739 111.231 56.0739C112.177 56.0739 112.902 56.6534 112.902 57.5739C112.902 58.3793 112.429 58.9759 111.419 60.0795L108.538 63.233V64ZM118.65 64.1193C120.577 64.1193 121.684 62.4872 121.684 59.6364C121.684 56.8068 120.559 55.1534 118.65 55.1534C116.741 55.1534 115.616 56.8068 115.616 59.6364C115.616 62.4872 116.724 64.1193 118.65 64.1193ZM118.65 63.1818C117.381 63.1818 116.639 61.9077 116.639 59.6364C116.639 57.3693 117.389 56.0739 118.65 56.0739C119.912 56.0739 120.662 57.3693 120.662 59.6364C120.662 61.9077 119.92 63.1818 118.65 63.1818ZM126.372 55.2727H125.315L123.133 56.7216V57.7955L125.264 56.3807H125.315V64H126.372V55.2727ZM131.66 55.1534C129.888 55.1321 128.746 56.4659 128.746 58.0682C128.746 59.7557 129.99 60.9659 131.49 60.9659C132.393 60.9659 133.16 60.5227 133.638 59.8068H133.706C133.706 61.9545 132.871 63.1818 131.524 63.1818C130.604 63.1818 130.041 62.6023 129.854 61.8011H128.814C129.018 63.1818 130.058 64.1193 131.524 64.1193C133.484 64.1193 134.694 62.3807 134.694 59.2784C134.694 56.0739 133.092 55.1705 131.66 55.1534ZM131.66 56.0909C132.751 56.0909 133.552 57.0284 133.552 58.0511C133.552 59.0909 132.7 60.0284 131.626 60.0284C130.552 60.0284 129.768 59.1591 129.768 58.0682C129.768 56.9773 130.586 56.0909 131.66 56.0909Z" fill="#7C7C7C"/>
<path d="M363.455 131.71H365.813C365.779 129.636 364.075 128.205 361.484 128.205C358.933 128.205 357.063 129.614 357.075 131.727C357.069 133.443 358.279 134.426 360.245 134.898L361.512 135.216C362.779 135.523 363.484 135.886 363.489 136.67C363.484 137.523 362.677 138.102 361.427 138.102C360.148 138.102 359.228 137.511 359.148 136.347H356.768C356.83 138.864 358.631 140.165 361.455 140.165C364.296 140.165 365.967 138.807 365.972 136.676C365.967 134.739 364.506 133.71 362.484 133.256L361.438 133.006C360.427 132.773 359.58 132.398 359.597 131.562C359.597 130.812 360.262 130.261 361.467 130.261C362.643 130.261 363.364 130.795 363.455 131.71ZM371.549 140.17C374.197 140.17 375.844 138.358 375.844 135.67C375.844 132.966 374.197 131.159 371.549 131.159C368.901 131.159 367.253 132.966 367.253 135.67C367.253 138.358 368.901 140.17 371.549 140.17ZM371.56 138.295C370.339 138.295 369.714 137.176 369.714 135.653C369.714 134.131 370.339 133.006 371.56 133.006C372.759 133.006 373.384 134.131 373.384 135.653C373.384 137.176 372.759 138.295 371.56 138.295ZM382.135 131.273H380.402V130.688C380.402 130.097 380.641 129.75 381.351 129.75C381.641 129.75 381.936 129.812 382.13 129.875L382.556 128.057C382.255 127.966 381.59 127.818 380.846 127.818C379.204 127.818 377.982 128.744 377.982 130.642V131.273H376.749V133.091H377.982V140H380.402V133.091H382.135V131.273ZM388.28 131.273H386.638V129.182H384.218V131.273H383.024V133.091H384.218V137.636C384.206 139.347 385.371 140.193 387.127 140.119C387.752 140.097 388.195 139.972 388.439 139.892L388.058 138.091C387.939 138.114 387.683 138.17 387.456 138.17C386.973 138.17 386.638 137.989 386.638 137.318V133.091H388.28V131.273ZM391.602 140H394.159L395.659 134.511H395.767L397.267 140H399.83L402.199 131.273H399.756L398.426 137.102H398.352L396.921 131.273H394.517L393.108 137.136H393.029L391.676 131.273H389.227L391.602 140ZM406.003 140.165C407.293 140.165 408.128 139.602 408.554 138.79H408.622V140H410.918V134.114C410.918 132.034 409.156 131.159 407.213 131.159C405.122 131.159 403.747 132.159 403.412 133.75L405.651 133.932C405.815 133.352 406.332 132.926 407.202 132.926C408.026 132.926 408.497 133.341 408.497 134.057V134.091C408.497 134.653 407.901 134.727 406.383 134.875C404.656 135.034 403.105 135.614 403.105 137.562C403.105 139.29 404.338 140.165 406.003 140.165ZM406.696 138.494C405.952 138.494 405.418 138.148 405.418 137.483C405.418 136.801 405.98 136.466 406.832 136.347C407.361 136.273 408.224 136.148 408.514 135.955V136.881C408.514 137.795 407.758 138.494 406.696 138.494ZM412.819 140H415.24V135.062C415.24 133.989 416.024 133.25 417.092 133.25C417.427 133.25 417.888 133.307 418.115 133.381V131.233C417.899 131.182 417.598 131.148 417.354 131.148C416.376 131.148 415.575 131.716 415.257 132.795H415.166V131.273H412.819V140ZM422.961 140.17C425.12 140.17 426.575 139.119 426.916 137.5L424.677 137.352C424.433 138.017 423.808 138.364 423.001 138.364C421.791 138.364 421.024 137.562 421.024 136.261V136.256H426.967V135.591C426.967 132.625 425.172 131.159 422.865 131.159C420.297 131.159 418.632 132.983 418.632 135.676C418.632 138.443 420.274 140.17 422.961 140.17ZM421.024 134.756C421.075 133.761 421.831 132.966 422.904 132.966C423.956 132.966 424.683 133.716 424.689 134.756H421.024ZM432.343 140H440.207V137.972H434.803V135.193H439.781V133.165H434.803V130.392H440.184V128.364H432.343V140ZM444.539 134.955C444.545 133.83 445.215 133.17 446.192 133.17C447.164 133.17 447.749 133.807 447.744 134.875V140H450.164V134.443C450.164 132.409 448.971 131.159 447.153 131.159C445.857 131.159 444.92 131.795 444.528 132.812H444.425V131.273H442.119V140H444.539V134.955ZM456.027 143.455C458.522 143.455 460.295 142.318 460.295 140.085V131.273H457.891V132.739H457.8C457.476 132.028 456.766 131.159 455.306 131.159C453.391 131.159 451.772 132.648 451.772 135.619C451.772 138.523 453.346 139.875 455.312 139.875C456.704 139.875 457.482 139.176 457.8 138.455H457.902V140.051C457.902 141.25 457.135 141.716 456.084 141.716C455.016 141.716 454.476 141.25 454.277 140.722L452.039 141.023C452.329 142.398 453.675 143.455 456.027 143.455ZM456.079 138.057C454.891 138.057 454.243 137.114 454.243 135.608C454.243 134.125 454.88 133.085 456.079 133.085C457.255 133.085 457.914 134.08 457.914 135.608C457.914 137.148 457.243 138.057 456.079 138.057ZM462.245 140H464.665V131.273H462.245V140ZM463.461 130.148C464.182 130.148 464.773 129.597 464.773 128.92C464.773 128.25 464.182 127.699 463.461 127.699C462.745 127.699 462.154 128.25 462.154 128.92C462.154 129.597 462.745 130.148 463.461 130.148ZM469.048 134.955C469.054 133.83 469.725 133.17 470.702 133.17C471.673 133.17 472.259 133.807 472.253 134.875V140H474.673V134.443C474.673 132.409 473.48 131.159 471.662 131.159C470.367 131.159 469.429 131.795 469.037 132.812H468.935V131.273H466.628V140H469.048V134.955ZM480.582 140.17C482.742 140.17 484.196 139.119 484.537 137.5L482.298 137.352C482.054 138.017 481.429 138.364 480.622 138.364C479.412 138.364 478.645 137.562 478.645 136.261V136.256H484.588V135.591C484.588 132.625 482.793 131.159 480.486 131.159C477.918 131.159 476.253 132.983 476.253 135.676C476.253 138.443 477.895 140.17 480.582 140.17ZM478.645 134.756C478.696 133.761 479.452 132.966 480.526 132.966C481.577 132.966 482.304 133.716 482.31 134.756H478.645ZM490.169 140.17C492.328 140.17 493.783 139.119 494.123 137.5L491.885 137.352C491.641 138.017 491.016 138.364 490.209 138.364C488.998 138.364 488.231 137.562 488.231 136.261V136.256H494.175V135.591C494.175 132.625 492.379 131.159 490.072 131.159C487.504 131.159 485.839 132.983 485.839 135.676C485.839 138.443 487.481 140.17 490.169 140.17ZM488.231 134.756C488.283 133.761 489.038 132.966 490.112 132.966C491.163 132.966 491.891 133.716 491.896 134.756H488.231ZM495.778 140H498.199V135.062C498.199 133.989 498.983 133.25 500.051 133.25C500.386 133.25 500.846 133.307 501.074 133.381V131.233C500.858 131.182 500.557 131.148 500.312 131.148C499.335 131.148 498.534 131.716 498.216 132.795H498.125V131.273H495.778V140ZM502.349 140H504.769V131.273H502.349V140ZM503.565 130.148C504.287 130.148 504.877 129.597 504.877 128.92C504.877 128.25 504.287 127.699 503.565 127.699C502.849 127.699 502.258 128.25 502.258 128.92C502.258 129.597 502.849 130.148 503.565 130.148ZM509.153 134.955C509.159 133.83 509.829 133.17 510.806 133.17C511.778 133.17 512.363 133.807 512.357 134.875V140H514.778V134.443C514.778 132.409 513.585 131.159 511.767 131.159C510.471 131.159 509.534 131.795 509.142 132.812H509.039V131.273H506.732V140H509.153V134.955ZM520.641 143.455C523.136 143.455 524.908 142.318 524.908 140.085V131.273H522.505V132.739H522.414C522.09 132.028 521.38 131.159 519.92 131.159C518.005 131.159 516.386 132.648 516.386 135.619C516.386 138.523 517.96 139.875 519.925 139.875C521.317 139.875 522.096 139.176 522.414 138.455H522.516V140.051C522.516 141.25 521.749 141.716 520.698 141.716C519.63 141.716 519.09 141.25 518.891 140.722L516.653 141.023C516.942 142.398 518.289 143.455 520.641 143.455ZM520.692 138.057C519.505 138.057 518.857 137.114 518.857 135.608C518.857 134.125 519.494 133.085 520.692 133.085C521.869 133.085 522.528 134.08 522.528 135.608C522.528 137.148 521.857 138.057 520.692 138.057Z" fill="#204174"/>
<path d="M378.585 156.273V161.966C378.585 163.244 377.707 164.165 376.25 164.165C374.792 164.165 373.914 163.244 373.914 161.966V156.273H372.858V162.051C372.858 163.841 374.196 165.153 376.25 165.153C378.304 165.153 379.642 163.841 379.642 162.051V156.273H378.585ZM382.621 161.062C382.621 159.92 383.329 159.273 384.292 159.273C385.225 159.273 385.792 159.882 385.792 160.909V165H386.798V160.841C386.798 159.17 385.907 158.369 384.582 158.369C383.593 158.369 382.979 158.812 382.673 159.477H382.587V158.455H381.616V165H382.621V161.062ZM388.635 165H389.641V158.455H388.635V165ZM389.147 157.364C389.539 157.364 389.863 157.057 389.863 156.682C389.863 156.307 389.539 156 389.147 156C388.755 156 388.431 156.307 388.431 156.682C388.431 157.057 388.755 157.364 389.147 157.364ZM396.835 158.455H395.744L393.938 163.67H393.869L392.062 158.455H390.972L393.392 165H394.415L396.835 158.455ZM400.673 165.136C402.002 165.136 402.974 164.472 403.281 163.483L402.309 163.21C402.053 163.892 401.461 164.233 400.673 164.233C399.492 164.233 398.678 163.47 398.631 162.068H403.383V161.642C403.383 159.205 401.934 158.369 400.57 158.369C398.798 158.369 397.621 159.767 397.621 161.778C397.621 163.79 398.781 165.136 400.673 165.136ZM398.631 161.199C398.7 160.18 399.42 159.273 400.57 159.273C401.661 159.273 402.36 160.091 402.36 161.199H398.631ZM404.913 165H405.918V160.858C405.918 159.972 406.617 159.324 407.572 159.324C407.84 159.324 408.117 159.375 408.185 159.392V158.369C408.07 158.361 407.806 158.352 407.657 158.352C406.873 158.352 406.191 158.795 405.952 159.443H405.884V158.455H404.913V165ZM414.014 159.92C413.699 158.991 412.991 158.369 411.696 158.369C410.315 158.369 409.292 159.153 409.292 160.261C409.292 161.165 409.829 161.77 411.031 162.051L412.122 162.307C412.782 162.46 413.093 162.776 413.093 163.227C413.093 163.79 412.497 164.25 411.559 164.25C410.737 164.25 410.221 163.896 410.042 163.193L409.088 163.432C409.322 164.544 410.238 165.136 411.576 165.136C413.098 165.136 414.133 164.305 414.133 163.176C414.133 162.264 413.562 161.689 412.395 161.403L411.423 161.165C410.647 160.973 410.298 160.713 410.298 160.21C410.298 159.648 410.895 159.239 411.696 159.239C412.574 159.239 412.936 159.724 413.11 160.176L414.014 159.92ZM415.647 165H416.653V158.455H415.647V165ZM416.158 157.364C416.55 157.364 416.874 157.057 416.874 156.682C416.874 156.307 416.55 156 416.158 156C415.766 156 415.442 156.307 415.442 156.682C415.442 157.057 415.766 157.364 416.158 157.364ZM421.341 158.455H419.944V156.886H418.938V158.455H417.949V159.307H418.938V163.398C418.938 164.54 419.858 165.085 420.711 165.085C421.086 165.085 421.324 165.017 421.461 164.966L421.256 164.062C421.171 164.08 421.034 164.114 420.813 164.114C420.37 164.114 419.944 163.977 419.944 163.125V159.307H421.341V158.455ZM424.78 165.153C425.922 165.153 426.519 164.54 426.723 164.114H426.775V165H427.78V160.688C427.78 158.608 426.195 158.369 425.36 158.369C424.371 158.369 423.246 158.71 422.735 159.903L423.689 160.244C423.911 159.767 424.435 159.256 425.394 159.256C426.319 159.256 426.775 159.746 426.775 160.585V160.619C426.775 161.105 426.28 161.062 425.087 161.216C423.873 161.374 422.547 161.642 422.547 163.142C422.547 164.42 423.536 165.153 424.78 165.153ZM424.934 164.25C424.132 164.25 423.553 163.892 423.553 163.193C423.553 162.426 424.252 162.188 425.036 162.085C425.462 162.034 426.604 161.915 426.775 161.71V162.631C426.775 163.449 426.127 164.25 424.934 164.25ZM434.252 159.92C433.937 158.991 433.229 158.369 431.934 158.369C430.553 158.369 429.531 159.153 429.531 160.261C429.531 161.165 430.067 161.77 431.269 162.051L432.36 162.307C433.021 162.46 433.332 162.776 433.332 163.227C433.332 163.79 432.735 164.25 431.798 164.25C430.975 164.25 430.46 163.896 430.281 163.193L429.326 163.432C429.56 164.544 430.477 165.136 431.815 165.136C433.336 165.136 434.371 164.305 434.371 163.176C434.371 162.264 433.8 161.689 432.633 161.403L431.661 161.165C430.886 160.973 430.536 160.713 430.536 160.21C430.536 159.648 431.133 159.239 431.934 159.239C432.812 159.239 433.174 159.724 433.349 160.176L434.252 159.92ZM445.363 159H446.453C446.13 157.312 444.715 156.153 442.874 156.153C440.637 156.153 439.056 157.875 439.056 160.636C439.056 163.398 440.624 165.119 442.942 165.119C445.022 165.119 446.505 163.734 446.505 161.574V160.636H443.181V161.574H445.482C445.452 163.142 444.421 164.131 442.942 164.131C441.323 164.131 440.078 162.903 440.078 160.636C440.078 158.369 441.323 157.142 442.874 157.142C444.135 157.142 444.992 157.854 445.363 159ZM450.104 165.153C451.246 165.153 451.843 164.54 452.048 164.114H452.099V165H453.104V160.688C453.104 158.608 451.519 158.369 450.684 158.369C449.695 158.369 448.57 158.71 448.059 159.903L449.013 160.244C449.235 159.767 449.759 159.256 450.718 159.256C451.643 159.256 452.099 159.746 452.099 160.585V160.619C452.099 161.105 451.604 161.062 450.411 161.216C449.197 161.374 447.871 161.642 447.871 163.142C447.871 164.42 448.86 165.153 450.104 165.153ZM450.258 164.25C449.457 164.25 448.877 163.892 448.877 163.193C448.877 162.426 449.576 162.188 450.36 162.085C450.786 162.034 451.928 161.915 452.099 161.71V162.631C452.099 163.449 451.451 164.25 450.258 164.25ZM457.412 165.136C458.673 165.136 459.099 164.352 459.321 163.994H459.44V165H460.412V156.273H459.406V159.494H459.321C459.099 159.153 458.707 158.369 457.429 158.369C455.775 158.369 454.633 159.682 454.633 161.744C454.633 163.824 455.775 165.136 457.412 165.136ZM457.548 164.233C456.287 164.233 455.639 163.125 455.639 161.727C455.639 160.347 456.27 159.273 457.548 159.273C458.775 159.273 459.423 160.261 459.423 161.727C459.423 163.21 458.758 164.233 457.548 164.233ZM462.393 158.455V165.477C462.393 166.142 462.12 166.517 461.507 166.517H461.319V167.455H461.524C462.785 167.455 463.399 166.688 463.399 165.477V158.455H462.393ZM462.887 157.364C463.279 157.364 463.603 157.057 463.603 156.682C463.603 156.307 463.279 156 462.887 156C462.495 156 462.172 156.307 462.172 156.682C462.172 157.057 462.495 157.364 462.887 157.364ZM467.167 165.153C468.309 165.153 468.906 164.54 469.11 164.114H469.161V165H470.167V160.688C470.167 158.608 468.582 158.369 467.746 158.369C466.758 158.369 465.633 158.71 465.121 159.903L466.076 160.244C466.298 159.767 466.822 159.256 467.781 159.256C468.705 159.256 469.161 159.746 469.161 160.585V160.619C469.161 161.105 468.667 161.062 467.474 161.216C466.259 161.374 464.934 161.642 464.934 163.142C464.934 164.42 465.923 165.153 467.167 165.153ZM467.32 164.25C466.519 164.25 465.94 163.892 465.94 163.193C465.94 162.426 466.638 162.188 467.423 162.085C467.849 162.034 468.991 161.915 469.161 161.71V162.631C469.161 163.449 468.513 164.25 467.32 164.25ZM473.008 161.062C473.008 159.92 473.737 159.273 474.73 159.273C475.676 159.273 476.247 159.869 476.247 160.909V165H477.252V160.841C477.252 159.158 476.358 158.369 475.02 158.369C473.988 158.369 473.4 158.8 473.093 159.477H473.008V156.273H472.002V165H473.008V161.062ZM482.604 156.273V165H483.592V158.369H483.678L486.405 165H487.359L490.087 158.369H490.172V165H491.161V156.273H489.899L486.933 163.517H486.831L483.865 156.273H482.604ZM495.069 165.153C496.211 165.153 496.808 164.54 497.012 164.114H497.064V165H498.069V160.688C498.069 158.608 496.484 158.369 495.649 158.369C494.66 158.369 493.535 158.71 493.024 159.903L493.978 160.244C494.2 159.767 494.724 159.256 495.683 159.256C496.608 159.256 497.064 159.746 497.064 160.585V160.619C497.064 161.105 496.569 161.062 495.376 161.216C494.162 161.374 492.836 161.642 492.836 163.142C492.836 164.42 493.825 165.153 495.069 165.153ZM495.223 164.25C494.422 164.25 493.842 163.892 493.842 163.193C493.842 162.426 494.541 162.188 495.325 162.085C495.751 162.034 496.893 161.915 497.064 161.71V162.631C497.064 163.449 496.416 164.25 495.223 164.25ZM502.376 165.136C503.638 165.136 504.064 164.352 504.286 163.994H504.405V165H505.376V156.273H504.371V159.494H504.286C504.064 159.153 503.672 158.369 502.393 158.369C500.74 158.369 499.598 159.682 499.598 161.744C499.598 163.824 500.74 165.136 502.376 165.136ZM502.513 164.233C501.251 164.233 500.604 163.125 500.604 161.727C500.604 160.347 501.234 159.273 502.513 159.273C503.74 159.273 504.388 160.261 504.388 161.727C504.388 163.21 503.723 164.233 502.513 164.233ZM509.284 165.153C510.426 165.153 511.023 164.54 511.227 164.114H511.278V165H512.284V160.688C512.284 158.608 510.699 158.369 509.864 158.369C508.875 158.369 507.75 158.71 507.239 159.903L508.193 160.244C508.415 159.767 508.939 159.256 509.898 159.256C510.822 159.256 511.278 159.746 511.278 160.585V160.619C511.278 161.105 510.784 161.062 509.591 161.216C508.376 161.374 507.051 161.642 507.051 163.142C507.051 164.42 508.04 165.153 509.284 165.153ZM509.438 164.25C508.636 164.25 508.057 163.892 508.057 163.193C508.057 162.426 508.756 162.188 509.54 162.085C509.966 162.034 511.108 161.915 511.278 161.71V162.631C511.278 163.449 510.631 164.25 509.438 164.25ZM410.491 180H415.997V179.062H411.94V178.994L413.9 176.898C415.4 175.291 415.844 174.541 415.844 173.574C415.844 172.227 414.753 171.153 413.219 171.153C411.689 171.153 410.525 172.193 410.525 173.727H411.531C411.531 172.734 412.175 172.074 413.184 172.074C414.131 172.074 414.855 172.653 414.855 173.574C414.855 174.379 414.382 174.976 413.372 176.08L410.491 179.233V180ZM420.604 180.119C422.53 180.119 423.638 178.487 423.638 175.636C423.638 172.807 422.513 171.153 420.604 171.153C418.694 171.153 417.569 172.807 417.569 175.636C417.569 178.487 418.677 180.119 420.604 180.119ZM420.604 179.182C419.334 179.182 418.592 177.908 418.592 175.636C418.592 173.369 419.342 172.074 420.604 172.074C421.865 172.074 422.615 173.369 422.615 175.636C422.615 177.908 421.873 179.182 420.604 179.182ZM428.325 171.273H427.268L425.086 172.722V173.795L427.217 172.381H427.268V180H428.325V171.273ZM433.613 171.153C431.841 171.132 430.699 172.466 430.699 174.068C430.699 175.756 431.943 176.966 433.443 176.966C434.346 176.966 435.113 176.523 435.591 175.807H435.659C435.659 177.955 434.824 179.182 433.477 179.182C432.557 179.182 431.994 178.602 431.807 177.801H430.767C430.971 179.182 432.011 180.119 433.477 180.119C435.437 180.119 436.648 178.381 436.648 175.278C436.648 172.074 435.045 171.17 433.613 171.153ZM433.613 172.091C434.704 172.091 435.506 173.028 435.506 174.051C435.506 175.091 434.653 176.028 433.579 176.028C432.506 176.028 431.721 175.159 431.721 174.068C431.721 172.977 432.54 172.091 433.613 172.091ZM445.465 175.168H441.647V176.105H445.465V175.168ZM457.667 171.273H456.627V178.142H456.542L451.769 171.273H450.746V180H451.803V173.148H451.888L456.644 180H457.667V171.273ZM462.304 180.136C464.077 180.136 465.27 178.79 465.27 176.761C465.27 174.716 464.077 173.369 462.304 173.369C460.531 173.369 459.338 174.716 459.338 176.761C459.338 178.79 460.531 180.136 462.304 180.136ZM462.304 179.233C460.958 179.233 460.344 178.074 460.344 176.761C460.344 175.449 460.958 174.273 462.304 174.273C463.651 174.273 464.264 175.449 464.264 176.761C464.264 178.074 463.651 179.233 462.304 179.233ZM468.066 180H469.054L470.486 174.972H470.588L472.02 180H473.009L475.003 173.455H473.946L472.531 178.449H472.463L471.083 173.455H470.009L468.611 178.466H468.543L467.128 173.455H466.071L468.066 180Z" fill="#7C7C7C"/>
</svg>
