<svg width="552" height="191" viewBox="0 0 552 191" fill="none" xmlns="http://www.w3.org/2000/svg">
<line x1="102" y1="97" x2="446" y2="97" stroke="#204174" stroke-width="2"/>
<circle cx="101.5" cy="97.5" r="6.5" fill="#204174"/>
<circle cx="101.5" cy="97.5" r="9.5" stroke="#204174" stroke-width="2"/>
<circle cx="446.5" cy="97.5" r="6.5" fill="#204174"/>
<circle cx="446.5" cy="97.5" r="9.5" stroke="#204174" stroke-width="2"/>
<circle cx="216.5" cy="97.5" r="6.5" fill="#204174"/>
<circle cx="216.5" cy="97.5" r="9.5" stroke="#204174" stroke-width="2"/>
<circle cx="331.5" cy="97.5" r="6.5" fill="#204174"/>
<circle cx="331.5" cy="97.5" r="9.5" stroke="#204174" stroke-width="2"/>
<path d="M50.1025 16.125H52.6025C52.2843 13.8239 50.2559 12.2045 47.6253 12.2045C44.5514 12.2045 42.1821 14.4205 42.1821 18.1932C42.1821 21.875 44.398 24.1591 47.6764 24.1591C50.6139 24.1591 52.7105 22.3011 52.7105 19.2386V17.7727H47.8412V19.625H50.3412C50.3071 21.0682 49.3241 21.983 47.6878 21.983C45.8412 21.983 44.6764 20.6023 44.6764 18.1705C44.6764 15.75 45.8866 14.3807 47.665 14.3807C48.9321 14.3807 49.79 15.0341 50.1025 16.125ZM54.537 24H56.9575V19.0625C56.9575 17.9886 57.7416 17.25 58.8098 17.25C59.145 17.25 59.6052 17.3068 59.8325 17.3807V15.233C59.6166 15.1818 59.3154 15.1477 59.0711 15.1477C58.0939 15.1477 57.2927 15.7159 56.9745 16.7955H56.8836V15.2727H54.537V24ZM63.3465 24.1648C64.6363 24.1648 65.4715 23.6023 65.8977 22.7898H65.9659V24H68.2613V18.1136C68.2613 16.0341 66.5 15.1591 64.5568 15.1591C62.4659 15.1591 61.0909 16.1591 60.7556 17.75L62.9943 17.9318C63.159 17.3523 63.6761 16.9261 64.5454 16.9261C65.3693 16.9261 65.8409 17.3409 65.8409 18.0568V18.0909C65.8409 18.6534 65.2443 18.7273 63.7272 18.875C62 19.0341 60.4488 19.6136 60.4488 21.5625C60.4488 23.2898 61.6818 24.1648 63.3465 24.1648ZM64.0397 22.4943C63.2954 22.4943 62.7613 22.1477 62.7613 21.483C62.7613 20.8011 63.3238 20.4659 64.1761 20.3466C64.7045 20.2727 65.5681 20.1477 65.8579 19.9545V20.8807C65.8579 21.7955 65.1022 22.4943 64.0397 22.4943ZM70.1632 27.2727H72.5836V22.6023H72.6575C72.9927 23.3295 73.7257 24.142 75.1348 24.142C77.1234 24.142 78.6745 22.5682 78.6745 19.6477C78.6745 16.6477 77.0552 15.1591 75.1404 15.1591C73.6802 15.1591 72.9813 16.0284 72.6575 16.7386H72.5495V15.2727H70.1632V27.2727ZM72.5325 19.6364C72.5325 18.0795 73.1916 17.0852 74.3677 17.0852C75.5666 17.0852 76.2029 18.125 76.2029 19.6364C76.2029 21.1591 75.5552 22.2159 74.3677 22.2159C73.2029 22.2159 72.5325 21.1932 72.5325 19.6364ZM82.7326 18.9545C82.7383 17.8295 83.4258 17.1705 84.4144 17.1705C85.3974 17.1705 85.9769 17.8011 85.9713 18.875V24H88.3917V18.4432C88.3974 16.3977 87.1928 15.1591 85.3747 15.1591C84.0508 15.1591 83.1644 15.7841 82.7667 16.8125H82.6644V12.3636H80.3122V24H82.7326V18.9545ZM90.3205 24H92.741V15.2727H90.3205V24ZM91.5364 14.1477C92.258 14.1477 92.8489 13.5966 92.8489 12.9205C92.8489 12.25 92.258 11.6989 91.5364 11.6989C90.8205 11.6989 90.2296 12.25 90.2296 12.9205C90.2296 13.5966 90.8205 14.1477 91.5364 14.1477ZM98.6471 24.1705C100.971 24.1705 102.431 22.8068 102.545 20.8011H100.261C100.119 21.733 99.505 22.2557 98.6755 22.2557C97.5448 22.2557 96.8119 21.3068 96.8119 19.6364C96.8119 17.9886 97.5505 17.0455 98.6755 17.0455C99.5619 17.0455 100.13 17.6307 100.261 18.5H102.545C102.443 16.483 100.914 15.1591 98.6357 15.1591C95.988 15.1591 94.3516 16.9943 94.3516 19.6705C94.3516 22.3239 95.9596 24.1705 98.6471 24.1705ZM112.016 24C115.562 24 117.709 21.8068 117.709 18.1705C117.709 14.5455 115.562 12.3636 112.05 12.3636H107.891V24H112.016ZM110.351 21.892V14.4716H111.92C114.101 14.4716 115.255 15.5852 115.255 18.1705C115.255 20.767 114.101 21.892 111.914 21.892H110.351ZM123.488 24.1705C125.647 24.1705 127.101 23.1193 127.442 21.5L125.203 21.3523C124.959 22.017 124.334 22.3636 123.527 22.3636C122.317 22.3636 121.55 21.5625 121.55 20.2614V20.2557H127.493V19.5909C127.493 16.625 125.698 15.1591 123.391 15.1591C120.823 15.1591 119.158 16.983 119.158 19.6761C119.158 22.4432 120.8 24.1705 123.488 24.1705ZM121.55 18.7557C121.601 17.7614 122.357 16.9659 123.431 16.9659C124.482 16.9659 125.209 17.7159 125.215 18.7557H121.55ZM136.358 17.7614C136.142 16.1534 134.847 15.1591 132.642 15.1591C130.409 15.1591 128.938 16.1932 128.943 17.875C128.938 19.1818 129.762 20.0284 131.466 20.3693L132.977 20.6705C133.739 20.8239 134.085 21.1023 134.097 21.5398C134.085 22.0568 133.523 22.4261 132.676 22.4261C131.813 22.4261 131.239 22.0568 131.091 21.3466L128.71 21.4716C128.938 23.142 130.358 24.1705 132.671 24.1705C134.932 24.1705 136.551 23.017 136.557 21.2955C136.551 20.0341 135.727 19.2784 134.034 18.9318L132.455 18.6136C131.642 18.4375 131.341 18.1591 131.347 17.7386C131.341 17.2159 131.932 16.875 132.682 16.875C133.523 16.875 134.023 17.3352 134.142 17.8977L136.358 17.7614ZM138.105 24H140.526V15.2727H138.105V24ZM139.321 14.1477C140.043 14.1477 140.634 13.5966 140.634 12.9205C140.634 12.25 140.043 11.6989 139.321 11.6989C138.605 11.6989 138.014 12.25 138.014 12.9205C138.014 13.5966 138.605 14.1477 139.321 14.1477ZM146.42 27.4545C148.915 27.4545 150.687 26.3182 150.687 24.0852V15.2727H148.284V16.7386H148.193C147.869 16.0284 147.159 15.1591 145.699 15.1591C143.784 15.1591 142.165 16.6477 142.165 19.6193C142.165 22.5227 143.739 23.875 145.704 23.875C147.096 23.875 147.875 23.1761 148.193 22.4545H148.295V24.0511C148.295 25.25 147.528 25.7159 146.477 25.7159C145.409 25.7159 144.869 25.25 144.67 24.7216L142.432 25.0227C142.721 26.3977 144.068 27.4545 146.42 27.4545ZM146.471 22.0568C145.284 22.0568 144.636 21.1136 144.636 19.608C144.636 18.125 145.273 17.0852 146.471 17.0852C147.648 17.0852 148.307 18.0795 148.307 19.608C148.307 21.1477 147.636 22.0568 146.471 22.0568ZM155.058 18.9545C155.064 17.8295 155.734 17.1705 156.711 17.1705C157.683 17.1705 158.268 17.8068 158.263 18.875V24H160.683V18.4432C160.683 16.4091 159.49 15.1591 157.672 15.1591C156.376 15.1591 155.439 15.7955 155.047 16.8125H154.944V15.2727H152.638V24H155.058V18.9545Z" fill="#204174"/>
<path d="M43.6733 42.4545H44.696C44.6491 41.1378 43.4347 40.1534 41.7472 40.1534C40.0767 40.1534 38.7642 41.125 38.7642 42.5909C38.7642 43.767 39.6165 44.4659 40.9801 44.858L42.054 45.1648C42.9744 45.4205 43.7926 45.7443 43.7926 46.6136C43.7926 47.5682 42.8722 48.1989 41.6619 48.1989C40.6222 48.1989 39.7017 47.7386 39.6165 46.75H38.5256C38.6278 48.1818 39.7869 49.1534 41.6619 49.1534C43.6733 49.1534 44.8153 48.0455 44.8153 46.6307C44.8153 44.9943 43.2642 44.4659 42.3608 44.2273L41.4744 43.9886C40.8267 43.8182 39.7869 43.4773 39.7869 42.5398C39.7869 41.7045 40.554 41.0909 41.7131 41.0909C42.7699 41.0909 43.571 41.5938 43.6733 42.4545ZM49.0756 49.1364C50.8484 49.1364 52.0415 47.7898 52.0415 45.7614C52.0415 43.7159 50.8484 42.3693 49.0756 42.3693C47.3029 42.3693 46.1097 43.7159 46.1097 45.7614C46.1097 47.7898 47.3029 49.1364 49.0756 49.1364ZM49.0756 48.233C47.729 48.233 47.1154 47.0739 47.1154 45.7614C47.1154 44.4489 47.729 43.2727 49.0756 43.2727C50.4222 43.2727 51.0359 44.4489 51.0359 45.7614C51.0359 47.0739 50.4222 48.233 49.0756 48.233ZM58.2131 43.9205C57.8977 42.9915 57.1903 42.3693 55.8949 42.3693C54.5142 42.3693 53.4915 43.1534 53.4915 44.2614C53.4915 45.1648 54.0284 45.7699 55.2301 46.0511L56.321 46.3068C56.9815 46.4602 57.2926 46.7756 57.2926 47.2273C57.2926 47.7898 56.696 48.25 55.7585 48.25C54.9361 48.25 54.4205 47.8963 54.2415 47.1932L53.2869 47.4318C53.5213 48.544 54.4375 49.1364 55.7756 49.1364C57.2969 49.1364 58.3324 48.3054 58.3324 47.1761C58.3324 46.2642 57.7614 45.6889 56.5938 45.4034L55.6222 45.1648C54.8466 44.973 54.4972 44.7131 54.4972 44.2102C54.4972 43.6477 55.0938 43.2386 55.8949 43.2386C56.7727 43.2386 57.1349 43.7244 57.3097 44.1761L58.2131 43.9205ZM59.8462 49H60.8519V44.9091C60.8519 43.9503 61.5508 43.2727 62.3349 43.2727C63.0977 43.2727 63.6303 43.7713 63.6303 44.517V49H64.6531V44.7386C64.6531 43.8949 65.1815 43.2727 66.1019 43.2727C66.8178 43.2727 67.4315 43.652 67.4315 44.6193V49H68.4371V44.6193C68.4371 43.081 67.6104 42.3693 66.4428 42.3693C65.5053 42.3693 64.8192 42.7997 64.4826 43.4773H64.4144C64.0906 42.7784 63.5195 42.3693 62.6587 42.3693C61.8065 42.3693 61.1758 42.7784 60.9031 43.4773H60.8178V42.4545H59.8462V49ZM72.2021 49.1534C73.3441 49.1534 73.9407 48.5398 74.1452 48.1136H74.1964V49H75.2021V44.6875C75.2021 42.608 73.6168 42.3693 72.7816 42.3693C71.793 42.3693 70.668 42.7102 70.1566 43.9034L71.1112 44.2443C71.3327 43.767 71.8569 43.2557 72.8157 43.2557C73.7404 43.2557 74.1964 43.7457 74.1964 44.5852V44.6193C74.1964 45.1051 73.7021 45.0625 72.5089 45.2159C71.2944 45.3736 69.9691 45.642 69.9691 47.142C69.9691 48.4205 70.9577 49.1534 72.2021 49.1534ZM72.3555 48.25C71.5543 48.25 70.9748 47.892 70.9748 47.1932C70.9748 46.4261 71.6737 46.1875 72.4577 46.0852C72.8839 46.0341 74.0259 45.9148 74.1964 45.7102V46.6307C74.1964 47.4489 73.5487 48.25 72.3555 48.25ZM81.674 43.9205C81.3587 42.9915 80.6513 42.3693 79.3558 42.3693C77.9751 42.3693 76.9524 43.1534 76.9524 44.2614C76.9524 45.1648 77.4893 45.7699 78.6911 46.0511L79.782 46.3068C80.4425 46.4602 80.7536 46.7756 80.7536 47.2273C80.7536 47.7898 80.157 48.25 79.2195 48.25C78.397 48.25 77.8814 47.8963 77.7024 47.1932L76.7479 47.4318C76.9822 48.544 77.8984 49.1364 79.2365 49.1364C80.7578 49.1364 81.7933 48.3054 81.7933 47.1761C81.7933 46.2642 81.2223 45.6889 80.0547 45.4034L79.0831 45.1648C78.3075 44.973 77.9581 44.7131 77.9581 44.2102C77.9581 43.6477 78.5547 43.2386 79.3558 43.2386C80.2337 43.2386 80.5959 43.7244 80.7706 44.1761L81.674 43.9205ZM86.8185 49H89.9719C92.0344 49 92.8867 47.9943 92.8867 46.6818C92.8867 45.3011 91.9322 44.5511 91.131 44.5V44.4148C91.881 44.2102 92.5458 43.7159 92.5458 42.5909C92.5458 41.3125 91.6935 40.2727 89.8697 40.2727H86.8185V49ZM87.8754 48.0625V45.0284H90.0231C91.1651 45.0284 91.881 45.7955 91.881 46.6818C91.881 47.4489 91.3526 48.0625 89.9719 48.0625H87.8754ZM87.8754 44.108V41.2102H89.8697C91.0288 41.2102 91.5401 41.8239 91.5401 42.5909C91.5401 43.5114 90.7901 44.108 89.8356 44.108H87.8754ZM94.6232 49H99.9585V48.0625H95.68V45.0966H99.6175V44.1591H95.68V41.2102H99.8903V40.2727H94.6232V49ZM101.795 40.2727V49H102.784V42.3693H102.869L105.596 49H106.551L109.278 42.3693H109.363V49H110.352V40.2727H109.091L106.125 47.517H106.022L103.056 40.2727H101.795ZM115.846 49H116.903V46.1705L117.994 44.9432L121.028 49H122.306L118.641 44.2102L122.306 40.2727H120.925L117.005 44.6023H116.903V40.2727H115.846V49ZM123.674 40.2727V49H124.663V42.3693H124.748L127.475 49H128.43L131.157 42.3693H131.242V49H132.231V40.2727H130.969L128.004 47.517H127.901L124.935 40.2727H123.674ZM143.452 40.2727V45.9659C143.452 47.2443 142.574 48.1648 141.117 48.1648C139.659 48.1648 138.782 47.2443 138.782 45.9659V40.2727H137.725V46.0511C137.725 47.8409 139.063 49.1534 141.117 49.1534C143.171 49.1534 144.509 47.8409 144.509 46.0511V40.2727H143.452ZM152.585 43H153.676C153.352 41.3125 151.938 40.1534 150.097 40.1534C147.859 40.1534 146.278 41.875 146.278 44.6364C146.278 47.3977 147.847 49.1193 150.165 49.1193C152.244 49.1193 153.727 47.7344 153.727 45.5739V44.6364H150.403V45.5739H152.705C152.675 47.142 151.643 48.1307 150.165 48.1307C148.545 48.1307 147.301 46.9034 147.301 44.6364C147.301 42.3693 148.545 41.142 150.097 41.142C151.358 41.142 152.214 41.8537 152.585 43ZM155.537 40.2727V49H156.526V42.3693H156.611L159.338 49H160.293L163.02 42.3693H163.105V49H164.094V40.2727H162.833L159.867 47.517H159.765L156.799 40.2727H155.537ZM68.6417 64H74.1474V63.0625H70.0906V62.9943L72.0508 60.8977C73.5508 59.2912 73.994 58.5412 73.994 57.5739C73.994 56.2273 72.9031 55.1534 71.369 55.1534C69.8391 55.1534 68.6758 56.1932 68.6758 57.7273H69.6815C69.6815 56.7344 70.3249 56.0739 71.3349 56.0739C72.2809 56.0739 73.0053 56.6534 73.0053 57.5739C73.0053 58.3793 72.5323 58.9759 71.5224 60.0795L68.6417 63.233V64ZM78.7539 64.1193C80.68 64.1193 81.788 62.4872 81.788 59.6364C81.788 56.8068 80.663 55.1534 78.7539 55.1534C76.8448 55.1534 75.7198 56.8068 75.7198 59.6364C75.7198 62.4872 76.8278 64.1193 78.7539 64.1193ZM78.7539 63.1818C77.484 63.1818 76.7425 61.9077 76.7425 59.6364C76.7425 57.3693 77.4925 56.0739 78.7539 56.0739C80.0153 56.0739 80.7653 57.3693 80.7653 59.6364C80.7653 61.9077 80.0238 63.1818 78.7539 63.1818ZM83.4073 64H88.913V63.0625H84.8562V62.9943L86.8164 60.8977C88.3164 59.2912 88.7596 58.5412 88.7596 57.5739C88.7596 56.2273 87.6687 55.1534 86.1346 55.1534C84.6048 55.1534 83.4414 56.1932 83.4414 57.7273H84.4471C84.4471 56.7344 85.0906 56.0739 86.1005 56.0739C87.0465 56.0739 87.771 56.6534 87.771 57.5739C87.771 58.3793 87.2979 58.9759 86.288 60.0795L83.4073 63.233V64ZM93.5195 64.1193C95.4457 64.1193 96.5536 62.4872 96.5536 59.6364C96.5536 56.8068 95.4286 55.1534 93.5195 55.1534C91.6104 55.1534 90.4854 56.8068 90.4854 59.6364C90.4854 62.4872 91.5934 64.1193 93.5195 64.1193ZM93.5195 63.1818C92.2496 63.1818 91.5082 61.9077 91.5082 59.6364C91.5082 57.3693 92.2582 56.0739 93.5195 56.0739C94.7809 56.0739 95.5309 57.3693 95.5309 59.6364C95.5309 61.9077 94.7894 63.1818 93.5195 63.1818ZM105.315 59.1676H101.497V60.1051H105.315V59.1676ZM117.516 55.2727H116.477V62.142H116.391L111.619 55.2727H110.596V64H111.653V57.1477H111.738L116.494 64H117.516V55.2727ZM122.154 64.1364C123.926 64.1364 125.12 62.7898 125.12 60.7614C125.12 58.7159 123.926 57.3693 122.154 57.3693C120.381 57.3693 119.188 58.7159 119.188 60.7614C119.188 62.7898 120.381 64.1364 122.154 64.1364ZM122.154 63.233C120.807 63.233 120.194 62.0739 120.194 60.7614C120.194 59.4489 120.807 58.2727 122.154 58.2727C123.5 58.2727 124.114 59.4489 124.114 60.7614C124.114 62.0739 123.5 63.233 122.154 63.233ZM127.915 64H128.904L130.336 58.9716H130.438L131.87 64H132.858L134.853 57.4545H133.796L132.381 62.4489H132.313L130.932 57.4545H129.858L128.461 62.4659H128.392L126.978 57.4545H125.921L127.915 64Z" fill="#7C7C7C"/>
<path d="M287.653 12.3636V19.7102C287.653 21.0398 286.721 22 285.289 22C283.863 22 282.926 21.0398 282.926 19.7102V12.3636H280.465V19.9205C280.465 22.4659 282.386 24.1648 285.289 24.1648C288.181 24.1648 290.113 22.4659 290.113 19.9205V12.3636H287.653ZM294.621 12.3636H292.161V24H294.621V12.3636ZM301.692 11.8182H299.607L295.857 25.75H297.942L301.692 11.8182ZM310.115 12.3636V19.7102C310.115 21.0398 309.184 22 307.752 22C306.326 22 305.388 21.0398 305.388 19.7102V12.3636H302.928V19.9205C302.928 22.4659 304.848 24.1648 307.752 24.1648C310.644 24.1648 312.576 22.4659 312.576 19.9205V12.3636H310.115ZM316.931 12.3636H314.141L317.715 18.1818L314.073 24H316.891L319.277 20.0284H319.368L321.754 24H324.584L320.953 18.1818L324.504 12.3636H321.726L319.368 16.3295H319.277L316.931 12.3636ZM333.937 24C337.483 24 339.631 21.8068 339.631 18.1705C339.631 14.5455 337.483 12.3636 333.972 12.3636H329.812V24H333.937ZM332.273 21.892V14.4716H333.841C336.023 14.4716 337.176 15.5852 337.176 18.1705C337.176 20.767 336.023 21.892 333.835 21.892H332.273ZM345.409 24.1705C347.568 24.1705 349.023 23.1193 349.363 21.5L347.125 21.3523C346.88 22.017 346.255 22.3636 345.449 22.3636C344.238 22.3636 343.471 21.5625 343.471 20.2614V20.2557H349.415V19.5909C349.415 16.625 347.619 15.1591 345.312 15.1591C342.744 15.1591 341.079 16.983 341.079 19.6761C341.079 22.4432 342.721 24.1705 345.409 24.1705ZM343.471 18.7557C343.523 17.7614 344.278 16.9659 345.352 16.9659C346.403 16.9659 347.13 17.7159 347.136 18.7557H343.471ZM358.279 17.7614C358.064 16.1534 356.768 15.1591 354.564 15.1591C352.331 15.1591 350.859 16.1932 350.865 17.875C350.859 19.1818 351.683 20.0284 353.387 20.3693L354.899 20.6705C355.66 20.8239 356.007 21.1023 356.018 21.5398C356.007 22.0568 355.444 22.4261 354.598 22.4261C353.734 22.4261 353.16 22.0568 353.012 21.3466L350.632 21.4716C350.859 23.142 352.279 24.1705 354.592 24.1705C356.853 24.1705 358.473 23.017 358.478 21.2955C358.473 20.0341 357.649 19.2784 355.956 18.9318L354.376 18.6136C353.564 18.4375 353.262 18.1591 353.268 17.7386C353.262 17.2159 353.853 16.875 354.603 16.875C355.444 16.875 355.944 17.3352 356.064 17.8977L358.279 17.7614ZM360.026 24H362.447V15.2727H360.026V24ZM361.242 14.1477C361.964 14.1477 362.555 13.5966 362.555 12.9205C362.555 12.25 361.964 11.6989 361.242 11.6989C360.526 11.6989 359.936 12.25 359.936 12.9205C359.936 13.5966 360.526 14.1477 361.242 14.1477ZM368.342 27.4545C370.836 27.4545 372.609 26.3182 372.609 24.0852V15.2727H370.205V16.7386H370.114C369.791 16.0284 369.08 15.1591 367.62 15.1591C365.705 15.1591 364.086 16.6477 364.086 19.6193C364.086 22.5227 365.66 23.875 367.626 23.875C369.018 23.875 369.796 23.1761 370.114 22.4545H370.217V24.0511C370.217 25.25 369.45 25.7159 368.398 25.7159C367.33 25.7159 366.791 25.25 366.592 24.7216L364.353 25.0227C364.643 26.3977 365.989 27.4545 368.342 27.4545ZM368.393 22.0568C367.205 22.0568 366.558 21.1136 366.558 19.608C366.558 18.125 367.194 17.0852 368.393 17.0852C369.569 17.0852 370.228 18.0795 370.228 19.608C370.228 21.1477 369.558 22.0568 368.393 22.0568ZM376.979 18.9545C376.985 17.8295 377.655 17.1705 378.633 17.1705C379.604 17.1705 380.19 17.8068 380.184 18.875V24H382.604V18.4432C382.604 16.4091 381.411 15.1591 379.593 15.1591C378.297 15.1591 377.36 15.7955 376.968 16.8125H376.866V15.2727H374.559V24H376.979V18.9545Z" fill="#204174"/>
<path d="M256.974 41.2102H259.718V49H260.775V41.2102H263.52V40.2727H256.974V41.2102ZM266.809 49.1364C268.139 49.1364 269.11 48.4716 269.417 47.483L268.446 47.2102C268.19 47.892 267.598 48.233 266.809 48.233C265.629 48.233 264.815 47.4702 264.768 46.0682H269.52V45.642C269.52 43.2045 268.071 42.3693 266.707 42.3693C264.934 42.3693 263.758 43.767 263.758 45.7784C263.758 47.7898 264.917 49.1364 266.809 49.1364ZM264.768 45.1989C264.836 44.1804 265.556 43.2727 266.707 43.2727C267.798 43.2727 268.497 44.0909 268.497 45.1989H264.768ZM273.691 51.5909C275.26 51.5909 276.521 50.875 276.521 49.1875V42.4545H275.549V43.4943H275.447C275.225 43.1534 274.816 42.3693 273.538 42.3693C271.885 42.3693 270.743 43.6818 270.743 45.6932C270.743 47.7386 271.936 48.8977 273.521 48.8977C274.799 48.8977 275.208 48.1477 275.43 47.7898H275.515V49.1193C275.515 50.2102 274.748 50.7045 273.691 50.7045C272.502 50.7045 272.085 50.0781 271.816 49.7159L271.015 50.2784C271.424 50.9645 272.23 51.5909 273.691 51.5909ZM273.657 47.9943C272.396 47.9943 271.748 47.0398 271.748 45.6761C271.748 44.3466 272.379 43.2727 273.657 43.2727C274.885 43.2727 275.532 44.2614 275.532 45.6761C275.532 47.125 274.868 47.9943 273.657 47.9943ZM282.487 46.3239C282.487 47.5511 281.549 48.1136 280.799 48.1136C279.964 48.1136 279.368 47.5 279.368 46.5455V42.4545H278.362V46.6136C278.362 48.2841 279.248 49.0852 280.475 49.0852C281.464 49.0852 282.112 48.5568 282.419 47.892H282.487V49H283.493V42.4545H282.487V46.3239ZM285.335 49H286.34V46.5497L287.043 45.8977L289.494 49H290.772L287.802 45.25L290.567 42.4545H289.323L286.46 45.3693H286.34V40.2727H285.335V49ZM295.731 49L296.609 46.5284H300.137L301.015 49H302.123L298.919 40.2727H297.828L294.623 49H295.731ZM296.941 45.5909L298.339 41.6534H298.407L299.805 45.5909H296.941ZM303.346 51.4545H304.352V47.9943H304.437C304.659 48.3523 305.085 49.1364 306.346 49.1364C307.983 49.1364 309.125 47.8239 309.125 45.7443C309.125 43.6818 307.983 42.3693 306.329 42.3693C305.051 42.3693 304.659 43.1534 304.437 43.4943H304.318V42.4545H303.346V51.4545ZM304.335 45.7273C304.335 44.2614 304.983 43.2727 306.21 43.2727C307.488 43.2727 308.119 44.3466 308.119 45.7273C308.119 47.125 307.471 48.233 306.21 48.233C305 48.233 304.335 47.2102 304.335 45.7273ZM310.659 51.4545H311.664V47.9943H311.75C311.971 48.3523 312.397 49.1364 313.659 49.1364C315.295 49.1364 316.437 47.8239 316.437 45.7443C316.437 43.6818 315.295 42.3693 313.642 42.3693C312.363 42.3693 311.971 43.1534 311.75 43.4943H311.63V42.4545H310.659V51.4545ZM311.647 45.7273C311.647 44.2614 312.295 43.2727 313.522 43.2727C314.801 43.2727 315.431 44.3466 315.431 45.7273C315.431 47.125 314.784 48.233 313.522 48.233C312.312 48.233 311.647 47.2102 311.647 45.7273ZM321.483 49H322.539V45.8125H324.449C326.481 45.8125 327.397 44.5767 327.397 43.0341C327.397 41.4915 326.481 40.2727 324.431 40.2727H321.483V49ZM322.539 44.875V41.2102H324.397C325.816 41.2102 326.358 41.9858 326.358 43.0341C326.358 44.0824 325.816 44.875 324.414 44.875H322.539ZM328.963 49H329.969V44.858C329.969 43.9716 330.668 43.3239 331.623 43.3239C331.891 43.3239 332.168 43.375 332.236 43.392V42.3693C332.121 42.3608 331.857 42.3523 331.708 42.3523C330.924 42.3523 330.242 42.7955 330.003 43.4432H329.935V42.4545H328.963V49ZM335.888 49.1364C337.661 49.1364 338.854 47.7898 338.854 45.7614C338.854 43.7159 337.661 42.3693 335.888 42.3693C334.115 42.3693 332.922 43.7159 332.922 45.7614C332.922 47.7898 334.115 49.1364 335.888 49.1364ZM335.888 48.233C334.542 48.233 333.928 47.0739 333.928 45.7614C333.928 44.4489 334.542 43.2727 335.888 43.2727C337.235 43.2727 337.848 44.4489 337.848 45.7614C337.848 47.0739 337.235 48.233 335.888 48.233ZM340.389 42.4545V49.4773C340.389 50.142 340.116 50.517 339.503 50.517H339.315V51.4545H339.52C340.781 51.4545 341.395 50.6875 341.395 49.4773V42.4545H340.389ZM340.884 41.3636C341.276 41.3636 341.599 41.0568 341.599 40.6818C341.599 40.3068 341.276 40 340.884 40C340.491 40 340.168 40.3068 340.168 40.6818C340.168 41.0568 340.491 41.3636 340.884 41.3636ZM345.981 49.1364C347.311 49.1364 348.282 48.4716 348.589 47.483L347.618 47.2102C347.362 47.892 346.77 48.233 345.981 48.233C344.801 48.233 343.987 47.4702 343.94 46.0682H348.691V45.642C348.691 43.2045 347.243 42.3693 345.879 42.3693C344.106 42.3693 342.93 43.767 342.93 45.7784C342.93 47.7898 344.089 49.1364 345.981 49.1364ZM343.94 45.1989C344.008 44.1804 344.728 43.2727 345.879 43.2727C346.97 43.2727 347.669 44.0909 347.669 45.1989H343.94ZM352.88 49.1364C354.329 49.1364 355.284 48.25 355.454 47.0909H354.449C354.261 47.8068 353.664 48.233 352.88 48.233C351.687 48.233 350.92 47.2443 350.92 45.7273C350.92 44.2443 351.704 43.2727 352.88 43.2727C353.767 43.2727 354.295 43.8182 354.449 44.4148H355.454C355.284 43.1875 354.244 42.3693 352.863 42.3693C351.091 42.3693 349.914 43.767 349.914 45.7614C349.914 47.7216 351.039 49.1364 352.88 49.1364ZM359.771 42.4545H358.373V40.8864H357.368V42.4545H356.379V43.3068H357.368V47.3977C357.368 48.5398 358.288 49.0852 359.14 49.0852C359.515 49.0852 359.754 49.017 359.89 48.9659L359.686 48.0625C359.6 48.0795 359.464 48.1136 359.243 48.1136C358.799 48.1136 358.373 47.9773 358.373 47.125V43.3068H359.771V42.4545ZM371.818 43C371.494 41.2102 370.062 40.1534 368.306 40.1534C366.074 40.1534 364.454 41.875 364.454 44.6364C364.454 47.3977 366.074 49.1193 368.306 49.1193C370.062 49.1193 371.494 48.0625 371.818 46.2727H370.761C370.505 47.483 369.466 48.1307 368.306 48.1307C366.721 48.1307 365.477 46.9034 365.477 44.6364C365.477 42.3693 366.721 41.142 368.306 41.142C369.466 41.142 370.505 41.7898 370.761 43H371.818ZM376.048 49.1364C377.821 49.1364 379.014 47.7898 379.014 45.7614C379.014 43.7159 377.821 42.3693 376.048 42.3693C374.276 42.3693 373.082 43.7159 373.082 45.7614C373.082 47.7898 374.276 49.1364 376.048 49.1364ZM376.048 48.233C374.702 48.233 374.088 47.0739 374.088 45.7614C374.088 44.4489 374.702 43.2727 376.048 43.2727C377.395 43.2727 378.009 44.4489 378.009 45.7614C378.009 47.0739 377.395 48.233 376.048 48.233ZM381.555 40.2727H380.549V49H381.555V40.2727ZM384.403 40.2727H383.397V49H384.403V40.2727ZM388.989 49.1364C390.319 49.1364 391.29 48.4716 391.597 47.483L390.625 47.2102C390.37 47.892 389.777 48.233 388.989 48.233C387.809 48.233 386.995 47.4702 386.948 46.0682H391.699V45.642C391.699 43.2045 390.25 42.3693 388.887 42.3693C387.114 42.3693 385.938 43.767 385.938 45.7784C385.938 47.7898 387.097 49.1364 388.989 49.1364ZM386.948 45.1989C387.016 44.1804 387.736 43.2727 388.887 43.2727C389.978 43.2727 390.676 44.0909 390.676 45.1989H386.948ZM395.871 51.5909C397.439 51.5909 398.701 50.875 398.701 49.1875V42.4545H397.729V43.4943H397.627C397.405 43.1534 396.996 42.3693 395.718 42.3693C394.064 42.3693 392.922 43.6818 392.922 45.6932C392.922 47.7386 394.115 48.8977 395.701 48.8977C396.979 48.8977 397.388 48.1477 397.61 47.7898H397.695V49.1193C397.695 50.2102 396.928 50.7045 395.871 50.7045C394.682 50.7045 394.265 50.0781 393.996 49.7159L393.195 50.2784C393.604 50.9645 394.409 51.5909 395.871 51.5909ZM395.837 47.9943C394.576 47.9943 393.928 47.0398 393.928 45.6761C393.928 44.3466 394.559 43.2727 395.837 43.2727C397.064 43.2727 397.712 44.2614 397.712 45.6761C397.712 47.125 397.047 47.9943 395.837 47.9943ZM403.286 49.1364C404.615 49.1364 405.587 48.4716 405.894 47.483L404.922 47.2102C404.667 47.892 404.074 48.233 403.286 48.233C402.105 48.233 401.292 47.4702 401.245 46.0682H405.996V45.642C405.996 43.2045 404.547 42.3693 403.184 42.3693C401.411 42.3693 400.235 43.767 400.235 45.7784C400.235 47.7898 401.394 49.1364 403.286 49.1364ZM401.245 45.1989C401.313 44.1804 402.033 43.2727 403.184 43.2727C404.275 43.2727 404.973 44.0909 404.973 45.1989H401.245ZM317.638 64H323.143V63.0625H319.087V62.9943L321.047 60.8977C322.547 59.2912 322.99 58.5412 322.99 57.5739C322.99 56.2273 321.899 55.1534 320.365 55.1534C318.835 55.1534 317.672 56.1932 317.672 57.7273H318.678C318.678 56.7344 319.321 56.0739 320.331 56.0739C321.277 56.0739 322.001 56.6534 322.001 57.5739C322.001 58.3793 321.528 58.9759 320.518 60.0795L317.638 63.233V64ZM327.75 64.1193C329.676 64.1193 330.784 62.4872 330.784 59.6364C330.784 56.8068 329.659 55.1534 327.75 55.1534C325.841 55.1534 324.716 56.8068 324.716 59.6364C324.716 62.4872 325.824 64.1193 327.75 64.1193ZM327.75 63.1818C326.48 63.1818 325.739 61.9077 325.739 59.6364C325.739 57.3693 326.489 56.0739 327.75 56.0739C329.011 56.0739 329.761 57.3693 329.761 59.6364C329.761 61.9077 329.02 63.1818 327.75 63.1818ZM332.403 64H337.909V63.0625H333.852V62.9943L335.812 60.8977C337.312 59.2912 337.756 58.5412 337.756 57.5739C337.756 56.2273 336.665 55.1534 335.131 55.1534C333.601 55.1534 332.438 56.1932 332.438 57.7273H333.443C333.443 56.7344 334.087 56.0739 335.097 56.0739C336.043 56.0739 336.767 56.6534 336.767 57.5739C336.767 58.3793 336.294 58.9759 335.284 60.0795L332.403 63.233V64ZM342.516 64.1193C344.442 64.1193 345.55 62.4872 345.55 59.6364C345.55 56.8068 344.425 55.1534 342.516 55.1534C340.607 55.1534 339.482 56.8068 339.482 59.6364C339.482 62.4872 340.589 64.1193 342.516 64.1193ZM342.516 63.1818C341.246 63.1818 340.504 61.9077 340.504 59.6364C340.504 57.3693 341.254 56.0739 342.516 56.0739C343.777 56.0739 344.527 57.3693 344.527 59.6364C344.527 61.9077 343.786 63.1818 342.516 63.1818Z" fill="#7C7C7C"/>
<path d="M405.153 128.364V135.71C405.153 137.04 404.221 138 402.789 138C401.363 138 400.426 137.04 400.426 135.71V128.364H397.965V135.92C397.965 138.466 399.886 140.165 402.789 140.165C405.681 140.165 407.613 138.466 407.613 135.92V128.364H405.153ZM412.121 128.364H409.661V140H412.121V128.364ZM419.192 127.818H417.107L413.357 141.75H415.442L419.192 127.818ZM427.615 128.364V135.71C427.615 137.04 426.684 138 425.252 138C423.826 138 422.888 137.04 422.888 135.71V128.364H420.428V135.92C420.428 138.466 422.348 140.165 425.252 140.165C428.144 140.165 430.076 138.466 430.076 135.92V128.364H427.615ZM434.431 128.364H431.641L435.215 134.182L431.573 140H434.391L436.777 136.028H436.868L439.254 140H442.084L438.453 134.182L442.004 128.364H439.226L436.868 132.33H436.777L434.431 128.364ZM451.437 140C454.983 140 457.131 137.807 457.131 134.17C457.131 130.545 454.983 128.364 451.472 128.364H447.312V140H451.437ZM449.773 137.892V130.472H451.341C453.523 130.472 454.676 131.585 454.676 134.17C454.676 136.767 453.523 137.892 451.335 137.892H449.773ZM462.909 140.17C465.068 140.17 466.523 139.119 466.863 137.5L464.625 137.352C464.38 138.017 463.755 138.364 462.949 138.364C461.738 138.364 460.971 137.562 460.971 136.261V136.256H466.915V135.591C466.915 132.625 465.119 131.159 462.812 131.159C460.244 131.159 458.579 132.983 458.579 135.676C458.579 138.443 460.221 140.17 462.909 140.17ZM460.971 134.756C461.023 133.761 461.778 132.966 462.852 132.966C463.903 132.966 464.63 133.716 464.636 134.756H460.971ZM475.779 133.761C475.564 132.153 474.268 131.159 472.064 131.159C469.831 131.159 468.359 132.193 468.365 133.875C468.359 135.182 469.183 136.028 470.887 136.369L472.399 136.67C473.16 136.824 473.507 137.102 473.518 137.54C473.507 138.057 472.944 138.426 472.098 138.426C471.234 138.426 470.66 138.057 470.512 137.347L468.132 137.472C468.359 139.142 469.779 140.17 472.092 140.17C474.353 140.17 475.973 139.017 475.978 137.295C475.973 136.034 475.149 135.278 473.456 134.932L471.876 134.614C471.064 134.438 470.762 134.159 470.768 133.739C470.762 133.216 471.353 132.875 472.103 132.875C472.944 132.875 473.444 133.335 473.564 133.898L475.779 133.761ZM477.526 140H479.947V131.273H477.526V140ZM478.742 130.148C479.464 130.148 480.055 129.597 480.055 128.92C480.055 128.25 479.464 127.699 478.742 127.699C478.026 127.699 477.436 128.25 477.436 128.92C477.436 129.597 478.026 130.148 478.742 130.148ZM485.842 143.455C488.336 143.455 490.109 142.318 490.109 140.085V131.273H487.705V132.739H487.614C487.291 132.028 486.58 131.159 485.12 131.159C483.205 131.159 481.586 132.648 481.586 135.619C481.586 138.523 483.16 139.875 485.126 139.875C486.518 139.875 487.296 139.176 487.614 138.455H487.717V140.051C487.717 141.25 486.95 141.716 485.898 141.716C484.83 141.716 484.291 141.25 484.092 140.722L481.853 141.023C482.143 142.398 483.489 143.455 485.842 143.455ZM485.893 138.057C484.705 138.057 484.058 137.114 484.058 135.608C484.058 134.125 484.694 133.085 485.893 133.085C487.069 133.085 487.728 134.08 487.728 135.608C487.728 137.148 487.058 138.057 485.893 138.057ZM494.479 134.955C494.485 133.83 495.155 133.17 496.133 133.17C497.104 133.17 497.69 133.807 497.684 134.875V140H500.104V134.443C500.104 132.409 498.911 131.159 497.093 131.159C495.797 131.159 494.86 131.795 494.468 132.812H494.366V131.273H492.059V140H494.479V134.955Z" fill="#204174"/>
<path d="M375.461 156.273V165H376.45V158.369H376.535L379.262 165H380.217L382.944 158.369H383.029V165H384.018V156.273H382.757L379.791 163.517H379.688L376.722 156.273H375.461ZM388.66 165.136C390.432 165.136 391.626 163.79 391.626 161.761C391.626 159.716 390.432 158.369 388.66 158.369C386.887 158.369 385.694 159.716 385.694 161.761C385.694 163.79 386.887 165.136 388.66 165.136ZM388.66 164.233C387.313 164.233 386.699 163.074 386.699 161.761C386.699 160.449 387.313 159.273 388.66 159.273C390.006 159.273 390.62 160.449 390.62 161.761C390.62 163.074 390.006 164.233 388.66 164.233ZM394.166 161.062C394.166 159.92 394.874 159.273 395.837 159.273C396.77 159.273 397.337 159.882 397.337 160.909V165H398.343V160.841C398.343 159.17 397.452 158.369 396.127 158.369C395.138 158.369 394.524 158.812 394.218 159.477H394.132V158.455H393.161V165H394.166V161.062ZM403.027 158.455H401.629V156.886H400.623V158.455H399.635V159.307H400.623V163.398C400.623 164.54 401.544 165.085 402.396 165.085C402.771 165.085 403.01 165.017 403.146 164.966L402.942 164.062C402.856 164.08 402.72 164.114 402.498 164.114C402.055 164.114 401.629 163.977 401.629 163.125V159.307H403.027V158.455ZM404.54 165H405.545V158.455H404.54V165ZM405.051 157.364C405.443 157.364 405.767 157.057 405.767 156.682C405.767 156.307 405.443 156 405.051 156C404.659 156 404.335 156.307 404.335 156.682C404.335 157.057 404.659 157.364 405.051 157.364ZM407.387 165H408.393V160.858C408.393 159.972 409.092 159.324 410.046 159.324C410.315 159.324 410.592 159.375 410.66 159.392V158.369C410.545 158.361 410.281 158.352 410.132 158.352C409.347 158.352 408.666 158.795 408.427 159.443H408.359V158.455H407.387V165ZM415.721 165L416.599 162.528H420.128L421.006 165H422.113L418.909 156.273H417.818L414.613 165H415.721ZM416.932 161.591L418.329 157.653H418.398L419.795 161.591H416.932ZM423.336 167.455H424.342V163.994H424.427C424.649 164.352 425.075 165.136 426.336 165.136C427.973 165.136 429.115 163.824 429.115 161.744C429.115 159.682 427.973 158.369 426.319 158.369C425.041 158.369 424.649 159.153 424.427 159.494H424.308V158.455H423.336V167.455ZM424.325 161.727C424.325 160.261 424.973 159.273 426.2 159.273C427.479 159.273 428.109 160.347 428.109 161.727C428.109 163.125 427.461 164.233 426.2 164.233C424.99 164.233 424.325 163.21 424.325 161.727ZM430.649 167.455H431.655V163.994H431.74C431.961 164.352 432.388 165.136 433.649 165.136C435.285 165.136 436.427 163.824 436.427 161.744C436.427 159.682 435.285 158.369 433.632 158.369C432.354 158.369 431.961 159.153 431.74 159.494H431.621V158.455H430.649V167.455ZM431.638 161.727C431.638 160.261 432.285 159.273 433.513 159.273C434.791 159.273 435.422 160.347 435.422 161.727C435.422 163.125 434.774 164.233 433.513 164.233C432.302 164.233 431.638 163.21 431.638 161.727ZM441.473 165H442.53V161.812H444.439C446.471 161.812 447.388 160.577 447.388 159.034C447.388 157.491 446.471 156.273 444.422 156.273H441.473V165ZM442.53 160.875V157.21H444.388C445.807 157.21 446.348 157.986 446.348 159.034C446.348 160.082 445.807 160.875 444.405 160.875H442.53ZM448.954 165H449.959V160.858C449.959 159.972 450.658 159.324 451.613 159.324C451.881 159.324 452.158 159.375 452.226 159.392V158.369C452.111 158.361 451.847 158.352 451.698 158.352C450.914 158.352 450.232 158.795 449.993 159.443H449.925V158.455H448.954V165ZM455.878 165.136C457.651 165.136 458.844 163.79 458.844 161.761C458.844 159.716 457.651 158.369 455.878 158.369C454.106 158.369 452.912 159.716 452.912 161.761C452.912 163.79 454.106 165.136 455.878 165.136ZM455.878 164.233C454.532 164.233 453.918 163.074 453.918 161.761C453.918 160.449 454.532 159.273 455.878 159.273C457.225 159.273 457.839 160.449 457.839 161.761C457.839 163.074 457.225 164.233 455.878 164.233ZM460.379 158.455V165.477C460.379 166.142 460.107 166.517 459.493 166.517H459.306V167.455H459.51C460.771 167.455 461.385 166.688 461.385 165.477V158.455H460.379ZM460.874 157.364C461.266 157.364 461.59 157.057 461.59 156.682C461.59 156.307 461.266 156 460.874 156C460.482 156 460.158 156.307 460.158 156.682C460.158 157.057 460.482 157.364 460.874 157.364ZM465.971 165.136C467.301 165.136 468.273 164.472 468.579 163.483L467.608 163.21C467.352 163.892 466.76 164.233 465.971 164.233C464.791 164.233 463.977 163.47 463.93 162.068H468.682V161.642C468.682 159.205 467.233 158.369 465.869 158.369C464.096 158.369 462.92 159.767 462.92 161.778C462.92 163.79 464.079 165.136 465.971 165.136ZM463.93 161.199C463.998 160.18 464.719 159.273 465.869 159.273C466.96 159.273 467.659 160.091 467.659 161.199H463.93ZM472.871 165.136C474.319 165.136 475.274 164.25 475.444 163.091H474.439C474.251 163.807 473.655 164.233 472.871 164.233C471.677 164.233 470.91 163.244 470.91 161.727C470.91 160.244 471.694 159.273 472.871 159.273C473.757 159.273 474.285 159.818 474.439 160.415H475.444C475.274 159.188 474.234 158.369 472.854 158.369C471.081 158.369 469.905 159.767 469.905 161.761C469.905 163.722 471.03 165.136 472.871 165.136ZM479.761 158.455H478.363V156.886H477.358V158.455H476.369V159.307H477.358V163.398C477.358 164.54 478.278 165.085 479.131 165.085C479.506 165.085 479.744 165.017 479.881 164.966L479.676 164.062C479.591 164.08 479.454 164.114 479.233 164.114C478.79 164.114 478.363 163.977 478.363 163.125V159.307H479.761V158.455ZM491.808 159C491.484 157.21 490.052 156.153 488.297 156.153C486.064 156.153 484.444 157.875 484.444 160.636C484.444 163.398 486.064 165.119 488.297 165.119C490.052 165.119 491.484 164.062 491.808 162.273H490.751C490.496 163.483 489.456 164.131 488.297 164.131C486.711 164.131 485.467 162.903 485.467 160.636C485.467 158.369 486.711 157.142 488.297 157.142C489.456 157.142 490.496 157.79 490.751 159H491.808ZM496.039 165.136C497.811 165.136 499.004 163.79 499.004 161.761C499.004 159.716 497.811 158.369 496.039 158.369C494.266 158.369 493.073 159.716 493.073 161.761C493.073 163.79 494.266 165.136 496.039 165.136ZM496.039 164.233C494.692 164.233 494.078 163.074 494.078 161.761C494.078 160.449 494.692 159.273 496.039 159.273C497.385 159.273 497.999 160.449 497.999 161.761C497.999 163.074 497.385 164.233 496.039 164.233ZM501.545 156.273H500.54V165H501.545V156.273ZM504.393 156.273H503.387V165H504.393V156.273ZM508.979 165.136C510.309 165.136 511.28 164.472 511.587 163.483L510.616 163.21C510.36 163.892 509.768 164.233 508.979 164.233C507.799 164.233 506.985 163.47 506.938 162.068H511.689V161.642C511.689 159.205 510.241 158.369 508.877 158.369C507.104 158.369 505.928 159.767 505.928 161.778C505.928 163.79 507.087 165.136 508.979 165.136ZM506.938 161.199C507.006 160.18 507.726 159.273 508.877 159.273C509.968 159.273 510.667 160.091 510.667 161.199H506.938ZM515.861 167.591C517.43 167.591 518.691 166.875 518.691 165.188V158.455H517.719V159.494H517.617C517.395 159.153 516.986 158.369 515.708 158.369C514.055 158.369 512.912 159.682 512.912 161.693C512.912 163.739 514.106 164.898 515.691 164.898C516.969 164.898 517.378 164.148 517.6 163.79H517.685V165.119C517.685 166.21 516.918 166.705 515.861 166.705C514.672 166.705 514.255 166.078 513.986 165.716L513.185 166.278C513.594 166.964 514.4 167.591 515.861 167.591ZM515.827 163.994C514.566 163.994 513.918 163.04 513.918 161.676C513.918 160.347 514.549 159.273 515.827 159.273C517.055 159.273 517.702 160.261 517.702 161.676C517.702 163.125 517.037 163.994 515.827 163.994ZM523.276 165.136C524.606 165.136 525.577 164.472 525.884 163.483L524.912 163.21C524.657 163.892 524.064 164.233 523.276 164.233C522.096 164.233 521.282 163.47 521.235 162.068H525.986V161.642C525.986 159.205 524.537 158.369 523.174 158.369C521.401 158.369 520.225 159.767 520.225 161.778C520.225 163.79 521.384 165.136 523.276 165.136ZM521.235 161.199C521.303 160.18 522.023 159.273 523.174 159.273C524.265 159.273 524.964 160.091 524.964 161.199H521.235ZM437.599 180H443.104V179.062H439.048V178.994L441.008 176.898C442.508 175.291 442.951 174.541 442.951 173.574C442.951 172.227 441.86 171.153 440.326 171.153C438.796 171.153 437.633 172.193 437.633 173.727H438.638C438.638 172.734 439.282 172.074 440.292 172.074C441.238 172.074 441.962 172.653 441.962 173.574C441.962 174.379 441.489 174.976 440.479 176.08L437.599 179.233V180ZM447.711 180.119C449.637 180.119 450.745 178.487 450.745 175.636C450.745 172.807 449.62 171.153 447.711 171.153C445.802 171.153 444.677 172.807 444.677 175.636C444.677 178.487 445.785 180.119 447.711 180.119ZM447.711 179.182C446.441 179.182 445.7 177.908 445.7 175.636C445.7 173.369 446.45 172.074 447.711 172.074C448.972 172.074 449.722 173.369 449.722 175.636C449.722 177.908 448.981 179.182 447.711 179.182ZM452.364 180H457.87V179.062H453.813V178.994L455.773 176.898C457.273 175.291 457.717 174.541 457.717 173.574C457.717 172.227 456.626 171.153 455.092 171.153C453.562 171.153 452.398 172.193 452.398 173.727H453.404C453.404 172.734 454.048 172.074 455.058 172.074C456.004 172.074 456.728 172.653 456.728 173.574C456.728 174.379 456.255 174.976 455.245 176.08L452.364 179.233V180ZM462.698 171.273H461.641L459.46 172.722V173.795L461.59 172.381H461.641V180H462.698V171.273Z" fill="#7C7C7C"/>
<path d="M163.603 132.125H166.103C165.784 129.824 163.756 128.205 161.125 128.205C158.051 128.205 155.682 130.42 155.682 134.193C155.682 137.875 157.898 140.159 161.176 140.159C164.114 140.159 166.21 138.301 166.21 135.239V133.773H161.341V135.625H163.841C163.807 137.068 162.824 137.983 161.188 137.983C159.341 137.983 158.176 136.602 158.176 134.17C158.176 131.75 159.387 130.381 161.165 130.381C162.432 130.381 163.29 131.034 163.603 132.125ZM168.037 140H170.457V135.062C170.457 133.989 171.242 133.25 172.31 133.25C172.645 133.25 173.105 133.307 173.332 133.381V131.233C173.117 131.182 172.815 131.148 172.571 131.148C171.594 131.148 170.793 131.716 170.475 132.795H170.384V131.273H168.037V140ZM176.847 140.165C178.136 140.165 178.972 139.602 179.398 138.79H179.466V140H181.761V134.114C181.761 132.034 180 131.159 178.057 131.159C175.966 131.159 174.591 132.159 174.256 133.75L176.494 133.932C176.659 133.352 177.176 132.926 178.045 132.926C178.869 132.926 179.341 133.341 179.341 134.057V134.091C179.341 134.653 178.744 134.727 177.227 134.875C175.5 135.034 173.949 135.614 173.949 137.562C173.949 139.29 175.182 140.165 176.847 140.165ZM177.54 138.494C176.795 138.494 176.261 138.148 176.261 137.483C176.261 136.801 176.824 136.466 177.676 136.347C178.205 136.273 179.068 136.148 179.358 135.955V136.881C179.358 137.795 178.602 138.494 177.54 138.494ZM183.663 143.273H186.084V138.602H186.157C186.493 139.33 187.226 140.142 188.635 140.142C190.623 140.142 192.175 138.568 192.175 135.648C192.175 132.648 190.555 131.159 188.64 131.159C187.18 131.159 186.481 132.028 186.157 132.739H186.05V131.273H183.663V143.273ZM186.032 135.636C186.032 134.08 186.692 133.085 187.868 133.085C189.067 133.085 189.703 134.125 189.703 135.636C189.703 137.159 189.055 138.216 187.868 138.216C186.703 138.216 186.032 137.193 186.032 135.636ZM196.233 134.955C196.238 133.83 196.926 133.17 197.914 133.17C198.897 133.17 199.477 133.801 199.471 134.875V140H201.892V134.443C201.897 132.398 200.693 131.159 198.875 131.159C197.551 131.159 196.664 131.784 196.267 132.812H196.164V128.364H193.812V140H196.233V134.955ZM203.821 140H206.241V131.273H203.821V140ZM205.036 130.148C205.758 130.148 206.349 129.597 206.349 128.92C206.349 128.25 205.758 127.699 205.036 127.699C204.321 127.699 203.73 128.25 203.73 128.92C203.73 129.597 204.321 130.148 205.036 130.148ZM212.147 140.17C214.471 140.17 215.931 138.807 216.045 136.801H213.761C213.619 137.733 213.005 138.256 212.176 138.256C211.045 138.256 210.312 137.307 210.312 135.636C210.312 133.989 211.051 133.045 212.176 133.045C213.062 133.045 213.63 133.631 213.761 134.5H216.045C215.943 132.483 214.414 131.159 212.136 131.159C209.488 131.159 207.852 132.994 207.852 135.67C207.852 138.324 209.46 140.17 212.147 140.17ZM225.516 140C229.062 140 231.209 137.807 231.209 134.17C231.209 130.545 229.062 128.364 225.55 128.364H221.391V140H225.516ZM223.851 137.892V130.472H225.42C227.601 130.472 228.755 131.585 228.755 134.17C228.755 136.767 227.601 137.892 225.414 137.892H223.851ZM236.988 140.17C239.147 140.17 240.601 139.119 240.942 137.5L238.703 137.352C238.459 138.017 237.834 138.364 237.027 138.364C235.817 138.364 235.05 137.562 235.05 136.261V136.256H240.993V135.591C240.993 132.625 239.198 131.159 236.891 131.159C234.323 131.159 232.658 132.983 232.658 135.676C232.658 138.443 234.3 140.17 236.988 140.17ZM235.05 134.756C235.101 133.761 235.857 132.966 236.931 132.966C237.982 132.966 238.709 133.716 238.715 134.756H235.05ZM249.858 133.761C249.642 132.153 248.347 131.159 246.142 131.159C243.909 131.159 242.438 132.193 242.443 133.875C242.438 135.182 243.262 136.028 244.966 136.369L246.477 136.67C247.239 136.824 247.585 137.102 247.597 137.54C247.585 138.057 247.023 138.426 246.176 138.426C245.313 138.426 244.739 138.057 244.591 137.347L242.21 137.472C242.438 139.142 243.858 140.17 246.171 140.17C248.432 140.17 250.051 139.017 250.057 137.295C250.051 136.034 249.227 135.278 247.534 134.932L245.955 134.614C245.142 134.438 244.841 134.159 244.847 133.739C244.841 133.216 245.432 132.875 246.182 132.875C247.023 132.875 247.523 133.335 247.642 133.898L249.858 133.761ZM251.605 140H254.026V131.273H251.605V140ZM252.821 130.148C253.543 130.148 254.134 129.597 254.134 128.92C254.134 128.25 253.543 127.699 252.821 127.699C252.105 127.699 251.514 128.25 251.514 128.92C251.514 129.597 252.105 130.148 252.821 130.148ZM259.92 143.455C262.415 143.455 264.187 142.318 264.187 140.085V131.273H261.784V132.739H261.693C261.369 132.028 260.659 131.159 259.199 131.159C257.284 131.159 255.665 132.648 255.665 135.619C255.665 138.523 257.239 139.875 259.204 139.875C260.596 139.875 261.375 139.176 261.693 138.455H261.795V140.051C261.795 141.25 261.028 141.716 259.977 141.716C258.909 141.716 258.369 141.25 258.17 140.722L255.932 141.023C256.221 142.398 257.568 143.455 259.92 143.455ZM259.971 138.057C258.784 138.057 258.136 137.114 258.136 135.608C258.136 134.125 258.773 133.085 259.971 133.085C261.148 133.085 261.807 134.08 261.807 135.608C261.807 137.148 261.136 138.057 259.971 138.057ZM268.558 134.955C268.564 133.83 269.234 133.17 270.211 133.17C271.183 133.17 271.768 133.807 271.763 134.875V140H274.183V134.443C274.183 132.409 272.99 131.159 271.172 131.159C269.876 131.159 268.939 131.795 268.547 132.812H268.444V131.273H266.138V140H268.558V134.955Z" fill="#204174"/>
<path d="M133.457 165H138.571V164.062H134.514V156.273H133.457V165ZM141.997 165.153C143.139 165.153 143.736 164.54 143.94 164.114H143.991V165H144.997V160.688C144.997 158.608 143.412 158.369 142.577 158.369C141.588 158.369 140.463 158.71 139.952 159.903L140.906 160.244C141.128 159.767 141.652 159.256 142.611 159.256C143.535 159.256 143.991 159.746 143.991 160.585V160.619C143.991 161.105 143.497 161.062 142.304 161.216C141.089 161.374 139.764 161.642 139.764 163.142C139.764 164.42 140.753 165.153 141.997 165.153ZM142.15 164.25C141.349 164.25 140.77 163.892 140.77 163.193C140.77 162.426 141.469 162.188 142.253 162.085C142.679 162.034 143.821 161.915 143.991 161.71V162.631C143.991 163.449 143.344 164.25 142.15 164.25ZM150.958 162.324C150.958 163.551 150.02 164.114 149.27 164.114C148.435 164.114 147.838 163.5 147.838 162.545V158.455H146.833V162.614C146.833 164.284 147.719 165.085 148.946 165.085C149.935 165.085 150.583 164.557 150.889 163.892H150.958V165H151.963V158.455H150.958V162.324ZM154.811 161.062C154.811 159.92 155.518 159.273 156.481 159.273C157.415 159.273 157.981 159.882 157.981 160.909V165H158.987V160.841C158.987 159.17 158.096 158.369 156.771 158.369C155.782 158.369 155.169 158.812 154.862 159.477H154.777V158.455H153.805V165H154.811V161.062ZM163.296 165.136C164.558 165.136 164.984 164.352 165.205 163.994H165.325V165H166.296V156.273H165.291V159.494H165.205C164.984 159.153 164.592 158.369 163.313 158.369C161.66 158.369 160.518 159.682 160.518 161.744C160.518 163.824 161.66 165.136 163.296 165.136ZM163.433 164.233C162.171 164.233 161.524 163.125 161.524 161.727C161.524 160.347 162.154 159.273 163.433 159.273C164.66 159.273 165.308 160.261 165.308 161.727C165.308 163.21 164.643 164.233 163.433 164.233ZM168.278 165H169.284V160.858C169.284 159.972 169.982 159.324 170.937 159.324C171.205 159.324 171.482 159.375 171.551 159.392V158.369C171.436 158.361 171.171 158.352 171.022 158.352C170.238 158.352 169.556 158.795 169.318 159.443H169.249V158.455H168.278V165ZM173.59 167.455C174.497 167.455 175.137 166.973 175.516 165.955L178.303 158.472L177.203 158.455L175.396 163.67H175.328L173.521 158.455H172.431L174.851 165.034L174.664 165.545C174.297 166.543 173.845 166.636 173.112 166.449L172.857 167.335C172.959 167.386 173.249 167.455 173.59 167.455ZM187.917 158.455H188.94C188.893 157.138 187.679 156.153 185.991 156.153C184.321 156.153 183.008 157.125 183.008 158.591C183.008 159.767 183.861 160.466 185.224 160.858L186.298 161.165C187.219 161.42 188.037 161.744 188.037 162.614C188.037 163.568 187.116 164.199 185.906 164.199C184.866 164.199 183.946 163.739 183.861 162.75H182.77C182.872 164.182 184.031 165.153 185.906 165.153C187.917 165.153 189.059 164.045 189.059 162.631C189.059 160.994 187.508 160.466 186.605 160.227L185.719 159.989C185.071 159.818 184.031 159.477 184.031 158.54C184.031 157.705 184.798 157.091 185.957 157.091C187.014 157.091 187.815 157.594 187.917 158.455ZM191.666 161.062C191.666 159.92 192.395 159.273 193.388 159.273C194.334 159.273 194.905 159.869 194.905 160.909V165H195.911V160.841C195.911 159.158 195.016 158.369 193.678 158.369C192.646 158.369 192.058 158.8 191.752 159.477H191.666V156.273H190.661V165H191.666V161.062ZM200.41 165.136C202.182 165.136 203.376 163.79 203.376 161.761C203.376 159.716 202.182 158.369 200.41 158.369C198.637 158.369 197.444 159.716 197.444 161.761C197.444 163.79 198.637 165.136 200.41 165.136ZM200.41 164.233C199.063 164.233 198.449 163.074 198.449 161.761C198.449 160.449 199.063 159.273 200.41 159.273C201.756 159.273 202.37 160.449 202.37 161.761C202.37 163.074 201.756 164.233 200.41 164.233ZM207.655 165.136C208.985 165.136 209.956 164.472 210.263 163.483L209.291 163.21C209.036 163.892 208.443 164.233 207.655 164.233C206.475 164.233 205.661 163.47 205.614 162.068H210.365V161.642C210.365 159.205 208.916 158.369 207.553 158.369C205.78 158.369 204.604 159.767 204.604 161.778C204.604 163.79 205.763 165.136 207.655 165.136ZM205.614 161.199C205.682 160.18 206.402 159.273 207.553 159.273C208.644 159.273 209.343 160.091 209.343 161.199H205.614ZM216.531 159.92C216.216 158.991 215.509 158.369 214.213 158.369C212.833 158.369 211.81 159.153 211.81 160.261C211.81 161.165 212.347 161.77 213.548 162.051L214.639 162.307C215.3 162.46 215.611 162.776 215.611 163.227C215.611 163.79 215.014 164.25 214.077 164.25C213.254 164.25 212.739 163.896 212.56 163.193L211.605 163.432C211.84 164.544 212.756 165.136 214.094 165.136C215.615 165.136 216.651 164.305 216.651 163.176C216.651 162.264 216.08 161.689 214.912 161.403L213.941 161.165C213.165 160.973 212.816 160.713 212.816 160.21C212.816 159.648 213.412 159.239 214.213 159.239C215.091 159.239 215.453 159.724 215.628 160.176L216.531 159.92ZM221.676 165H222.733V162.17L223.824 160.943L226.858 165H228.136L224.471 160.21L228.136 156.273H226.756L222.835 160.602H222.733V156.273H221.676V165ZM229.778 165H230.784V158.455H229.778V165ZM230.289 157.364C230.681 157.364 231.005 157.057 231.005 156.682C231.005 156.307 230.681 156 230.289 156C229.897 156 229.573 156.307 229.573 156.682C229.573 157.057 229.897 157.364 230.289 157.364ZM235.285 165.136C236.733 165.136 237.688 164.25 237.858 163.091H236.853C236.665 163.807 236.069 164.233 235.285 164.233C234.091 164.233 233.324 163.244 233.324 161.727C233.324 160.244 234.108 159.273 235.285 159.273C236.171 159.273 236.699 159.818 236.853 160.415H237.858C237.688 159.188 236.648 158.369 235.268 158.369C233.495 158.369 232.319 159.767 232.319 161.761C232.319 163.722 233.444 165.136 235.285 165.136ZM239.329 165H240.334V162.55L241.037 161.898L243.488 165H244.766L241.796 161.25L244.562 158.455H243.317L240.454 161.369H240.334V156.273H239.329V165ZM250.492 159.92C250.177 158.991 249.47 158.369 248.174 158.369C246.794 158.369 245.771 159.153 245.771 160.261C245.771 161.165 246.308 161.77 247.509 162.051L248.6 162.307C249.261 162.46 249.572 162.776 249.572 163.227C249.572 163.79 248.975 164.25 248.038 164.25C247.215 164.25 246.7 163.896 246.521 163.193L245.566 163.432C245.801 164.544 246.717 165.136 248.055 165.136C249.576 165.136 250.612 164.305 250.612 163.176C250.612 162.264 250.041 161.689 248.873 161.403L247.901 161.165C247.126 160.973 246.776 160.713 246.776 160.21C246.776 159.648 247.373 159.239 248.174 159.239C249.052 159.239 249.414 159.724 249.589 160.176L250.492 159.92ZM260.41 158.455H261.432C261.385 157.138 260.171 156.153 258.483 156.153C256.813 156.153 255.501 157.125 255.501 158.591C255.501 159.767 256.353 160.466 257.716 160.858L258.79 161.165C259.711 161.42 260.529 161.744 260.529 162.614C260.529 163.568 259.608 164.199 258.398 164.199C257.358 164.199 256.438 163.739 256.353 162.75H255.262C255.364 164.182 256.523 165.153 258.398 165.153C260.41 165.153 261.552 164.045 261.552 162.631C261.552 160.994 260.001 160.466 259.097 160.227L258.211 159.989C257.563 159.818 256.523 159.477 256.523 158.54C256.523 157.705 257.29 157.091 258.449 157.091C259.506 157.091 260.307 157.594 260.41 158.455ZM265.812 165.136C267.585 165.136 268.778 163.79 268.778 161.761C268.778 159.716 267.585 158.369 265.812 158.369C264.039 158.369 262.846 159.716 262.846 161.761C262.846 163.79 264.039 165.136 265.812 165.136ZM265.812 164.233C264.465 164.233 263.852 163.074 263.852 161.761C263.852 160.449 264.465 159.273 265.812 159.273C267.159 159.273 267.772 160.449 267.772 161.761C267.772 163.074 267.159 164.233 265.812 164.233ZM271.319 156.273H270.313V165H271.319V156.273ZM277.286 162.324C277.286 163.551 276.348 164.114 275.598 164.114C274.763 164.114 274.166 163.5 274.166 162.545V158.455H273.161V162.614C273.161 164.284 274.047 165.085 275.274 165.085C276.263 165.085 276.911 164.557 277.218 163.892H277.286V165H278.291V158.455H277.286V162.324ZM282.98 158.455H281.582V156.886H280.577V158.455H279.588V159.307H280.577V163.398C280.577 164.54 281.497 165.085 282.349 165.085C282.724 165.085 282.963 165.017 283.099 164.966L282.895 164.062C282.809 164.08 282.673 164.114 282.452 164.114C282.008 164.114 281.582 163.977 281.582 163.125V159.307H282.98V158.455ZM284.493 165H285.498V158.455H284.493V165ZM285.004 157.364C285.396 157.364 285.72 157.057 285.72 156.682C285.72 156.307 285.396 156 285.004 156C284.612 156 284.288 156.307 284.288 156.682C284.288 157.057 284.612 157.364 285.004 157.364ZM289.999 165.136C291.772 165.136 292.965 163.79 292.965 161.761C292.965 159.716 291.772 158.369 289.999 158.369C288.227 158.369 287.034 159.716 287.034 161.761C287.034 163.79 288.227 165.136 289.999 165.136ZM289.999 164.233C288.653 164.233 288.039 163.074 288.039 161.761C288.039 160.449 288.653 159.273 289.999 159.273C291.346 159.273 291.96 160.449 291.96 161.761C291.96 163.074 291.346 164.233 289.999 164.233ZM295.506 161.062C295.506 159.92 296.214 159.273 297.177 159.273C298.11 159.273 298.677 159.882 298.677 160.909V165H299.682V160.841C299.682 159.17 298.792 158.369 297.466 158.369C296.478 158.369 295.864 158.812 295.557 159.477H295.472V158.455H294.501V165H295.506V161.062ZM183.642 180H189.147V179.062H185.091V178.994L187.051 176.898C188.551 175.291 188.994 174.541 188.994 173.574C188.994 172.227 187.903 171.153 186.369 171.153C184.839 171.153 183.676 172.193 183.676 173.727H184.681C184.681 172.734 185.325 172.074 186.335 172.074C187.281 172.074 188.005 172.653 188.005 173.574C188.005 174.379 187.532 174.976 186.522 176.08L183.642 179.233V180ZM193.754 180.119C195.68 180.119 196.788 178.487 196.788 175.636C196.788 172.807 195.663 171.153 193.754 171.153C191.845 171.153 190.72 172.807 190.72 175.636C190.72 178.487 191.828 180.119 193.754 180.119ZM193.754 179.182C192.484 179.182 191.743 177.908 191.743 175.636C191.743 173.369 192.493 172.074 193.754 172.074C195.015 172.074 195.765 173.369 195.765 175.636C195.765 177.908 195.024 179.182 193.754 179.182ZM198.407 180H203.913V179.062H199.856V178.994L201.816 176.898C203.316 175.291 203.76 174.541 203.76 173.574C203.76 172.227 202.669 171.153 201.135 171.153C199.605 171.153 198.441 172.193 198.441 173.727H199.447C199.447 172.734 200.091 172.074 201.1 172.074C202.047 172.074 202.771 172.653 202.771 173.574C202.771 174.379 202.298 174.976 201.288 176.08L198.407 179.233V180ZM208.52 180.119C210.446 180.119 211.554 178.487 211.554 175.636C211.554 172.807 210.429 171.153 208.52 171.153C206.61 171.153 205.485 172.807 205.485 175.636C205.485 178.487 206.593 180.119 208.52 180.119ZM208.52 179.182C207.25 179.182 206.508 177.908 206.508 175.636C206.508 173.369 207.258 172.074 208.52 172.074C209.781 172.074 210.531 173.369 210.531 175.636C210.531 177.908 209.789 179.182 208.52 179.182ZM220.315 175.168H216.497V176.105H220.315V175.168ZM232.516 171.273H231.477V178.142H231.391L226.619 171.273H225.596V180H226.653V173.148H226.738L231.494 180H232.516V171.273ZM237.154 180.136C238.926 180.136 240.12 178.79 240.12 176.761C240.12 174.716 238.926 173.369 237.154 173.369C235.381 173.369 234.188 174.716 234.188 176.761C234.188 178.79 235.381 180.136 237.154 180.136ZM237.154 179.233C235.807 179.233 235.194 178.074 235.194 176.761C235.194 175.449 235.807 174.273 237.154 174.273C238.5 174.273 239.114 175.449 239.114 176.761C239.114 178.074 238.5 179.233 237.154 179.233ZM242.915 180H243.904L245.336 174.972H245.438L246.87 180H247.858L249.853 173.455H248.796L247.381 178.449H247.313L245.932 173.455H244.858L243.461 178.466H243.392L241.978 173.455H240.921L242.915 180Z" fill="#7C7C7C"/>
</svg>
