<svg width="44" height="44" viewBox="0 0 44 44" fill="none" xmlns="http://www.w3.org/2000/svg">
<rect x="0.780029" y="0.780029" width="42.6049" height="42.6049" rx="3" fill="#333333"/>
<g clip-path="url(#clip0)">
<path d="M27.253 27.253C30.1086 27.253 32.4235 24.9381 32.4235 22.0825C32.4235 19.2269 30.1086 16.912 27.253 16.912C24.3974 16.912 22.0825 19.2269 22.0825 22.0825C22.0825 24.9381 24.3974 27.253 27.253 27.253Z" fill="#19BCFE"/>
<path fill-rule="evenodd" clip-rule="evenodd" d="M16.9121 37.594C18.2834 37.594 19.5985 37.0493 20.5682 36.0796C21.5378 35.11 22.0826 33.7948 22.0826 32.4235V27.2531H16.9121C15.5408 27.2531 14.2256 27.7978 13.256 28.7675C12.2863 29.7371 11.7416 31.0522 11.7416 32.4235C11.7416 33.7948 12.2863 35.11 13.256 36.0796C14.2256 37.0493 15.5408 37.594 16.9121 37.594Z" fill="#09CF83"/>
<path fill-rule="evenodd" clip-rule="evenodd" d="M16.9121 27.253H22.0826V16.912H16.9121C15.5408 16.912 14.2256 17.4567 13.256 18.4264C12.2863 19.396 11.7416 20.7112 11.7416 22.0825C11.7416 23.4538 12.2863 24.7689 13.256 25.7386C14.2256 26.7082 15.5408 27.253 16.9121 27.253Z" fill="#A259FF"/>
<path fill-rule="evenodd" clip-rule="evenodd" d="M16.9121 16.912H22.0826V6.57104H16.9121C15.5408 6.57104 14.2256 7.11579 13.256 8.08545C12.2863 9.0551 11.7416 10.3702 11.7416 11.7415C11.7416 13.1128 12.2863 14.428 13.256 15.3976C14.2256 16.3673 15.5408 16.912 16.9121 16.912Z" fill="#F24E1E"/>
<path fill-rule="evenodd" clip-rule="evenodd" d="M27.253 16.912H22.0825V6.57104H27.253C28.6243 6.57104 29.9394 7.11579 30.9091 8.08545C31.8788 9.0551 32.4235 10.3702 32.4235 11.7415C32.4235 13.1128 31.8788 14.428 30.9091 15.3976C29.9394 16.3673 28.6243 16.912 27.253 16.912Z" fill="#FF7262"/>
</g>
<defs>
<clipPath id="clip0">
<rect width="31.023" height="31.023" fill="white" transform="translate(6.57104 6.57104)"/>
</clipPath>
</defs>
</svg>
