<svg width="43" height="43" viewBox="0 0 43 43" fill="none" xmlns="http://www.w3.org/2000/svg">
<g clip-path="url(#clip0)">
<rect x="0.300049" y="2.99792" width="42.14" height="37.7042" fill="#460026"/>
<path d="M0.300049 1.30798V42.3905H42.44V1.30798H0.300049ZM2.05544 3.06469H40.6833V40.6365H2.05544V3.06469ZM15.7035 29.7867C15.7035 29.9566 15.6772 30.0119 15.4783 30.0119H12.7748C12.6049 30.0119 12.5496 29.9316 12.5496 29.7867V10.9304C12.5496 10.7605 12.6299 10.6973 12.7748 10.6973H15.5047C15.6482 10.6973 15.7035 10.7605 15.7035 10.9041V29.7867ZM18.8193 22.9824C18.8193 18.7842 21.5834 15.5131 26.0199 15.5131C26.39 15.5131 26.598 15.5131 26.947 15.5329V10.8764C26.9459 10.8534 26.9495 10.8304 26.9576 10.8088C26.9656 10.7872 26.978 10.7674 26.9938 10.7507C27.0097 10.734 27.0288 10.7206 27.0499 10.7114C27.0711 10.7023 27.0938 10.6975 27.1169 10.6973H29.9706C30.122 10.6973 30.1497 10.7605 30.1497 10.8487V27.2768C30.1497 27.7627 30.1497 28.3737 30.2392 29.0401C30.2392 29.1559 30.2036 29.1836 30.0878 29.2455C28.6478 29.9307 27.0734 30.287 25.4787 30.2885C21.59 30.2885 18.8114 27.8812 18.8114 22.9838L18.8193 22.9824ZM26.947 18.3786C26.685 18.2628 26.336 18.2009 25.9041 18.2009C23.6482 18.2009 22.064 19.9352 22.064 22.8363C22.064 26.1429 23.6746 27.473 25.7052 27.473C26.1371 27.473 26.602 27.419 26.947 27.2675V18.3786Z" fill="#EF5DA8"/>
</g>
<defs>
<clipPath id="clip0">
<rect width="42.14" height="42.14" fill="white" transform="translate(0.300049 0.780029)"/>
</clipPath>
</defs>
</svg>
