<svg width="47" height="52" viewBox="0 0 47 52" fill="none" xmlns="http://www.w3.org/2000/svg">
<path d="M23.8463 51.0417C37.0163 51.0417 47.342 39.2059 46.9913 25.151C47.0034 24.6533 47.0028 24.1601 46.9898 23.6715H34.7175L36.4709 28.8496H40.3284C37.8736 44.0142 28.0545 44.7539 23.145 44.7539C5.6109 43.6443 4.20818 23.6715 8.76704 15.1646C13.6886 5.98081 22.7282 4.69404 29.375 6.99766L27.1441 0H19.8624C8.58892 2.02919 0 12.8788 0 25.5208C0 39.6156 9.4684 51.0417 23.8463 51.0417Z" fill="#3062AE"/>
<path d="M20.0114 0.0236511L2.80548 51.0417H9.46843C9.74898 49.4142 18.9368 22.3153 23.4957 9.24667L37.523 51.0417H44.1859L27.025 0.0236511H20.0114Z" fill="#204174"/>
</svg>
