<svg width="43" height="43" viewBox="0 0 43 43" fill="none" xmlns="http://www.w3.org/2000/svg">
<g clip-path="url(#clip0)">
<rect x="0.580078" y="2.11584" width="42.14" height="38.6283" fill="#2A0351"/>
<path d="M0.580078 0.888062V41.9719H42.7201V0.888062H0.580078ZM2.33547 2.64346H40.9634V40.2152H2.33547V2.64346ZM11.6366 10.5039C11.6366 10.3867 11.6642 10.2985 11.8143 10.2985C13.3178 10.2372 14.8225 10.2095 16.3273 10.2155C21.1971 10.2155 23.3093 12.8835 23.3093 16.2994C23.3093 20.7571 20.0856 22.6718 16.1139 22.6718C15.4489 22.6718 15.2158 22.6442 14.7497 22.6442V29.3931C14.7497 29.5367 14.6943 29.592 14.5508 29.592H11.842C11.6906 29.592 11.6366 29.5367 11.6366 29.3931V10.5039ZM14.7497 19.8313C15.1618 19.859 15.4766 19.859 16.1758 19.859C18.2262 19.859 20.1541 19.1386 20.1541 16.3548C20.1541 14.1253 18.7819 12.9941 16.43 12.9941C15.7373 12.9941 15.0723 13.0283 14.7497 13.056V19.8313ZM25.9918 18.2405C25.9918 18.0351 25.9918 17.5136 25.9023 16.5325C25.9023 16.389 25.9233 16.3548 26.0392 16.2994C28.0885 15.511 30.2634 15.0997 32.459 15.0853C32.6025 15.0853 32.6644 15.1129 32.6644 15.2565V17.8086C32.6644 17.9521 32.617 17.9798 32.4722 17.9798C31.3537 17.91 30.2315 18.0284 29.1523 18.3301V29.3931C29.1523 29.5367 29.0904 29.592 28.9469 29.592H26.1893C26.0458 29.592 25.9905 29.5367 25.9905 29.3931L25.9918 18.2405Z" fill="#DF8AFF"/>
</g>
<defs>
<clipPath id="clip0">
<rect width="42.14" height="42.14" fill="white" transform="translate(0.580078 0.359985)"/>
</clipPath>
</defs>
</svg>
