<svg width="351" height="255" viewBox="0 0 351 255" fill="none" xmlns="http://www.w3.org/2000/svg">
<rect x="109.928" y="60.4181" width="32.0153" height="32.0153" transform="rotate(75 109.928 60.4181)" stroke="#204174" stroke-width="2"/>
<circle cx="279.351" cy="46.5" r="7.75" stroke="#3062AE" stroke-width="1.5"/>
<path fill-rule="evenodd" clip-rule="evenodd" d="M118.323 244.69C125.674 244.712 132.818 244.952 140.19 244.975C170.158 245.071 200.402 244.932 230.479 243.774C238.98 243.446 241.102 243.455 249.566 242.947C254.563 242.93 269.575 242.536 268.824 236.048C268.491 223.964 265.352 211.931 264.364 199.881C262.467 177.226 260.851 153.862 251.323 132.673C249.118 127.612 244.382 124.303 239.693 121.327C234.991 118.118 233.836 114.552 229.497 110.927C228.579 110.16 223.368 109.848 220.565 107.902C216.484 105.072 214.46 100.436 212.937 99.6475C211.817 99.0672 211.838 95.061 209.593 93.6442C206.579 91.7414 196.977 90.3265 193.484 90.0622C190.13 89.8079 184.298 90.3414 181.152 91.5119C175.905 93.4633 173.813 97.1863 171.502 101.982C140.978 110.975 113.077 126.201 104.412 156.914C96.9401 182.673 96.6663 210.288 99.5529 236.707C100.13 238.638 99.7256 241.667 101.477 242.947C95.3901 243.279 117.497 244.477 118.323 244.69Z" fill="white"/>
<path fill-rule="evenodd" clip-rule="evenodd" d="M256.996 219.394C256.418 219.119 255.816 218.805 255.156 218.783C254.022 218.745 254.02 217.066 255.156 217.104C256.146 217.136 257.015 217.53 257.886 217.944C258.903 218.426 258.009 219.874 256.996 219.394ZM255.156 172.127C255.929 172.128 256.709 172.222 257.303 172.736C257.656 173.043 257.628 173.614 257.303 173.924C256.954 174.255 256.408 174.229 256.056 173.924C256.171 174.023 256.057 173.925 256.015 173.903C256.005 173.898 256 173.894 255.997 173.892C255.988 173.889 255.98 173.888 255.965 173.884C255.873 173.862 255.782 173.84 255.689 173.825C255.687 173.829 255.492 173.813 255.446 173.811C255.349 173.808 255.253 173.807 255.156 173.807C254.678 173.807 254.274 173.423 254.274 172.967C254.274 172.514 254.679 172.127 255.156 172.127ZM246.863 190.963C246.611 192.018 244.911 191.569 245.164 190.517C245.53 188.988 245.463 187.421 245.164 185.885C244.957 184.828 246.657 184.378 246.863 185.439C247.223 187.281 247.304 189.128 246.863 190.963ZM244.637 130.615C243.323 130.318 242.024 130.282 240.681 130.282C239.544 130.281 239.546 128.603 240.681 128.603C242.18 128.603 243.641 128.665 245.105 128.995C246.211 129.246 245.74 130.864 244.637 130.615ZM240.236 171.516C239.474 171.153 238.711 170.791 237.951 170.428C236.933 169.944 237.827 168.496 238.84 168.978L241.126 170.067C242.142 170.55 241.248 171.998 240.236 171.516ZM239.918 204.584C238.952 205.91 237.594 206.734 235.964 207.146C234.864 207.423 234.399 205.804 235.494 205.527C236.661 205.233 237.697 204.696 238.396 203.736C239.039 202.854 240.567 203.694 239.918 204.584ZM233.825 145.463C233.563 144.998 233.17 144.801 232.681 144.79C231.546 144.765 231.546 143.087 232.681 143.112C233.795 143.136 234.815 143.668 235.347 144.615C235.882 145.569 234.36 146.416 233.825 145.463ZM222.639 156.877C222.323 157.204 221.711 157.196 221.392 156.877C221.197 156.681 221.034 156.463 220.905 156.223C220.856 156.132 220.81 156.039 220.757 155.951C220.733 155.911 220.706 155.873 220.679 155.835C220.669 155.827 220.651 155.808 220.631 155.788C220.292 155.448 220.3 154.944 220.631 154.601C220.947 154.273 221.559 154.282 221.878 154.601C222.072 154.797 222.235 155.016 222.364 155.255C222.413 155.345 222.46 155.438 222.513 155.527C222.537 155.566 222.564 155.604 222.591 155.642C222.601 155.65 222.619 155.669 222.639 155.689C222.978 156.031 222.97 156.534 222.639 156.877ZM221.698 181.671C220.55 182.172 219.291 182.172 218.142 181.671C217.707 181.483 217.604 180.884 217.826 180.523C218.083 180.104 218.599 180.034 219.032 180.221C219.553 180.449 220.288 180.449 220.809 180.221C221.243 180.033 221.754 180.099 222.015 180.523C222.239 180.887 222.132 181.483 221.698 181.671ZM218.566 199.222C218.369 199.667 217.942 199.903 217.444 199.921C216.951 199.939 216.583 199.523 216.562 199.082C216.549 198.797 216.711 198.554 216.943 198.404C216.943 198.388 216.943 198.372 216.943 198.357C216.943 197.886 217.347 197.538 217.825 197.517C218.301 197.497 218.708 197.917 218.707 198.357C218.707 198.653 218.688 198.947 218.566 199.222ZM214.015 227.125C212.609 227.146 211.234 227.466 209.826 227.488C208.689 227.505 208.692 225.826 209.826 225.808C211.234 225.787 212.608 225.468 214.015 225.446C215.153 225.428 215.15 227.107 214.015 227.125ZM208.164 119.518C207.341 120.265 206.322 120.633 205.319 121.1C204.302 121.573 203.409 120.125 204.429 119.65C205.279 119.255 206.22 118.963 206.917 118.331C207.739 117.585 208.988 118.771 208.164 119.518ZM205.953 138.873C205.375 138.598 204.772 138.283 204.112 138.261C202.979 138.224 202.977 136.545 204.112 136.583C205.102 136.616 205.972 137.009 206.843 137.423C207.859 137.906 206.965 139.354 205.953 138.873ZM195.352 216.553C195.091 216.088 194.696 215.891 194.208 215.881C193.073 215.856 193.073 214.177 194.208 214.202C195.321 214.225 196.343 214.758 196.874 215.705C197.409 216.66 195.887 217.507 195.352 216.553ZM191.68 180.089C191.329 179.783 191.353 179.213 191.68 178.902C192.061 178.54 192.441 178.177 192.822 177.814C193.171 177.482 193.718 177.507 194.069 177.814C194.421 178.121 194.396 178.691 194.069 179.002C193.688 179.364 193.308 179.727 192.927 180.089C192.578 180.422 192.031 180.397 191.68 180.089ZM187.351 236.918C186.079 236.89 184.886 236.542 183.688 236.163C182.616 235.822 183.078 234.201 184.158 234.543C185.198 234.873 186.245 235.214 187.351 235.238C188.486 235.264 188.487 236.942 187.351 236.918ZM181.637 201.01C180.488 200.979 179.534 200.422 178.729 199.676C177.913 198.921 179.161 197.734 179.976 198.488C180.437 198.915 180.969 199.313 181.637 199.33C182.772 199.361 182.773 201.04 181.637 201.01ZM185.185 154.832C185.199 155.279 185.398 155.758 185.689 156.052C186.469 156.838 185.223 158.027 184.443 157.239C183.798 156.59 183.449 155.721 183.422 154.832C183.39 153.749 185.153 153.754 185.185 154.832ZM171.735 118.259C171.365 117.571 170.882 116.765 170.147 116.384C169.147 115.869 170.038 114.419 171.037 114.934C172.036 115.452 172.752 116.47 173.257 117.412C173.774 118.374 172.251 119.223 171.735 118.259ZM169.449 135.723C169.039 135.712 168.634 135.645 168.238 135.543C168.07 135.499 167.903 135.45 167.734 135.406C167.662 135.387 167.355 135.35 167.543 135.36C167.066 135.336 166.662 134.995 166.662 134.52C166.662 134.084 167.067 133.656 167.543 133.681C168.198 133.715 168.793 134.026 169.449 134.043C170.583 134.074 170.584 135.754 169.449 135.723ZM163.734 162.563H161.83C160.693 162.563 160.695 160.884 161.83 160.884H163.734C164.871 160.884 164.869 162.563 163.734 162.563ZM161.512 236.803C160.935 237.079 160.254 237.339 159.786 237.76C158.961 238.503 157.713 237.317 158.539 236.573C159.135 236.037 159.897 235.699 160.622 235.353C161.05 235.15 161.575 235.241 161.829 235.654C162.058 236.028 161.938 236.601 161.512 236.803ZM157.257 215.586C157.183 215.567 157.105 215.553 157.031 215.543C156.731 215.505 156.417 215.518 156.116 215.518C154.98 215.517 154.981 213.838 156.116 213.839C157.01 213.839 157.941 213.851 158.644 214.448C159.001 214.751 158.967 215.328 158.644 215.635C158.294 215.968 157.753 215.937 157.397 215.635C157.435 215.667 157.306 215.6 157.257 215.586ZM156.116 187.052C156.372 186.549 156.376 186.221 156.376 185.662C156.377 184.58 158.141 184.581 158.14 185.662C158.14 186.473 158.013 187.164 157.639 187.899C157.43 188.309 156.819 188.416 156.432 188.2C155.999 187.96 155.908 187.459 156.116 187.052ZM151.017 147.662C149.994 147.993 149.081 148.462 148.18 149.028C147.229 149.626 146.347 148.171 147.29 147.578C148.318 146.932 149.381 146.421 150.548 146.043C151.627 145.694 152.086 147.316 151.017 147.662ZM145.069 119.401C144.309 119.421 143.525 119.699 142.847 120.011C141.83 120.482 140.937 119.034 141.958 118.561C142.925 118.114 143.983 117.751 145.069 117.722C146.206 117.691 146.201 119.371 145.069 119.401ZM142.402 194.844C142.103 194.856 141.848 194.702 141.69 194.482C141.673 194.482 141.657 194.481 141.64 194.481C141.146 194.481 140.78 194.096 140.759 193.642C140.737 193.189 141.179 192.801 141.64 192.801C141.952 192.802 142.261 192.82 142.55 192.937C143.017 193.124 143.265 193.529 143.284 194.004C143.303 194.475 142.865 194.824 142.402 194.844ZM138.066 136.781C136.983 137.118 136.523 135.496 137.597 135.162C138.858 134.769 140.146 134.466 141.407 134.073C142.49 133.737 142.949 135.358 141.875 135.693C140.615 136.085 139.326 136.388 138.066 136.781ZM134.111 168.476C133.775 169.506 132.073 169.063 132.41 168.029C132.736 167.031 132.759 166.025 132.76 164.988C132.76 163.905 134.524 163.907 134.523 164.988C134.523 166.168 134.481 167.338 134.111 168.476ZM122.32 206.437C122.256 206.855 121.907 207.156 121.452 207.176C120.988 207.196 120.553 206.776 120.57 206.336C120.602 205.491 121.326 204.803 122.214 204.772C122.707 204.754 123.075 205.17 123.095 205.611C123.116 206.04 122.74 206.375 122.32 206.437ZM116.353 158.181C115.421 158.477 114.425 158.759 113.695 159.415C112.869 160.157 111.621 158.971 112.448 158.228C113.411 157.362 114.65 156.953 115.884 156.561C116.965 156.218 117.424 157.84 116.353 158.181ZM112.309 190.801C112.053 191.217 111.534 191.293 111.103 191.102C110.524 190.846 109.886 190.855 109.262 190.854C108.126 190.853 108.128 189.175 109.262 189.175C110.224 189.175 111.112 189.262 111.993 189.652C112.427 189.845 112.532 190.438 112.309 190.801ZM110.024 230.389C109.53 230.407 109.163 229.99 109.142 229.55C109.122 229.12 109.498 228.786 109.918 228.723C109.982 228.305 110.33 228.004 110.786 227.984C111.25 227.964 111.685 228.385 111.668 228.825C111.635 229.67 110.912 230.358 110.024 230.389ZM270.688 236.738C270.389 235.712 269.703 234.883 269.184 233.959C269.011 233.648 268.951 233.455 268.857 233.226C268.728 233.47 268.48 233.653 268.108 233.653C267.391 233.654 266.554 233.609 265.885 233.901C265.451 234.091 264.939 234.024 264.679 233.601C264.456 233.237 264.563 232.64 264.996 232.451C265.98 232.022 267.039 231.975 268.108 231.974C268.371 231.974 268.571 232.067 268.712 232.206C269.12 226.883 269.11 221.556 268.724 216.229C268.312 210.537 267.364 204.957 266.371 199.338C265.891 196.614 265.267 193.862 265.388 191.087C265.51 188.331 266.751 185.762 265.872 182.997C265.519 181.889 264.915 180.874 264.522 179.777C264.101 178.598 264.138 177.433 264.33 176.211C264.725 173.724 265.38 171.266 264.333 168.838C263.87 167.76 263.12 166.799 262.759 165.687C262.309 164.304 262.371 162.774 262.296 161.34C262.143 158.448 262.104 155.536 261.852 152.65C261.741 151.357 261.495 150.131 260.938 148.945C260.402 147.803 259.607 146.765 259.252 145.554C258.899 144.361 258.868 143.104 258.678 141.884C258.48 140.595 258.169 139.326 257.751 138.087C256.132 133.294 253.168 128.986 249.665 125.252C245.941 121.283 241.491 118.294 236.766 115.508C234.282 114.044 231.798 112.579 229.316 111.114C229.263 111.389 229.079 111.641 228.726 111.754C227.794 112.05 226.798 112.332 226.067 112.989C225.242 113.731 223.994 112.545 224.82 111.802C225.683 111.026 226.767 110.617 227.871 110.259C226.74 109.58 225.596 108.877 224.32 108.485C223.203 108.141 221.554 108.441 220.647 107.661C219.936 107.045 219.71 105.906 219.438 105.07C219.096 104.033 218.801 102.939 218.366 101.932C218.071 101.244 217.641 100.583 217.099 100.049C216.861 99.1764 216.424 98.3789 215.652 97.8932C213.633 96.622 211.153 97.8853 210.265 99.6987C209.531 99.6968 208.758 99.8497 208.043 99.8914C206.575 99.9798 205.104 100.02 203.634 100.016C200.758 100.008 197.879 99.8288 195.026 99.4654C189.925 98.8149 184.976 97.5029 179.961 96.481C179.932 96.4184 179.899 96.3548 179.86 96.2923C178.779 94.5662 176.088 94.8582 174.392 95.5117C173.665 95.7907 172.924 96.1433 172.508 96.7978C172.066 97.0808 171.686 97.4255 171.432 97.7889C170.907 98.5378 170.501 100.049 169.437 100.175C168.736 100.257 168.024 100.129 167.312 100.225C166.422 100.343 165.623 100.641 164.801 100.981C158.54 103.569 152.068 106.447 145.274 107.45C143.68 107.686 142.058 107.929 140.674 108.779C139.549 109.469 138.68 110.419 137.753 111.318C136.849 112.196 136.104 112.585 134.814 112.742C133.249 112.933 131.893 113.344 130.749 114.427C129.799 115.328 129.18 116.478 128.435 117.524C127.676 118.59 126.563 119.19 125.408 119.809C122.677 121.275 120.133 123.043 117.917 125.166C113.25 129.641 110.424 135.392 107.576 140.996C104.497 147.059 101.618 153.194 99.6205 159.667C97.6631 166.022 96.4991 172.561 95.9612 179.161C95.3946 186.085 95.3153 193.037 94.8436 199.966C94.6077 203.427 94.4292 206.893 94.2483 210.356C94.072 213.778 93.8141 217.205 93.8558 220.63C93.9353 227.252 95.3261 233.896 97.7578 240.097C98.364 241.639 99.0362 243.161 99.7526 244.66C100.381 245.976 102.53 245.829 103.205 244.66C103.359 244.391 103.48 244.114 103.582 243.833C105.345 243.848 107.127 243.718 108.879 243.873C111.974 244.148 115.076 244.301 118.179 244.483C124.321 244.847 130.474 245.088 136.617 245.422C137.213 245.455 137.81 245.486 138.405 245.52C134.027 232.617 134.595 218.668 133.902 205.248C133.846 204.166 135.61 204.173 135.666 205.248C136.361 218.725 135.769 232.711 140.302 245.634C142.061 245.748 143.817 245.887 145.567 246.089C146.982 246.251 148.404 246.442 149.833 246.375C151.453 246.302 153.036 245.948 154.617 245.642C157.489 245.086 160.255 245.337 163.139 245.68C166.223 246.048 169.318 246.251 172.421 246.379C184.851 246.898 197.362 247.369 209.786 246.579C212.793 246.387 215.793 246.119 218.781 245.754C221.858 245.378 224.902 244.746 227.977 244.387C231.009 244.034 233.795 245.002 236.79 245.181C239.845 245.363 242.983 244.756 246.01 244.408C246.997 244.294 247.985 244.183 248.974 244.073C247.701 235.767 246.977 227.397 246.275 219.031C246.184 217.952 247.949 217.962 248.038 219.031C248.735 227.332 249.443 235.638 250.714 243.881C255.955 243.3 261.201 242.712 266.387 241.808C267.865 241.552 269.333 241.133 270.216 239.878C270.871 238.949 271.003 237.808 270.688 236.738Z" fill="#204174"/>
<mask id="mask0" mask-type="alpha" maskUnits="userSpaceOnUse" x="0" y="113" width="351" height="138">
<path fill-rule="evenodd" clip-rule="evenodd" d="M189.207 114.224C220.609 116.839 244.212 158.769 270.851 166.94C297.127 175 331.028 148.692 344.637 161.902C358.282 175.147 345.565 204.111 325.851 211.94C293.228 221.369 298.895 231.088 276.351 239.94C254.394 248.562 252.636 248.749 224.106 250.297C200.432 251.583 177.889 250.566 154.056 250.697C118.544 250.891 86.2884 248.461 55.8513 239.94C24.943 231.287 3.25776 224.341 0.151941 207.611C-2.89064 191.221 40.5956 189.278 55.8513 174.44C70.8287 159.873 55.8513 129.5 84 128C163.5 128 154.976 111.373 189.207 114.224Z" fill="#C4C4C4"/>
</mask>
<g mask="url(#mask0)">
<path fill-rule="evenodd" clip-rule="evenodd" d="M189.207 114.284C220.609 116.899 244.212 158.829 270.851 167C297.127 175.06 331.028 148.752 344.637 161.962C358.282 175.207 345.565 204.171 325.851 212C293.228 221.429 298.895 231.148 276.351 240C254.394 248.622 252.636 248.808 224.106 250.357C200.432 251.642 177.889 250.626 154.056 250.756C118.544 250.95 86.2884 248.521 55.8513 240C24.943 231.347 3.25776 224.401 0.151941 207.671C-2.89064 191.281 40.5956 189.338 55.8513 174.5C70.8287 159.932 57 125.484 89.5 128C167 134 154.976 111.433 189.207 114.284Z" fill="#3062AE"/>
<mask id="mask1" mask-type="alpha" maskUnits="userSpaceOnUse" x="37" y="145" width="153" height="153">
<circle cx="113.351" cy="221.5" r="55.5" transform="rotate(120 113.351 221.5)" fill="#C4C4C4"/>
</mask>
<g mask="url(#mask1)">
<line x1="181.359" y1="265.576" x2="113.263" y2="147.629" stroke="#ECF3FD" stroke-width="2"/>
<line x1="171.588" y1="266.883" x2="103.76" y2="149.401" stroke="#ECF3FD" stroke-width="2"/>
<line x1="166.5" y1="274.155" x2="98.4032" y2="156.209" stroke="#ECF3FD" stroke-width="2"/>
<line x1="158.606" y1="278.713" x2="90.5091" y2="160.766" stroke="#ECF3FD" stroke-width="2"/>
<line x1="150.712" y1="283.27" x2="82.6151" y2="165.324" stroke="#ECF3FD" stroke-width="2"/>
<line x1="143.282" y1="287.56" x2="75.1853" y2="169.613" stroke="#ECF3FD" stroke-width="2"/>
<line x1="135.388" y1="292.118" x2="67.2913" y2="174.171" stroke="#ECF3FD" stroke-width="2"/>
<line x1="128.422" y1="296.139" x2="60.3259" y2="178.192" stroke="#ECF3FD" stroke-width="2"/>
<line x1="120.528" y1="300.697" x2="52.4319" y2="182.75" stroke="#ECF3FD" stroke-width="2"/>
<line x1="113.099" y1="304.986" x2="45.0022" y2="187.04" stroke="#ECF3FD" stroke-width="2"/>
<line x1="188.789" y1="261.286" x2="120.692" y2="143.34" stroke="#ECF3FD" stroke-width="2"/>
<line x1="105.473" y1="310.008" x2="37.1081" y2="191.597" stroke="#ECF3FD" stroke-width="2"/>
<line x1="194.806" y1="253.478" x2="126.978" y2="135.996" stroke="#ECF3FD" stroke-width="2"/>
</g>
<path fill-rule="evenodd" clip-rule="evenodd" d="M118.081 252.45C125.436 252.473 132.584 252.724 139.96 252.749C169.944 252.849 200.205 252.703 230.298 251.488C238.803 251.144 240.926 251.153 249.395 250.619C254.395 250.601 269.415 250.188 268.664 243.374C268.331 230.684 265.19 218.048 264.201 205.393C262.303 181.602 260.687 157.067 251.153 134.815C248.947 129.501 244.208 126.025 239.517 122.9C234.812 119.53 233.657 115.786 229.315 111.979C228.397 111.173 223.183 110.845 220.378 108.802C216.295 105.83 214.27 100.962 212.747 100.134C211.626 99.5242 211.647 95.3171 209.4 93.8292C206.385 91.831 196.778 90.3452 193.282 90.0677C189.927 89.8005 184.092 90.3609 180.944 91.59C175.694 93.6393 173.601 97.549 171.289 102.586C140.748 112.029 112.832 128.019 104.163 160.271C96.6864 187.322 96.4124 216.322 99.3006 244.066C99.8784 246.094 99.4734 249.275 101.226 250.619C95.1356 250.968 117.255 252.226 118.081 252.45Z" fill="white"/>
<path fill-rule="evenodd" clip-rule="evenodd" d="M256.996 225.74C256.418 225.451 255.816 225.121 255.156 225.099C254.022 225.059 254.02 223.294 255.156 223.334C256.146 223.369 257.015 223.782 257.886 224.217C258.903 224.724 258.009 226.245 256.996 225.74ZM255.156 176.08C255.929 176.081 256.709 176.18 257.303 176.72C257.656 177.042 257.628 177.642 257.303 177.968C256.954 178.315 256.408 178.288 256.056 177.968C256.171 178.072 256.057 177.969 256.015 177.946C256.005 177.941 256 177.937 255.997 177.935C255.988 177.931 255.98 177.93 255.965 177.926C255.873 177.903 255.782 177.88 255.689 177.864C255.687 177.868 255.492 177.851 255.446 177.849C255.349 177.846 255.253 177.845 255.156 177.845C254.678 177.845 254.274 177.442 254.274 176.963C254.274 176.486 254.679 176.08 255.156 176.08ZM246.863 195.87C246.611 196.978 244.911 196.507 245.164 195.402C245.53 193.795 245.463 192.148 245.164 190.535C244.957 189.424 246.657 188.951 246.863 190.067C247.223 192.001 247.304 193.942 246.863 195.87ZM244.637 132.466C243.323 132.154 242.024 132.117 240.681 132.117C239.544 132.116 239.546 130.352 240.681 130.352C242.18 130.352 243.641 130.417 245.105 130.764C246.211 131.027 245.74 132.728 244.637 132.466ZM240.236 175.438C239.474 175.057 238.711 174.676 237.951 174.295C236.933 173.787 237.827 172.266 238.84 172.772L241.126 173.915C242.142 174.423 241.248 175.945 240.236 175.438ZM239.918 210.181C238.952 211.574 237.594 212.44 235.964 212.873C234.864 213.164 234.399 211.462 235.494 211.171C236.661 210.862 237.697 210.299 238.396 209.29C239.039 208.363 240.567 209.246 239.918 210.181ZM233.825 148.065C233.563 147.577 233.17 147.371 232.681 147.359C231.546 147.333 231.546 145.57 232.681 145.596C233.795 145.621 234.815 146.18 235.347 147.175C235.882 148.177 234.36 149.067 233.825 148.065ZM222.639 160.058C222.323 160.402 221.711 160.394 221.392 160.058C221.197 159.852 221.034 159.622 220.905 159.371C220.856 159.275 220.81 159.178 220.757 159.085C220.733 159.043 220.706 159.003 220.679 158.963C220.669 158.955 220.651 158.935 220.631 158.914C220.292 158.556 220.3 158.027 220.631 157.667C220.947 157.322 221.559 157.331 221.878 157.667C222.072 157.873 222.235 158.102 222.364 158.354C222.413 158.449 222.46 158.546 222.513 158.64C222.537 158.68 222.564 158.721 222.591 158.761C222.601 158.769 222.619 158.789 222.639 158.81C222.978 159.169 222.97 159.698 222.639 160.058ZM221.698 186.108C220.55 186.634 219.291 186.634 218.142 186.108C217.707 185.91 217.604 185.28 217.826 184.902C218.083 184.461 218.599 184.387 219.032 184.584C219.553 184.823 220.288 184.823 220.809 184.584C221.243 184.386 221.754 184.456 222.015 184.902C222.239 185.283 222.132 185.91 221.698 186.108ZM218.566 204.547C218.369 205.015 217.942 205.263 217.444 205.282C216.951 205.301 216.583 204.863 216.562 204.4C216.549 204.101 216.711 203.845 216.943 203.687C216.943 203.671 216.943 203.654 216.943 203.638C216.943 203.144 217.347 202.778 217.825 202.756C218.301 202.735 218.708 203.176 218.707 203.638C218.707 203.949 218.688 204.258 218.566 204.547ZM214.015 233.863C212.609 233.885 211.234 234.221 209.826 234.244C208.689 234.262 208.692 232.499 209.826 232.48C211.234 232.457 212.608 232.122 214.015 232.099C215.153 232.08 215.15 233.845 214.015 233.863ZM208.164 120.807C207.341 121.592 206.322 121.979 205.319 122.469C204.302 122.966 203.409 121.445 204.429 120.946C205.279 120.53 206.22 120.224 206.917 119.56C207.739 118.776 208.988 120.022 208.164 120.807ZM205.953 141.142C205.375 140.853 204.772 140.523 204.112 140.5C202.979 140.46 202.977 138.697 204.112 138.736C205.102 138.771 205.972 139.184 206.843 139.619C207.859 140.126 206.965 141.647 205.953 141.142ZM195.352 222.756C195.091 222.267 194.696 222.06 194.208 222.05C193.073 222.024 193.073 220.259 194.208 220.285C195.321 220.31 196.343 220.87 196.874 221.865C197.409 222.868 195.887 223.758 195.352 222.756ZM191.68 184.446C191.329 184.124 191.353 183.525 191.68 183.199C192.061 182.818 192.441 182.437 192.822 182.055C193.171 181.707 193.718 181.733 194.069 182.055C194.421 182.378 194.396 182.976 194.069 183.303C193.688 183.684 193.308 184.065 192.927 184.446C192.578 184.795 192.031 184.769 191.68 184.446ZM187.351 244.151C186.079 244.122 184.886 243.757 183.688 243.358C182.616 243.001 183.078 241.298 184.158 241.657C185.198 242.003 186.245 242.362 187.351 242.387C188.486 242.414 188.487 244.178 187.351 244.151ZM181.637 206.425C180.488 206.393 179.534 205.808 178.729 205.024C177.913 204.231 179.161 202.984 179.976 203.776C180.437 204.225 180.969 204.643 181.637 204.661C182.772 204.693 182.773 206.457 181.637 206.425ZM185.185 157.909C185.199 158.379 185.398 158.883 185.689 159.192C186.469 160.017 185.223 161.266 184.443 160.438C183.798 159.756 183.449 158.843 183.422 157.909C183.39 156.772 185.153 156.777 185.185 157.909ZM171.735 119.485C171.365 118.762 170.882 117.915 170.147 117.515C169.147 116.973 170.038 115.45 171.037 115.992C172.036 116.535 172.752 117.605 173.257 118.595C173.774 119.605 172.251 120.497 171.735 119.485ZM169.449 137.833C169.039 137.821 168.634 137.751 168.238 137.644C168.07 137.598 167.903 137.546 167.734 137.5C167.662 137.48 167.355 137.441 167.543 137.452C167.066 137.426 166.662 137.068 166.662 136.569C166.662 136.111 167.067 135.661 167.543 135.687C168.198 135.723 168.793 136.049 169.449 136.068C170.583 136.101 170.584 137.865 169.449 137.833ZM163.734 166.032H161.83C160.693 166.032 160.695 164.268 161.83 164.268H163.734C164.871 164.268 164.869 166.032 163.734 166.032ZM161.512 244.032C160.935 244.321 160.254 244.594 159.786 245.036C158.961 245.817 157.713 244.571 158.539 243.789C159.135 243.226 159.897 242.871 160.622 242.508C161.05 242.294 161.575 242.39 161.829 242.824C162.058 243.217 161.938 243.819 161.512 244.032ZM157.257 221.74C157.183 221.72 157.105 221.705 157.031 221.695C156.731 221.654 156.417 221.669 156.116 221.669C154.98 221.668 154.981 219.903 156.116 219.904C157.01 219.904 157.941 219.917 158.644 220.544C159.001 220.862 158.967 221.468 158.644 221.791C158.294 222.141 157.753 222.108 157.397 221.791C157.435 221.825 157.306 221.754 157.257 221.74ZM156.116 191.761C156.372 191.232 156.376 190.888 156.376 190.3C156.377 189.164 158.141 189.165 158.14 190.3C158.14 191.153 158.013 191.879 157.639 192.651C157.43 193.082 156.819 193.194 156.432 192.967C155.999 192.715 155.908 192.189 156.116 191.761ZM151.017 150.377C149.994 150.724 149.081 151.217 148.18 151.811C147.229 152.44 146.347 150.911 147.29 150.288C148.318 149.61 149.381 149.072 150.548 148.675C151.627 148.309 152.086 150.013 151.017 150.377ZM145.069 120.684C144.309 120.706 143.525 120.997 142.847 121.326C141.83 121.82 140.937 120.299 141.958 119.802C142.925 119.333 143.983 118.951 145.069 118.92C146.206 118.888 146.201 120.653 145.069 120.684ZM142.402 199.948C142.103 199.96 141.848 199.799 141.69 199.567C141.673 199.567 141.657 199.566 141.64 199.566C141.146 199.566 140.78 199.162 140.759 198.684C140.737 198.208 141.179 197.801 141.64 197.801C141.952 197.802 142.261 197.821 142.55 197.943C143.017 198.141 143.265 198.566 143.284 199.065C143.303 199.56 142.865 199.927 142.402 199.948ZM138.066 138.944C136.983 139.299 136.523 137.595 137.597 137.243C138.858 136.831 140.146 136.512 141.407 136.099C142.49 135.746 142.949 137.45 141.875 137.801C140.615 138.213 139.326 138.532 138.066 138.944ZM134.111 172.244C133.775 173.327 132.073 172.861 132.41 171.774C132.736 170.726 132.759 169.67 132.76 168.579C132.76 167.442 134.524 167.444 134.523 168.579C134.523 169.82 134.481 171.049 134.111 172.244ZM122.32 212.128C122.256 212.567 121.907 212.883 121.452 212.904C120.988 212.925 120.553 212.484 120.57 212.021C120.602 211.133 121.326 210.41 122.214 210.378C122.707 210.359 123.075 210.796 123.095 211.26C123.116 211.71 122.74 212.062 122.32 212.128ZM116.353 161.428C115.421 161.739 114.425 162.035 113.695 162.725C112.869 163.504 111.621 162.258 112.448 161.478C113.411 160.568 114.65 160.138 115.884 159.726C116.965 159.366 117.424 161.07 116.353 161.428ZM112.309 195.7C112.053 196.137 111.534 196.216 111.103 196.016C110.524 195.747 109.886 195.756 109.262 195.755C108.126 195.754 108.128 193.991 109.262 193.991C110.224 193.992 111.112 194.083 111.993 194.493C112.427 194.695 112.532 195.318 112.309 195.7ZM110.024 237.292C109.53 237.311 109.163 236.874 109.142 236.41C109.122 235.96 109.498 235.608 109.918 235.542C109.982 235.103 110.33 234.787 110.786 234.766C111.25 234.745 111.685 235.186 111.668 235.649C111.635 236.537 110.912 237.26 110.024 237.292ZM270.688 243.963C270.389 242.885 269.703 242.014 269.184 241.043C269.011 240.717 268.951 240.513 268.857 240.273C268.728 240.53 268.48 240.722 268.108 240.722C267.391 240.723 266.554 240.676 265.885 240.983C265.451 241.182 264.939 241.111 264.679 240.666C264.456 240.285 264.563 239.657 264.996 239.459C265.98 239.008 267.039 238.958 268.108 238.957C268.371 238.957 268.571 239.055 268.712 239.201C269.12 233.609 269.11 228.012 268.724 222.415C268.312 216.435 267.364 210.573 266.371 204.669C265.891 201.807 265.267 198.916 265.388 196C265.51 193.105 266.751 190.406 265.872 187.501C265.519 186.336 264.915 185.27 264.522 184.118C264.101 182.878 264.138 181.654 264.33 180.371C264.725 177.758 265.38 175.176 264.333 172.625C263.87 171.492 263.12 170.482 262.759 169.314C262.309 167.861 262.371 166.253 262.296 164.747C262.143 161.708 262.104 158.649 261.852 155.617C261.741 154.258 261.495 152.971 260.938 151.725C260.402 150.525 259.607 149.433 259.252 148.161C258.899 146.908 258.868 145.587 258.678 144.306C258.48 142.952 258.169 141.618 257.751 140.317C256.132 135.28 253.168 130.755 249.665 126.832C245.941 122.661 241.491 119.521 236.766 116.595C234.282 115.056 231.798 113.517 229.316 111.978C229.263 112.267 229.079 112.532 228.726 112.651C227.794 112.961 226.798 113.258 226.067 113.947C225.242 114.727 223.994 113.481 224.82 112.701C225.683 111.886 226.767 111.456 227.871 111.079C226.74 110.366 225.596 109.628 224.32 109.216C223.203 108.855 221.554 109.17 220.647 108.35C219.936 107.703 219.71 106.506 219.438 105.627C219.096 104.538 218.801 103.389 218.366 102.331C218.071 101.608 217.641 100.913 217.099 100.353C216.861 99.4355 216.424 98.5977 215.652 98.0874C213.633 96.7518 211.153 98.0791 210.265 99.9844C209.531 99.9823 208.758 100.143 208.043 100.187C206.575 100.28 205.104 100.321 203.634 100.317C200.758 100.309 197.879 100.121 195.026 99.7392C189.925 99.0557 184.976 97.6774 179.961 96.6037C179.932 96.5379 179.899 96.4711 179.86 96.4054C178.779 94.5919 176.088 94.8987 174.392 95.5853C173.665 95.8785 172.924 96.2489 172.508 96.9365C172.066 97.2339 171.686 97.596 171.432 97.9779C170.907 98.7646 170.501 100.353 169.437 100.485C168.736 100.571 168.024 100.436 167.312 100.537C166.422 100.662 165.623 100.975 164.801 101.331C158.54 104.051 152.068 107.074 145.274 108.128C143.68 108.376 142.058 108.631 140.674 109.524C139.549 110.25 138.68 111.247 137.753 112.192C136.849 113.115 136.104 113.523 134.814 113.688C133.249 113.889 131.893 114.321 130.749 115.458C129.799 116.405 129.18 117.613 128.435 118.712C127.676 119.832 125.506 120.034 124.351 120.684C121.62 122.224 119.076 124.082 116.861 126.312C112.194 131.014 110.424 137.485 107.576 143.373C104.497 149.742 101.618 156.189 99.6205 162.99C97.6631 169.666 96.4991 176.536 95.9612 183.47C95.3946 190.745 95.3153 198.049 94.8436 205.329C94.6077 208.965 94.4292 212.607 94.2483 216.245C94.072 219.84 93.8141 223.441 93.8558 227.039C93.9353 233.997 95.3261 240.977 97.7578 247.491C98.364 249.112 99.0362 250.712 99.7526 252.286C100.381 253.669 102.53 253.514 103.205 252.286C103.359 252.003 103.48 251.712 103.582 251.417C105.345 251.433 107.127 251.296 108.879 251.459C111.974 251.748 115.076 251.908 118.179 252.1C124.321 252.482 130.474 252.736 136.617 253.086C137.213 253.121 137.81 253.154 138.405 253.19C134.027 239.633 134.595 224.977 133.902 210.879C133.846 209.741 135.61 209.749 135.666 210.879C136.361 225.038 135.769 239.732 140.302 253.31C142.061 253.429 143.817 253.575 145.567 253.788C146.982 253.958 148.404 254.158 149.833 254.088C151.453 254.011 153.036 253.639 154.617 253.318C157.489 252.734 160.255 252.998 163.139 253.358C166.223 253.744 169.318 253.958 172.421 254.092C184.851 254.637 197.362 255.133 209.786 254.302C212.793 254.101 215.793 253.819 218.781 253.435C221.858 253.04 224.902 252.376 227.977 251.999C231.009 251.629 233.795 252.645 236.79 252.833C239.845 253.025 242.983 252.387 246.01 252.021C246.997 251.901 247.985 251.785 248.974 251.669C247.701 242.942 246.977 234.149 246.275 225.359C246.184 224.225 247.949 224.236 248.038 225.359C248.735 234.08 249.443 242.808 250.714 251.467C255.955 250.857 261.201 250.239 266.387 249.289C267.865 249.02 269.333 248.581 270.216 247.262C270.871 246.285 271.003 245.087 270.688 243.963Z" fill="#204174"/>
<path fill-rule="evenodd" clip-rule="evenodd" d="M199.064 15.0344C232.244 16.0853 234.244 31.8512 234.244 58.2911C234.244 84.7316 217.033 101.393 210.695 104.302C204.357 107.211 187.669 119.707 172.609 113.949C157.549 108.191 161.91 83.8613 161.91 73.4073C161.91 62.9542 165.885 13.9836 199.064 15.0344Z" fill="white"/>
<path fill-rule="evenodd" clip-rule="evenodd" d="M212.524 95.6187C206.431 99.0213 199.454 99.1538 192.901 97.0117C188.97 95.7314 185.366 93.751 181.993 91.3824C179.058 89.3195 176.439 87.0334 173.846 84.6053C171.71 79.8922 169.807 75.1884 168.916 70.061C168.118 65.4584 168.013 60.6795 168.938 56.0864C175.785 50.4519 182.59 44.771 189.386 39.0728C192.847 36.1705 196.317 33.284 199.829 30.4433C201.612 29.0011 203.378 27.5368 205.155 26.0879C205.448 25.8497 205.739 25.6115 206.032 25.3734C209.7 28.0594 213.632 30.3619 217.275 33.0919C219.181 34.5231 221.036 36.047 222.801 37.65C223.727 38.4904 224.631 39.3571 225.513 40.2458C226.319 41.0576 227.098 42.2217 228.241 42.5285C228.398 42.5701 228.546 42.579 228.685 42.5592C230.215 55.9585 231.302 70.4272 224.748 82.5957C221.888 87.9046 217.834 92.6501 212.524 95.6187ZM172.887 100.543C172.048 99.7736 173.298 98.5298 174.133 99.2947C179.381 104.104 186.241 106.653 193.172 107.833C194.289 108.024 193.813 109.724 192.702 109.534C185.467 108.303 178.356 105.555 172.887 100.543ZM166.59 107.921C165.588 107.383 166.48 105.861 167.48 106.397C171.568 108.592 176.052 109.731 180.602 110.501C181.72 110.69 181.242 112.39 180.132 112.202C175.429 111.406 170.814 110.188 166.59 107.921ZM183.229 33.5972C186.622 30.5514 190.268 27.6535 194.119 25.208C198.016 22.7338 202.274 21.254 206.874 21.2187C206.552 21.4768 206.246 21.7634 205.935 22.03C205.067 22.7734 204.2 23.521 203.334 24.2664C201.601 25.7594 199.863 27.2499 198.153 28.7674C194.785 31.7577 191.405 34.7327 188.043 37.7297C181.583 43.4898 175.26 49.3756 169.075 55.4315C169.108 55.2837 169.143 55.1359 169.178 54.9884C171.227 46.4318 176.796 39.3726 183.229 33.5972ZM209.824 21.5913C209.846 21.5252 209.861 21.461 209.87 21.3994C218.698 22.5506 226.072 29.0494 228.511 37.6061C228.299 37.9016 228.182 38.2522 228.226 38.6247C228.248 38.8124 228.27 39.002 228.293 39.1895C227.99 38.8898 227.679 38.6095 227.415 38.3427C226.535 37.4517 225.634 36.5848 224.707 35.7402C222.815 34.0137 220.848 32.3994 218.775 30.8933C215.171 28.2733 211.269 25.8652 206.973 24.6082C207.255 24.3766 207.538 24.145 207.822 23.9157C208.671 23.2252 209.458 22.6565 209.824 21.5913ZM225.652 12.4416C220.231 6.516 212.725 2.17607 204.82 0.667589C197.271 -0.774635 189.457 0.175823 182.326 2.97878C167.404 8.84482 155.63 21.7438 150.117 36.691C146.903 45.3996 145.849 54.9463 146.815 64.1646C147.776 73.3405 150.538 82.8169 155.564 90.6238C156.025 91.3385 156.53 92.0241 157.059 92.6877C156.823 95.3829 155.923 98.0248 154.508 100.322C154.432 100.446 154.352 100.567 154.272 100.688C152.823 101.773 151.32 102.792 149.853 103.843C148.581 104.755 147.322 105.69 146.126 106.699C144.997 107.651 143.686 108.713 142.922 109.999C142.296 111.052 142.04 112.485 142.895 113.489C143.925 114.7 145.671 114.273 147.066 114.273C147.186 114.273 147.305 114.276 147.424 114.277C147.843 114.54 148.275 114.779 148.693 115C152.919 117.242 157.16 119.458 161.406 121.663C169.862 126.058 178.283 130.63 186.913 134.676C190.912 136.553 195.193 138.194 199.672 138.187C203.874 138.18 207.672 136.511 210.953 133.973C214.691 131.082 217.818 127.41 220.85 123.811C222.062 122.37 223.251 120.913 224.417 119.436C226.656 118.688 228.879 118.47 230.876 119.912C232.479 121.07 234.591 119.495 234.628 117.757C234.641 117.14 234.615 116.531 234.549 115.931C234.147 112.226 232.335 108.874 230.294 105.765C229.178 104.064 228.004 102.395 226.822 100.741C226.544 100.351 226.271 99.9604 226.006 99.5639C230.753 92.5729 234.518 84.8213 236.832 76.7212C239.264 68.1974 240.091 59.3596 239.548 50.5269C238.715 36.9908 235.003 22.6653 225.652 12.4416Z" fill="#022150"/>
</g>
<path fill-rule="evenodd" clip-rule="evenodd" d="M199.064 15.0344C232.244 16.0853 234.244 31.8512 234.244 58.2911C234.244 84.7316 217.033 101.393 210.695 104.302C204.357 107.211 187.669 119.707 172.609 113.949C157.549 108.191 161.91 83.8613 161.91 73.4073C161.91 62.9542 165.885 13.9836 199.064 15.0344Z" fill="white"/>
<path fill-rule="evenodd" clip-rule="evenodd" d="M212.524 95.6187C206.431 99.0213 199.454 99.1538 192.901 97.0117C188.97 95.7314 185.366 93.751 181.993 91.3824C179.058 89.3195 176.439 87.0334 173.846 84.6053C171.71 79.8922 169.807 75.1884 168.916 70.061C168.118 65.4584 168.013 60.6795 168.938 56.0864C175.785 50.4519 182.59 44.771 189.386 39.0728C192.847 36.1705 196.317 33.284 199.829 30.4433C201.612 29.0011 203.378 27.5368 205.155 26.0879C205.448 25.8497 205.739 25.6115 206.032 25.3734C209.7 28.0594 213.632 30.3619 217.275 33.0919C219.181 34.5231 221.036 36.047 222.801 37.65C223.727 38.4904 224.631 39.3571 225.513 40.2458C226.319 41.0576 227.098 42.2217 228.241 42.5285C228.398 42.5701 228.546 42.579 228.685 42.5592C230.215 55.9585 231.302 70.4272 224.748 82.5957C221.888 87.9046 217.834 92.6501 212.524 95.6187ZM172.887 100.543C172.048 99.7736 173.298 98.5298 174.133 99.2947C179.381 104.104 186.241 106.653 193.172 107.833C194.289 108.024 193.813 109.724 192.702 109.534C185.467 108.303 178.356 105.555 172.887 100.543ZM166.59 107.921C165.588 107.383 166.48 105.861 167.48 106.397C171.568 108.592 176.052 109.731 180.602 110.501C181.72 110.69 181.242 112.39 180.132 112.202C175.429 111.406 170.814 110.188 166.59 107.921ZM183.229 33.5972C186.622 30.5514 190.268 27.6535 194.119 25.208C198.016 22.7338 202.274 21.254 206.874 21.2187C206.552 21.4768 206.246 21.7634 205.935 22.03C205.067 22.7734 204.2 23.521 203.334 24.2664C201.601 25.7594 199.863 27.2499 198.153 28.7674C194.785 31.7577 191.405 34.7327 188.043 37.7297C181.583 43.4898 175.26 49.3756 169.075 55.4315C169.108 55.2837 169.143 55.1359 169.178 54.9884C171.227 46.4318 176.796 39.3726 183.229 33.5972ZM209.824 21.5913C209.846 21.5252 209.861 21.461 209.87 21.3994C218.698 22.5506 226.072 29.0494 228.511 37.6061C228.299 37.9016 228.182 38.2522 228.226 38.6247C228.248 38.8124 228.27 39.002 228.293 39.1895C227.99 38.8898 227.679 38.6095 227.415 38.3427C226.535 37.4517 225.634 36.5848 224.707 35.7402C222.815 34.0137 220.848 32.3994 218.775 30.8933C215.171 28.2733 211.269 25.8652 206.973 24.6082C207.255 24.3766 207.538 24.145 207.822 23.9157C208.671 23.2252 209.458 22.6565 209.824 21.5913ZM225.652 12.4416C220.231 6.516 212.725 2.17607 204.82 0.667589C197.271 -0.774635 189.457 0.175823 182.326 2.97878C167.404 8.84482 155.63 21.7438 150.117 36.691C146.903 45.3996 145.849 54.9463 146.815 64.1646C147.776 73.3405 150.538 82.8169 155.564 90.6238C156.025 91.3385 156.53 92.0241 157.059 92.6877C156.823 95.3829 155.923 98.0248 154.508 100.322C154.432 100.446 154.352 100.567 154.272 100.688C152.823 101.773 151.32 102.792 149.853 103.843C148.581 104.755 147.322 105.69 146.126 106.699C144.997 107.651 143.686 108.713 142.922 109.999C142.296 111.052 142.04 112.485 142.895 113.489C143.925 114.7 145.671 114.273 147.066 114.273C147.186 114.273 147.305 114.276 147.424 114.277C147.843 114.54 148.275 114.779 148.693 115C152.919 117.242 157.16 119.458 161.406 121.663C169.862 126.058 178.283 130.63 186.913 134.676C190.912 136.553 195.193 138.194 199.672 138.187C203.874 138.18 207.672 136.511 210.953 133.973C214.691 131.082 217.818 127.41 220.85 123.811C222.062 122.37 223.251 120.913 224.417 119.436C226.656 118.688 228.879 118.47 230.876 119.912C232.479 121.07 234.591 119.495 234.628 117.757C234.641 117.14 234.615 116.531 234.549 115.931C234.147 112.226 232.335 108.874 230.294 105.765C229.178 104.064 228.004 102.395 226.822 100.741C226.544 100.351 226.271 99.9604 226.006 99.5639C230.753 92.5729 234.518 84.8213 236.832 76.7212C239.264 68.1974 240.091 59.3596 239.548 50.5269C238.715 36.9908 235.003 22.6653 225.652 12.4416Z" fill="#022150"/>
<path fill-rule="evenodd" clip-rule="evenodd" d="M209.051 85.9899C207.569 85.3858 206.246 84.3768 205.28 83.0882C204.944 82.6395 204.856 82.1668 204.927 81.7338C205.006 81.2476 205.294 80.8062 205.687 80.5109C206.08 80.2146 206.573 80.0674 207.048 80.1426C207.462 80.2073 207.874 80.4337 208.199 80.9032L208.267 80.9971C208.842 81.7755 209.591 82.4131 210.445 82.8252C211.267 83.2217 212.186 83.4064 213.139 83.2989C214.951 83.0944 216.201 82.1136 217.53 80.7811C217.693 80.6132 217.858 80.44 218.024 80.2636C218.129 80.104 218.274 80.0007 218.434 79.9475C218.614 79.8869 218.816 79.8911 219.001 79.9558C219.18 80.0174 219.34 80.1363 219.446 80.2939C219.549 80.4431 219.606 80.6278 219.587 80.8406C219.466 82.22 218.744 83.4523 217.72 84.4196C216.582 85.4943 215.073 86.2372 213.653 86.4981C212.088 86.785 210.494 86.5795 209.051 85.9899ZM214.391 64.6957C216.056 65.7078 218.592 68.068 216.801 70.5775C214.694 72.7906 211.658 70.254 210.163 69.1063C208.776 68.2173 207.218 70.5044 208.505 71.5427C219.312 79.5468 223.697 64.9607 215.233 63.5062C214.301 63.3455 213.955 64.3827 214.391 64.6957ZM195.025 55.3851C195.209 53.1012 198.686 52.5825 199.032 54.8426C199.342 56.8669 198.976 58.7262 198.066 60.5491C197.194 62.2906 195.005 61.4788 194.839 59.8928C194.618 57.7673 194.91 56.8053 195.025 55.3851ZM221.493 54.3739C221.977 53.7389 222.677 53.3052 223.516 53.5503C226.136 54.3162 225.364 58.0376 224.443 59.8479C223.944 60.8319 222.327 61.0813 221.597 60.2152C220.406 58.8035 219.837 55.9827 221.35 54.5917C221.39 54.5198 221.436 54.4471 221.493 54.3739ZM198.029 45.3917L198.442 45.3191C199.722 45.0976 201.315 44.8848 202.22 45.9145C202.7 46.4606 202.866 47.4754 202.22 47.998C201.084 48.9176 199.829 48.5613 198.468 48.6391C197.347 48.7035 196.269 48.8892 195.188 49.1982C192.818 49.8759 190.887 51.113 188.862 52.4715C188.596 52.6496 188.325 52.3098 188.452 52.0612C189.621 49.7716 191.885 47.8907 194.154 46.7442C195.364 46.1322 196.689 45.6245 198.029 45.3917ZM219.104 44.3659L219.42 44.4308C222.868 45.1516 227.346 46.5915 228.979 49.9787C229.041 50.4576 228.975 50.5603 228.922 50.6274L228.904 50.6497C228.86 50.707 228.825 50.7859 228.617 50.8511C228.56 50.8373 228.501 50.8228 228.443 50.8074C227.695 50.6112 227.103 50.3409 226.529 50.0606L225.908 49.7543C225.187 49.4007 224.46 49.0599 223.689 48.8084C222.043 48.2715 220.352 47.8935 218.634 47.6916C218.261 47.6479 217.903 47.5221 217.619 47.3066C217.351 47.1021 217.147 46.8189 217.053 46.4424C216.932 45.9553 216.966 45.5865 217.227 45.147C217.424 44.8169 217.705 44.5881 218.028 44.4568C218.357 44.3229 218.732 44.2913 219.104 44.3659Z" fill="black"/>
<path fill-rule="evenodd" clip-rule="evenodd" d="M234.12 66.0386C231.444 68.8057 226.977 69.5998 223.416 68.116C214.272 64.294 218.747 52.3746 225.799 49.1737C226.679 48.954 227.856 48.4328 228.929 48.3147C229.026 48.267 229.237 48.4049 229.494 48.2746C237.268 49.143 239.039 61.2169 234.12 66.0386ZM204.63 66.7471C201.629 70.7298 196.048 71.959 191.488 70.1069C182.48 66.5582 185.675 55.9886 191.838 51.8448C204.857 46.9511 210.233 59.4034 204.63 66.7471ZM185.103 57.9218C185.095 57.9176 185.086 57.9165 185.078 57.9124C185.125 57.8915 185.173 57.8706 185.22 57.8487C185.205 57.8894 185.188 57.9291 185.173 57.9698C185.15 57.9531 185.129 57.9343 185.103 57.9218ZM240.317 53.6166C239.582 53.618 238.52 53.739 237.912 54.249C236.411 49.1872 230.874 44.5026 226.058 47.9185C222.265 49.1387 219.451 51.8448 217.851 55.4425C214.967 53.7264 210.432 54.4592 207.931 56.7291C206.293 51.3145 202.262 49.4186 197.465 49.1387C192.228 48.2806 187.008 53.3685 185.38 57.4501C184.025 57.2957 182.002 56.8648 180.728 57.7006C172.46 55.5316 158.004 54.3357 156.323 55.5409C155.125 56.0007 154.468 58.8295 156.141 58.9819C157.599 58.7742 155.971 56.9096 157.441 56.7062C165.272 56.2201 172.873 57.7976 180.622 58.4602C181.313 59.3909 183.548 59.7018 184.741 59.3283C182.863 66.2514 186.917 70.9625 192.99 72.3732C202.397 74.5342 210.579 66.1179 208.12 57.3625C210.97 55.9445 214.247 56.0053 217.35 56.7521C212.163 75.8478 242.906 74.9912 238.105 54.9033C241.3 56.4933 241.994 53.9374 240.317 53.6166Z" fill="black"/>
<mask id="mask2" mask-type="alpha" maskUnits="userSpaceOnUse" x="261" y="89" width="51" height="50">
<circle cx="286.851" cy="114" r="25" transform="rotate(-90 286.851 114)" fill="#C4C4C4"/>
</mask>
<g mask="url(#mask2)">
<line x1="250.294" y1="112.297" x2="303.423" y2="142.971" stroke="#3062AE" stroke-width="0.5"/>
<line x1="253.811" y1="109.586" x2="306.731" y2="140.139" stroke="#3062AE" stroke-width="0.5"/>
<line x1="254.159" y1="105.603" x2="307.288" y2="136.277" stroke="#3062AE" stroke-width="0.5"/>
<line x1="256.212" y1="102.047" x2="309.341" y2="132.721" stroke="#3062AE" stroke-width="0.5"/>
<line x1="258.265" y1="98.4913" x2="311.394" y2="129.165" stroke="#3062AE" stroke-width="0.5"/>
<line x1="260.197" y1="95.1446" x2="313.326" y2="125.819" stroke="#3062AE" stroke-width="0.5"/>
<line x1="262.25" y1="91.5887" x2="315.379" y2="122.263" stroke="#3062AE" stroke-width="0.5"/>
<line x1="264.061" y1="88.4512" x2="317.19" y2="119.125" stroke="#3062AE" stroke-width="0.5"/>
<line x1="266.114" y1="84.8953" x2="319.243" y2="115.569" stroke="#3062AE" stroke-width="0.5"/>
<line x1="268.046" y1="81.5486" x2="321.176" y2="112.223" stroke="#3062AE" stroke-width="0.5"/>
<line x1="248.362" y1="115.643" x2="301.491" y2="146.317" stroke="#3062AE" stroke-width="0.5"/>
<line x1="269.89" y1="77.872" x2="323.229" y2="108.667" stroke="#3062AE" stroke-width="0.5"/>
<line x1="247.773" y1="120.045" x2="300.693" y2="150.598" stroke="#3062AE" stroke-width="0.5"/>
</g>
</svg>
