<svg width="48" height="48" viewBox="0 0 48 48" fill="none" xmlns="http://www.w3.org/2000/svg">
<path d="M5.26111 5.39844H43.1987V42.3013H5.26111V5.39844Z" fill="#0C0824"/>
<path d="M5.2611 5.39843H43.1987V42.3013H5.2611V5.39843ZM3.53613 44.0263H44.9236V3.67346H3.53613V44.0263ZM31.4387 20.2285C30.0759 20.2285 29.6103 20.9187 29.6103 21.4878C29.6103 22.1086 29.9207 22.5402 31.7491 23.4877C34.457 24.7988 35.2966 26.0567 35.2966 27.9029C35.2966 30.6625 33.1932 32.1451 30.3478 32.1451C29.1267 32.1903 27.913 31.9366 26.8122 31.406C26.691 31.3543 26.6747 31.2686 26.6747 31.1296V28.5917C26.6747 28.4187 26.7604 28.367 26.8816 28.4542C27.9154 29.119 29.1188 29.472 30.3478 29.4712C31.7107 29.4712 32.2797 28.9021 32.2797 28.1261C32.2797 27.5053 31.8836 26.9539 30.1409 26.0567C27.6917 24.8846 26.6747 23.6917 26.6747 21.711C26.6747 19.4864 28.4159 17.6417 31.4343 17.6417C32.4849 17.5966 33.534 17.7609 34.5206 18.1251C34.5774 18.162 34.6234 18.2133 34.6538 18.2738C34.6842 18.3344 34.6979 18.4019 34.6935 18.4695V20.8345C34.6935 20.972 34.6078 21.0592 34.4349 21.0074C33.5231 20.4825 32.4862 20.2144 31.4343 20.2314L31.4387 20.2285ZM16.6072 22.2801C17.0033 22.3141 17.3137 22.3141 18.004 22.3141C20.0217 22.3141 21.9181 21.6075 21.9181 18.8656C21.9181 16.675 20.5553 15.5724 18.2627 15.5724C17.5724 15.5724 16.9176 15.6064 16.6072 15.6241V22.2801ZM13.5371 13.1157C13.5371 12.9945 13.7781 12.9088 13.917 12.9088C15.3993 12.8482 16.8827 12.8196 18.3662 12.8231C23.1435 12.8231 25.0059 15.4438 25.0059 18.7902C25.0059 23.1699 21.8324 25.0501 17.936 25.0501C17.2812 25.0501 17.0565 25.0161 16.5909 25.0161V31.6381C16.5909 31.7756 16.5392 31.845 16.384 31.845H13.7455C13.6081 31.845 13.5386 31.7933 13.5386 31.6381V13.1231L13.5371 13.1157Z" fill="#31C5F0"/>
</svg>
