<svg width="400" height="400" viewBox="0 0 400 400" fill="none" xmlns="http://www.w3.org/2000/svg">
<g clip-path="url(#clip0)">
<mask id="mask0" mask-type="alpha" maskUnits="userSpaceOnUse" x="97" y="119" width="203" height="150">
<path d="M281.665 121.875H115.211C106.81 121.875 100 128.679 100 137.073V250.427C100 258.821 106.81 265.625 115.211 265.625H281.665C290.065 265.625 296.875 258.821 296.875 250.427V137.073C296.875 128.679 290.065 121.875 281.665 121.875Z" fill="#C4C4C4" stroke="#204174" stroke-width="5" stroke-linejoin="round"/>
</mask>
<g mask="url(#mask0)">
<path d="M281.665 121.875H115.211C106.81 121.875 100 128.679 100 137.073V250.427C100 258.821 106.81 265.625 115.211 265.625H281.665C290.065 265.625 296.875 258.821 296.875 250.427V137.073C296.875 128.679 290.065 121.875 281.665 121.875Z" fill="white"/>
<ellipse cx="199.5" cy="313" rx="177.5" ry="92" fill="#3062AE"/>
</g>
<rect x="186" y="152" width="38" height="8" fill="#ECF3FD"/>
<rect x="186" y="166" width="90" height="8" fill="#ECF3FD"/>
<rect x="186" y="180" width="70" height="18" fill="#ECF3FD"/>
<path d="M281.665 121.875H115.211C106.81 121.875 100 128.679 100 137.073V250.427C100 258.821 106.81 265.625 115.211 265.625H281.665C290.065 265.625 296.875 258.821 296.875 250.427V137.073C296.875 128.679 290.065 121.875 281.665 121.875Z" stroke="#204174" stroke-width="5" stroke-linejoin="round"/>
<path d="M84.375 275H312.5H84.375Z" fill="#204174"/>
<path d="M84.375 275H312.5" stroke="#204174" stroke-width="5" stroke-miterlimit="10" stroke-linecap="round"/>
<mask id="mask1" mask-type="alpha" maskUnits="userSpaceOnUse" x="247" y="163" width="93" height="168">
<path d="M321.094 165.625H266.406C257.345 165.625 250 172.9 250 181.875V311.875C250 320.849 257.345 328.125 266.406 328.125H321.094C330.155 328.125 337.5 320.849 337.5 311.875V181.875C337.5 172.9 330.155 165.625 321.094 165.625Z" fill="white" stroke="#204174" stroke-width="5" stroke-linecap="round" stroke-linejoin="round"/>
</mask>
<g mask="url(#mask1)">
<rect x="234" y="156" width="130" height="156" fill="white"/>
<ellipse cx="297" cy="334" rx="82" ry="42" fill="#3062AE"/>
</g>
<path d="M321.094 165.625H266.406C257.345 165.625 250 172.9 250 181.875V311.875C250 320.849 257.345 328.125 266.406 328.125H321.094C330.155 328.125 337.5 320.849 337.5 311.875V181.875C337.5 172.9 330.155 165.625 321.094 165.625Z" stroke="#204174" stroke-width="5" stroke-linecap="round" stroke-linejoin="round"/>
<path d="M265.625 165.625H274.063C274.808 165.625 275.524 165.954 276.051 166.54C276.579 167.126 276.875 167.921 276.875 168.75C276.875 170.407 277.468 171.997 278.523 173.169C279.577 174.341 281.008 175 282.5 175H305C306.492 175 307.923 174.341 308.977 173.169C310.032 171.997 310.625 170.407 310.625 168.75C310.625 167.921 310.921 167.126 311.449 166.54C311.976 165.954 312.692 165.625 313.438 165.625H321.875" stroke="#204174" stroke-width="5" stroke-linecap="round" stroke-linejoin="round"/>
<circle cx="294" cy="221" r="23" fill="#ECF3FD"/>
<rect x="282" y="250" width="24" height="5" fill="#ECF3FD"/>
<rect x="265" y="259" width="58" height="5" fill="#ECF3FD"/>
<rect x="265" y="268" width="58" height="11" fill="#ECF3FD"/>
<circle cx="145" cy="175" r="28" fill="#ECF3FD"/>
</g>
<rect x="325.333" y="229" width="33.3333" height="28.3333" fill="#204174"/>
<path d="M338.417 238.033C337.8 237.783 337.133 237.683 336.45 237.7C336.017 237.7 335.633 237.7 335.317 237.717C334.983 237.7 334.75 237.717 334.633 237.733V243.333C334.867 243.35 335.083 243.367 335.283 243.367H336.167C336.817 243.367 337.467 243.267 338.083 243.067C338.617 242.917 339.083 242.6 339.45 242.183C339.8 241.767 339.967 241.2 339.967 240.467C339.983 239.95 339.85 239.433 339.583 238.983C339.305 238.551 338.897 238.218 338.417 238.033ZM354.917 224.5H329.083C325.167 224.5 322 227.667 322 231.583V256.415C322 260.332 325.167 263.498 329.083 263.498H354.917C358.833 263.498 362 260.332 362 256.415V231.583C362 227.667 358.833 224.5 354.917 224.5ZM342.598 243.917C341.933 244.85 341 245.55 339.917 245.95C338.783 246.367 337.533 246.517 336.167 246.517C335.767 246.517 335.5 246.517 335.333 246.5C335.167 246.483 334.933 246.483 334.617 246.483V251.832C334.633 251.948 334.55 252.05 334.433 252.067H331.2C331.067 252.067 331 251.998 331 251.848V234.7C331 234.583 331.05 234.517 331.167 234.517C331.45 234.517 331.717 234.517 332.1 234.5C332.5 234.483 332.917 234.483 333.367 234.467C333.817 234.45 334.3 234.45 334.817 234.433C335.333 234.417 335.833 234.417 336.333 234.417C337.7 234.417 338.833 234.583 339.767 234.933C340.6 235.217 341.367 235.683 342 236.3C342.533 236.833 342.95 237.483 343.217 238.2C343.465 238.9 343.598 239.617 343.598 240.367C343.6 241.8 343.267 242.983 342.598 243.917ZM354.417 250.4C353.95 251.067 353.298 251.582 352.55 251.885C351.733 252.233 350.733 252.415 349.532 252.415C348.767 252.415 348.015 252.35 347.267 252.2C346.683 252.098 346.1 251.917 345.567 251.667C345.45 251.602 345.365 251.485 345.382 251.352V248.452C345.382 248.403 345.4 248.335 345.45 248.302C345.498 248.268 345.55 248.285 345.6 248.318C346.25 248.702 346.933 248.97 347.667 249.135C348.298 249.302 348.965 249.385 349.633 249.385C350.267 249.385 350.717 249.3 351.017 249.15C351.283 249.033 351.467 248.75 351.467 248.45C351.467 248.215 351.333 248 351.067 247.783C350.8 247.568 350.252 247.318 349.435 246.998C348.585 246.698 347.803 246.298 347.068 245.8C346.547 245.426 346.114 244.943 345.8 244.383C345.535 243.856 345.404 243.272 345.418 242.682C345.418 241.965 345.618 241.282 345.987 240.665C346.403 239.998 347.018 239.465 347.735 239.132C348.517 238.733 349.5 238.55 350.683 238.55C351.367 238.55 352.067 238.6 352.75 238.7C353.25 238.767 353.733 238.9 354.183 239.083C354.248 239.1 354.317 239.167 354.35 239.233C354.367 239.3 354.383 239.367 354.383 239.433V242.15C354.383 242.217 354.35 242.283 354.3 242.317C354.15 242.35 354.067 242.35 354 242.317C353.5 242.05 352.967 241.867 352.4 241.75C351.783 241.617 351.167 241.533 350.533 241.533C350.2 241.517 349.85 241.567 349.532 241.65C349.317 241.7 349.132 241.817 349.015 241.983C348.932 242.117 348.882 242.283 348.882 242.433C348.882 242.583 348.948 242.733 349.05 242.867C349.2 243.05 349.398 243.2 349.617 243.317C349.998 243.517 350.4 243.7 350.798 243.867C351.7 244.167 352.567 244.583 353.367 245.083C353.917 245.432 354.367 245.9 354.682 246.467C354.948 246.997 355.082 247.583 355.065 248.182C355.083 248.967 354.85 249.748 354.417 250.4Z" fill="white"/>
<rect x="322" y="224" width="40" height="40" rx="7" stroke="#204174" stroke-width="3"/>
<g clip-path="url(#clip1)">
<path d="M176.998 197.999H171.031L174.171 205.436C174.39 205.952 174.14 206.53 173.64 206.749L170.875 207.921C170.359 208.139 169.781 207.889 169.562 207.389L166.578 200.327L161.703 205.202C161.054 205.852 160 205.351 160 204.499V181.001C160 180.104 161.121 179.667 161.703 180.298L177.701 196.296C178.347 196.908 177.87 197.999 176.998 197.999Z" fill="#204174"/>
</g>
<rect x="52" y="88" width="68" height="68" rx="10" fill="white" stroke="#204174" stroke-width="4"/>
<path d="M94.3333 130.333C98.6596 130.333 102.167 126.826 102.167 122.5C102.167 118.174 98.6596 114.667 94.3333 114.667C90.0071 114.667 86.5 118.174 86.5 122.5C86.5 126.826 90.0071 130.333 94.3333 130.333Z" fill="#19BCFE"/>
<path fill-rule="evenodd" clip-rule="evenodd" d="M78.6667 146C80.7442 146 82.7366 145.175 84.2057 143.706C85.6747 142.237 86.5 140.244 86.5 138.167V130.333H78.6667C76.5891 130.333 74.5967 131.159 73.1277 132.628C71.6586 134.097 70.8333 136.089 70.8333 138.167C70.8333 140.244 71.6586 142.237 73.1277 143.706C74.5967 145.175 76.5891 146 78.6667 146Z" fill="#09CF83"/>
<path fill-rule="evenodd" clip-rule="evenodd" d="M78.6667 130.333H86.5V114.667H78.6667C76.5891 114.667 74.5967 115.492 73.1277 116.961C71.6586 118.43 70.8333 120.422 70.8333 122.5C70.8333 124.577 71.6586 126.57 73.1277 128.039C74.5967 129.508 76.5891 130.333 78.6667 130.333Z" fill="#A259FF"/>
<path fill-rule="evenodd" clip-rule="evenodd" d="M78.6667 114.667H86.5V99H78.6667C76.5891 99 74.5967 99.8253 73.1277 101.294C71.6586 102.763 70.8333 104.756 70.8333 106.833C70.8333 108.911 71.6586 110.903 73.1277 112.372C74.5967 113.841 76.5891 114.667 78.6667 114.667Z" fill="#F24E1E"/>
<path fill-rule="evenodd" clip-rule="evenodd" d="M94.3333 114.667H86.5V99H94.3333C96.4109 99 98.4033 99.8253 99.8723 101.294C101.341 102.763 102.167 104.756 102.167 106.833C102.167 108.911 101.341 110.903 99.8723 112.372C98.4033 113.841 96.4109 114.667 94.3333 114.667Z" fill="#FF7262"/>
<defs>
<clipPath id="clip0">
<rect width="300" height="300" fill="white" transform="translate(50 50)"/>
</clipPath>
<clipPath id="clip1">
<rect width="18" height="28" fill="white" transform="translate(160 180)"/>
</clipPath>
</defs>
</svg>
